{"glyphs":{"0":{"ha":833,"x_min":0,"x_max":0,"o":"m 747 468 l 747 772 b 417 1099 747 960 653 1099 b 86 772 181 1099 86 960 l 86 468 l 56 371 l 56 306 b 417 -19 56 118 181 -19 b 778 306 653 -19 778 118 l 778 371 z m 519 306 b 419 206 519 247 485 206 l 414 206 b 314 306 349 206 314 247 l 314 371 l 185 469 l 185 761 b 413 1010 185 911 243 1010 l 421 1010 b 649 761 590 1010 649 911 l 649 469 l 519 371 z "},"1":{"ha":833,"x_min":0,"x_max":0,"o":"m 560 225 l 560 372 l 554 372 l 479 469 l 479 1089 l 415 1089 l 75 858 l 125 782 l 381 956 l 381 476 l 303 372 l 301 372 l 301 225 l 76 225 l 76 0 l 785 0 l 785 225 z "},"2":{"ha":833,"x_min":0,"x_max":0,"o":"m 514 225 l 417 224 l 519 338 l 531 432 l 607 514 b 733 793 703 615 733 682 l 733 810 b 394 1099 733 981 614 1099 b 56 756 160 1099 56 974 l 56 722 l 154 722 b 390 1010 154 926 233 1010 l 399 1010 b 635 794 539 1010 635 928 l 635 781 b 524 560 635 701 606 646 l 481 514 l 349 490 l 56 163 l 56 0 l 778 0 l 778 225 z "},"3":{"ha":833,"x_min":0,"x_max":0,"o":"m 781 372 l 710 444 b 572 553 679 496 631 532 b 740 792 671 588 740 664 l 740 813 b 401 1099 740 981 621 1099 b 63 756 167 1099 63 974 l 63 722 l 161 722 b 394 1010 161 926 238 1010 l 408 1010 b 642 800 547 1010 642 928 l 642 790 b 415 597 642 656 542 597 l 263 597 l 263 508 l 421 508 b 590 450 489 508 549 489 l 522 372 b 526 338 525 363 526 350 l 526 324 b 424 206 526 240 478 206 l 410 206 b 307 347 356 206 307 236 l 49 347 l 49 328 b 417 -19 49 104 172 -19 b 785 293 693 -19 785 167 l 785 321 b 781 372 785 339 783 357 z "},"4":{"ha":833,"x_min":0,"x_max":0,"o":"m 696 378 l 610 482 l 610 1083 l 514 1083 l 125 475 l 35 378 l 35 221 l 440 221 l 440 0 l 699 0 l 699 221 l 799 221 l 799 378 z m 271 378 l 233 476 l 513 914 l 511 772 l 511 474 l 432 378 z "},"5":{"ha":833,"x_min":0,"x_max":0,"o":"m 758 372 b 417 686 747 576 604 686 b 181 608 321 686 239 657 l 199 993 l 746 993 l 746 1083 l 103 1083 l 76 475 l 160 450 b 406 597 201 549 306 597 l 418 597 b 661 372 539 597 651 531 l 525 372 b 526 351 526 365 526 358 l 526 338 b 424 206 526 240 478 206 l 410 206 b 307 347 356 206 307 236 l 49 347 l 49 328 b 417 -19 49 104 172 -19 b 785 331 665 -19 785 121 l 785 358 l 785 372 z "},"6":{"ha":833,"x_min":0,"x_max":0,"o":"m 785 371 l 761 419 b 443 681 733 596 606 681 b 199 581 340 681 257 640 b 308 818 218 664 253 746 b 718 1010 413 954 575 1010 l 718 1099 b 229 876 543 1099 349 1036 b 78 431 125 738 85 586 l 49 371 b 417 -19 53 140 176 -19 b 785 328 665 -19 785 118 l 785 342 b 783 371 785 351 785 361 z m 526 349 l 526 321 b 421 206 526 246 475 206 l 413 206 b 307 361 354 206 307 257 l 307 371 l 178 442 b 425 592 225 532 317 592 l 433 592 b 656 442 543 592 625 539 l 526 371 l 525 371 b 526 349 526 364 526 356 z "},"7":{"ha":833,"x_min":0,"x_max":0,"o":"m 765 1083 l 82 1083 l 82 694 l 172 694 l 172 993 l 649 994 l 458 525 l 324 436 l 140 0 l 417 0 l 558 349 l 543 475 l 765 1022 z "},"8":{"ha":833,"x_min":0,"x_max":0,"o":"m 781 371 l 740 408 b 585 553 713 479 656 526 b 754 794 685 589 754 667 l 754 815 b 415 1099 754 983 635 1099 b 76 815 196 1099 76 983 l 76 794 b 244 553 76 667 146 589 b 89 407 174 526 117 478 l 54 371 l 53 371 b 49 321 50 356 49 339 l 49 293 b 417 -19 49 167 140 -19 b 785 293 693 -19 785 167 l 785 321 b 781 371 785 339 783 356 z m 175 793 l 175 804 b 408 1010 175 931 269 1010 l 422 1010 b 656 804 561 1010 656 931 l 656 793 b 429 597 656 660 556 597 l 401 597 b 175 793 275 597 175 660 z m 526 324 b 424 206 526 240 478 206 l 410 206 b 307 324 356 206 307 240 l 307 338 b 311 371 307 350 308 361 l 313 371 l 249 467 b 396 508 289 494 339 508 l 435 508 b 579 469 490 508 540 496 l 522 371 b 526 338 525 361 526 350 z "},"9":{"ha":833,"x_min":0,"x_max":0,"o":"m 718 718 b 372 1099 718 961 572 1099 b 26 757 165 1099 26 985 l 26 743 b 351 403 26 514 165 403 b 596 501 454 403 536 442 b 578 439 590 481 585 460 l 415 381 b 378 324 404 360 392 340 b 49 208 310 243 214 210 l 49 -19 b 576 181 281 -19 457 21 b 646 293 604 217 626 254 l 639 329 b 718 703 697 449 718 575 z m 369 492 l 361 492 b 125 738 219 492 125 579 l 125 761 b 368 1010 125 918 221 1010 l 376 1010 b 619 722 511 1010 619 901 l 619 708 b 617 643 619 686 618 665 b 369 492 571 553 478 492 z "}," ":{"ha":278,"x_min":0,"x_max":0,"o":""},"A":{"ha":903,"x_min":0,"x_max":0,"o":"m 803 368 l 804 368 l 710 449 l 525 1094 l 382 1094 l 194 442 l 100 368 l 13 0 l 296 0 l 339 219 l 564 219 l 608 0 l 890 0 z m 426 368 l 304 454 l 453 985 l 603 450 l 478 368 z "},"À":{"ha":849,"x_min":0,"x_max":0,"o":"m 288 1319 l 374 1167 l 474 1167 l 390 1319 z m 353 1094 l 40 0 l 149 0 l 226 278 l 622 278 l 700 0 l 808 0 l 496 1094 z m 424 985 l 596 368 l 251 368 z "},"Á":{"ha":849,"x_min":0,"x_max":0,"o":"m 457 1319 l 374 1167 l 474 1167 l 560 1319 z m 353 1094 l 40 0 l 149 0 l 226 278 l 622 278 l 700 0 l 808 0 l 496 1094 z m 424 985 l 596 368 l 251 368 z "},"Â":{"ha":849,"x_min":0,"x_max":0,"o":"m 329 1167 l 424 1258 l 518 1167 l 615 1167 l 468 1319 l 379 1319 l 232 1167 z m 353 1094 l 40 0 l 149 0 l 226 278 l 622 278 l 700 0 l 808 0 l 496 1094 z m 424 985 l 596 368 l 251 368 z "},"Ã":{"ha":849,"x_min":0,"x_max":0,"o":"m 565 1300 b 514 1240 565 1254 542 1240 b 322 1315 460 1240 408 1315 b 213 1186 258 1315 213 1276 l 282 1186 b 333 1246 282 1232 306 1246 b 525 1171 388 1246 439 1171 b 635 1300 589 1171 635 1210 z m 353 1094 l 40 0 l 149 0 l 226 278 l 622 278 l 700 0 l 808 0 l 496 1094 z m 424 985 l 596 368 l 251 368 z "},"Ä":{"ha":849,"x_min":0,"x_max":0,"o":"m 369 1292 l 260 1292 l 260 1194 l 369 1194 z m 588 1292 l 478 1292 l 478 1194 l 588 1194 z m 353 1094 l 40 0 l 149 0 l 226 278 l 622 278 l 700 0 l 808 0 l 496 1094 z m 424 985 l 596 368 l 251 368 z "},"Å":{"ha":849,"x_min":0,"x_max":0,"o":"m 293 1204 b 353 1094 293 1158 317 1117 l 40 0 l 149 0 l 226 278 l 622 278 l 700 0 l 808 0 l 496 1094 l 494 1094 b 554 1204 531 1117 554 1158 b 424 1335 554 1276 496 1335 b 293 1204 351 1335 293 1276 z m 346 1204 b 424 1282 346 1247 381 1282 b 501 1204 467 1282 501 1247 b 424 1126 501 1161 467 1126 b 346 1204 381 1126 346 1161 z m 424 985 l 596 368 l 251 368 z "},"Ā":{"ha":849,"x_min":0,"x_max":0,"o":"m 267 1206 l 581 1206 l 581 1281 l 267 1281 z m 353 1094 l 40 0 l 149 0 l 226 278 l 622 278 l 700 0 l 808 0 l 496 1094 z m 424 985 l 596 368 l 251 368 z "},"Ă":{"ha":849,"x_min":0,"x_max":0,"o":"m 424 1151 b 625 1319 569 1151 625 1224 l 547 1319 b 424 1221 547 1258 510 1221 b 300 1319 338 1221 300 1258 l 222 1319 b 424 1151 222 1224 278 1151 z m 353 1094 l 40 0 l 149 0 l 226 278 l 622 278 l 700 0 l 808 0 l 496 1094 z m 424 985 l 596 368 l 251 368 z "},"Ą":{"ha":849,"x_min":0,"x_max":0,"o":"m 693 -143 b 808 0 693 -72 747 -26 l 496 1094 l 353 1094 l 40 0 l 149 0 l 226 278 l 622 278 l 697 10 b 610 -157 647 -28 610 -85 b 761 -293 610 -253 671 -293 b 885 -265 806 -293 856 -283 l 858 -193 b 771 -212 838 -204 804 -212 b 693 -143 721 -212 693 -183 z m 424 985 l 596 368 l 251 368 z "},"B":{"ha":896,"x_min":0,"x_max":0,"o":"m 832 374 l 746 435 b 582 560 714 499 654 538 b 743 783 676 593 743 661 l 743 811 b 414 1083 743 1008 594 1083 l 139 1083 l 139 469 l 69 374 l 69 0 l 458 0 b 833 319 631 0 833 38 l 833 347 b 832 374 833 356 833 365 z m 239 993 l 418 993 b 640 808 539 993 640 943 l 640 786 b 418 601 640 651 539 601 l 239 601 z m 567 328 b 465 228 567 243 508 228 l 333 228 l 333 374 l 239 453 l 239 511 l 443 511 b 621 446 515 511 579 492 l 563 374 b 567 339 565 364 567 351 z "},"Ḃ":{"ha":814,"x_min":0,"x_max":0,"o":"m 436 1292 l 325 1292 l 325 1194 l 436 1194 z m 103 1083 l 103 0 l 400 0 b 735 286 582 0 735 81 l 735 314 b 546 560 735 453 656 526 b 707 783 640 593 707 661 l 707 811 b 378 1083 707 1008 558 1083 z m 382 993 b 604 808 503 993 604 943 l 604 786 b 382 601 604 651 503 601 l 203 601 l 203 993 z m 407 511 b 632 311 529 511 632 453 l 632 290 b 407 90 632 149 529 90 l 203 90 l 203 511 z "},"C":{"ha":917,"x_min":0,"x_max":0,"o":"m 599 375 b 474 208 599 278 567 208 l 460 208 b 315 369 365 208 329 268 l 314 369 l 197 479 l 197 514 l 197 569 b 461 1008 197 878 281 1008 l 471 1008 b 701 689 633 1008 701 913 l 804 689 l 804 728 b 463 1099 804 972 693 1099 b 94 569 214 1099 94 944 l 94 514 b 96 444 94 490 94 467 l 46 369 l 47 369 b 460 -19 79 97 208 -19 b 863 363 725 -19 863 83 l 863 375 z "},"Ç":{"ha":858,"x_min":0,"x_max":0,"o":"m 333 -265 b 461 -293 361 -283 410 -293 b 604 -185 546 -293 604 -262 b 465 -78 604 -107 533 -78 l 460 -78 l 483 -14 b 789 339 689 -1 789 122 l 789 353 l 686 353 b 456 75 686 174 618 75 l 446 75 b 182 514 264 75 182 206 l 182 569 b 446 1008 182 878 265 1008 l 456 1008 b 686 689 618 1008 686 913 l 789 689 l 789 728 b 447 1099 789 972 678 1099 b 79 569 199 1099 79 944 l 79 514 b 417 -14 79 154 189 -1 l 379 -111 l 406 -143 b 446 -139 406 -143 425 -139 b 532 -182 499 -139 532 -150 b 451 -225 532 -215 506 -225 b 354 -204 415 -225 378 -217 z "},"Ć":{"ha":858,"x_min":0,"x_max":0,"o":"m 481 1319 l 397 1167 l 497 1167 l 583 1319 z m 182 514 l 182 569 b 446 1008 182 878 265 1008 l 456 1008 b 686 689 618 1008 686 913 l 789 689 l 789 728 b 447 1099 789 972 678 1099 b 79 569 199 1099 79 944 l 79 514 b 447 -15 79 139 199 -15 b 789 339 678 -15 789 111 l 789 353 l 686 353 b 456 75 686 174 618 75 l 446 75 b 182 514 264 75 182 206 z "},"Ĉ":{"ha":858,"x_min":0,"x_max":0,"o":"m 353 1167 l 447 1258 l 542 1167 l 639 1167 l 492 1319 l 403 1319 l 256 1167 z m 182 514 l 182 569 b 446 1008 182 878 265 1008 l 456 1008 b 686 689 618 1008 686 913 l 789 689 l 789 728 b 447 1099 789 972 678 1099 b 79 569 199 1099 79 944 l 79 514 b 447 -15 79 139 199 -15 b 789 339 678 -15 789 111 l 789 353 l 686 353 b 456 75 686 174 618 75 l 446 75 b 182 514 264 75 182 206 z "},"Ċ":{"ha":858,"x_min":0,"x_max":0,"o":"m 503 1292 l 392 1292 l 392 1194 l 503 1194 z m 182 514 l 182 569 b 446 1008 182 878 265 1008 l 456 1008 b 686 689 618 1008 686 913 l 789 689 l 789 728 b 447 1099 789 972 678 1099 b 79 569 199 1099 79 944 l 79 514 b 447 -15 79 139 199 -15 b 789 339 678 -15 789 111 l 789 353 l 686 353 b 456 75 686 174 618 75 l 446 75 b 182 514 264 75 182 206 z "},"Č":{"ha":858,"x_min":0,"x_max":0,"o":"m 256 1319 l 403 1167 l 492 1167 l 639 1319 l 542 1319 l 447 1226 l 353 1319 z m 182 514 l 182 569 b 446 1008 182 878 265 1008 l 456 1008 b 686 689 618 1008 686 913 l 789 689 l 789 728 b 447 1099 789 972 678 1099 b 79 569 199 1099 79 944 l 79 514 b 447 -15 79 139 199 -15 b 789 339 678 -15 789 111 l 789 353 l 686 353 b 456 75 686 174 618 75 l 446 75 b 182 514 264 75 182 206 z "},"D":{"ha":931,"x_min":0,"x_max":0,"o":"m 874 367 l 829 443 b 831 514 831 465 831 489 l 831 569 b 411 1083 831 944 675 1083 l 125 1083 l 125 465 l 69 367 l 69 0 l 417 0 b 876 367 708 0 844 101 z m 604 367 b 403 228 582 275 528 228 l 333 228 l 333 367 l 225 479 l 225 993 l 403 993 b 728 569 611 993 728 878 l 728 514 l 728 493 l 606 367 z "},"Ď":{"ha":888,"x_min":0,"x_max":0,"o":"m 214 1319 l 361 1167 l 450 1167 l 597 1319 l 500 1319 l 406 1226 l 311 1319 z m 808 514 l 808 569 b 389 1083 808 944 653 1083 l 103 1083 l 103 0 l 389 0 b 808 514 653 0 808 139 z m 203 90 l 203 993 l 381 993 b 706 569 589 993 706 878 l 706 514 b 381 90 706 206 589 90 z "},"Ḋ":{"ha":888,"x_min":0,"x_max":0,"o":"m 461 1292 l 350 1292 l 350 1194 l 461 1194 z m 808 514 l 808 569 b 389 1083 808 944 653 1083 l 103 1083 l 103 0 l 389 0 b 808 514 653 0 808 139 z m 203 90 l 203 993 l 381 993 b 706 569 589 993 706 878 l 706 514 b 381 90 706 206 589 90 z "},"E":{"ha":806,"x_min":0,"x_max":0,"o":"m 333 228 l 333 372 l 332 372 l 239 485 l 239 508 l 674 508 l 674 597 l 239 597 l 239 993 l 743 993 l 743 1083 l 139 1083 l 139 456 l 71 372 l 69 372 l 69 0 l 750 0 l 750 228 z "},"È":{"ha":763,"x_min":0,"x_max":0,"o":"m 279 1319 l 365 1167 l 465 1167 l 382 1319 z m 103 1083 l 103 0 l 707 0 l 707 90 l 203 90 l 203 508 l 638 508 l 638 597 l 203 597 l 203 993 l 707 993 l 707 1083 z "},"É":{"ha":763,"x_min":0,"x_max":0,"o":"m 449 1319 l 365 1167 l 465 1167 l 551 1319 z m 103 1083 l 103 0 l 707 0 l 707 90 l 203 90 l 203 508 l 638 508 l 638 597 l 203 597 l 203 993 l 707 993 l 707 1083 z "},"Ê":{"ha":763,"x_min":0,"x_max":0,"o":"m 321 1167 l 415 1258 l 510 1167 l 607 1167 l 460 1319 l 371 1319 l 224 1167 z m 103 1083 l 103 0 l 707 0 l 707 90 l 203 90 l 203 508 l 638 508 l 638 597 l 203 597 l 203 993 l 707 993 l 707 1083 z "},"Ë":{"ha":763,"x_min":0,"x_max":0,"o":"m 361 1292 l 251 1292 l 251 1194 l 361 1194 z m 579 1292 l 469 1292 l 469 1194 l 579 1194 z m 103 1083 l 103 0 l 707 0 l 707 90 l 203 90 l 203 508 l 638 508 l 638 597 l 203 597 l 203 993 l 707 993 l 707 1083 z "},"Ē":{"ha":763,"x_min":0,"x_max":0,"o":"m 258 1206 l 572 1206 l 572 1281 l 258 1281 z m 103 1083 l 103 0 l 707 0 l 707 90 l 203 90 l 203 508 l 638 508 l 638 597 l 203 597 l 203 993 l 707 993 l 707 1083 z "},"Ĕ":{"ha":763,"x_min":0,"x_max":0,"o":"m 415 1151 b 617 1319 561 1151 617 1224 l 539 1319 b 415 1221 539 1258 501 1221 b 292 1319 329 1221 292 1258 l 214 1319 b 415 1151 214 1224 269 1151 z m 103 1083 l 103 0 l 707 0 l 707 90 l 203 90 l 203 508 l 638 508 l 638 597 l 203 597 l 203 993 l 707 993 l 707 1083 z "},"Ė":{"ha":763,"x_min":0,"x_max":0,"o":"m 471 1292 l 360 1292 l 360 1194 l 471 1194 z m 103 1083 l 103 0 l 707 0 l 707 90 l 203 90 l 203 508 l 638 508 l 638 597 l 203 597 l 203 993 l 707 993 l 707 1083 z "},"Ę":{"ha":763,"x_min":0,"x_max":0,"o":"m 103 1083 l 103 0 l 582 0 b 507 -157 538 -37 507 -90 b 658 -293 507 -253 568 -293 b 782 -265 703 -293 753 -283 l 756 -193 b 668 -212 735 -204 701 -212 b 590 -143 618 -212 590 -183 b 706 0 590 -72 644 -26 l 707 0 l 707 90 l 203 90 l 203 508 l 638 508 l 638 597 l 203 597 l 203 993 l 707 993 l 707 1083 z "},"Ě":{"ha":763,"x_min":0,"x_max":0,"o":"m 224 1319 l 371 1167 l 460 1167 l 607 1319 l 510 1319 l 415 1226 l 321 1319 z m 103 1083 l 103 0 l 707 0 l 707 90 l 203 90 l 203 508 l 638 508 l 638 597 l 203 597 l 203 993 l 707 993 l 707 1083 z "},"F":{"ha":778,"x_min":0,"x_max":0,"o":"m 699 993 l 699 1083 l 117 1083 l 117 506 l 71 371 l 71 0 l 335 0 l 335 371 l 333 371 l 217 508 l 629 508 l 629 597 l 217 597 l 217 993 z "},"Ḟ":{"ha":713,"x_min":0,"x_max":0,"o":"m 471 1292 l 360 1292 l 360 1194 l 471 1194 z m 103 1083 l 103 0 l 203 0 l 203 508 l 615 508 l 615 597 l 203 597 l 203 993 l 685 993 l 685 1083 z "},"G":{"ha":944,"x_min":0,"x_max":0,"o":"m 800 504 l 800 533 l 514 533 l 514 444 l 686 444 l 610 374 l 610 236 b 486 208 578 218 535 208 l 472 208 b 314 374 367 208 328 269 l 179 532 l 179 569 b 456 1008 179 878 272 1008 l 464 1008 b 699 689 631 1008 699 913 l 800 689 l 800 728 b 456 1099 800 972 688 1099 b 75 569 208 1099 75 944 l 75 514 b 79 413 75 478 76 444 l 46 374 b 479 -19 78 99 215 -19 b 874 108 674 -19 786 39 l 874 374 z "},"Ĝ":{"ha":900,"x_min":0,"x_max":0,"o":"m 365 1167 l 460 1258 l 554 1167 l 651 1167 l 504 1319 l 415 1319 l 268 1167 z m 474 -15 b 804 110 646 -15 746 49 l 804 533 l 518 533 l 518 444 l 704 444 l 704 158 b 481 75 665 117 590 75 l 471 75 b 183 514 272 75 183 206 l 183 569 b 460 1008 183 878 276 1008 l 468 1008 b 703 689 635 1008 703 913 l 804 689 l 804 728 b 460 1099 804 972 692 1099 b 79 569 213 1099 79 944 l 79 514 b 474 -15 79 139 213 -15 z "},"Ğ":{"ha":900,"x_min":0,"x_max":0,"o":"m 460 1151 b 661 1319 606 1151 661 1224 l 583 1319 b 460 1221 583 1258 546 1221 b 336 1319 374 1221 336 1258 l 258 1319 b 460 1151 258 1224 314 1151 z m 474 -15 b 804 110 646 -15 746 49 l 804 533 l 518 533 l 518 444 l 704 444 l 704 158 b 481 75 665 117 590 75 l 471 75 b 183 514 272 75 183 206 l 183 569 b 460 1008 183 878 276 1008 l 468 1008 b 703 689 635 1008 703 913 l 804 689 l 804 728 b 460 1099 804 972 692 1099 b 79 569 213 1099 79 944 l 79 514 b 474 -15 79 139 213 -15 z "},"Ġ":{"ha":900,"x_min":0,"x_max":0,"o":"m 515 1292 l 404 1292 l 404 1194 l 515 1194 z m 474 -15 b 804 110 646 -15 746 49 l 804 533 l 518 533 l 518 444 l 704 444 l 704 158 b 481 75 665 117 590 75 l 471 75 b 183 514 272 75 183 206 l 183 569 b 460 1008 183 878 276 1008 l 468 1008 b 703 689 635 1008 703 913 l 804 689 l 804 728 b 460 1099 804 972 692 1099 b 79 569 213 1099 79 944 l 79 514 b 474 -15 79 139 213 -15 z "},"Ģ":{"ha":900,"x_min":0,"x_max":0,"o":"m 474 -15 b 804 110 646 -15 746 49 l 804 533 l 518 533 l 518 444 l 704 444 l 704 158 b 481 75 665 117 590 75 l 471 75 b 183 514 272 75 183 206 l 183 569 b 460 1008 183 878 276 1008 l 468 1008 b 703 689 635 1008 703 913 l 804 689 l 804 728 b 460 1099 804 972 692 1099 b 79 569 213 1099 79 944 l 79 514 b 474 -15 79 139 213 -15 z m 531 -78 l 417 -78 l 417 -172 l 478 -172 b 385 -247 469 -226 435 -247 l 385 -297 b 531 -147 476 -297 531 -243 z "},"H":{"ha":931,"x_min":0,"x_max":0,"o":"m 807 501 l 807 1083 l 707 1083 l 707 597 l 225 597 l 225 1083 l 125 1083 l 125 506 l 69 375 l 69 0 l 333 0 l 333 375 l 225 507 l 225 508 l 707 508 l 597 375 l 597 0 l 861 0 l 861 375 z "},"Ĥ":{"ha":888,"x_min":0,"x_max":0,"o":"m 349 1167 l 443 1258 l 538 1167 l 635 1167 l 488 1319 l 399 1319 l 251 1167 z m 685 1083 l 685 597 l 203 597 l 203 1083 l 103 1083 l 103 0 l 203 0 l 203 508 l 685 508 l 685 0 l 785 0 l 785 1083 z "},"I":{"ha":417,"x_min":0,"x_max":0,"o":"m 257 472 l 257 1083 l 157 1083 l 157 468 l 76 371 l 76 0 l 340 0 l 340 371 z "},"Ì":{"ha":318,"x_min":0,"x_max":0,"o":"m 24 1319 l 110 1167 l 210 1167 l 126 1319 z m 210 1083 l 110 1083 l 110 0 l 210 0 z "},"Í":{"ha":318,"x_min":0,"x_max":0,"o":"m 193 1319 l 110 1167 l 210 1167 l 296 1319 z m 210 1083 l 110 1083 l 110 0 l 210 0 z "},"Î":{"ha":318,"x_min":0,"x_max":0,"o":"m 65 1167 l 160 1258 l 254 1167 l 351 1167 l 204 1319 l 115 1319 l -32 1167 z m 210 1083 l 110 1083 l 110 0 l 210 0 z "},"Ï":{"ha":318,"x_min":0,"x_max":0,"o":"m 106 1292 l -4 1292 l -4 1194 l 106 1194 z m 324 1292 l 214 1292 l 214 1194 l 324 1194 z m 210 1083 l 110 1083 l 110 0 l 210 0 z "},"Ĩ":{"ha":318,"x_min":0,"x_max":0,"o":"m 301 1300 b 250 1240 301 1254 278 1240 b 58 1315 196 1240 144 1315 b -51 1186 -6 1315 -51 1276 l 18 1186 b 69 1246 18 1232 42 1246 b 261 1171 124 1246 175 1171 b 371 1300 325 1171 371 1210 z m 210 1083 l 110 1083 l 110 0 l 210 0 z "},"Ī":{"ha":318,"x_min":0,"x_max":0,"o":"m 3 1206 l 317 1206 l 317 1281 l 3 1281 z m 210 1083 l 110 1083 l 110 0 l 210 0 z "},"Ĭ":{"ha":318,"x_min":0,"x_max":0,"o":"m 160 1151 b 361 1319 306 1151 361 1224 l 283 1319 b 160 1221 283 1258 246 1221 b 36 1319 74 1221 36 1258 l -42 1319 b 160 1151 -42 1224 14 1151 z m 210 1083 l 110 1083 l 110 0 l 210 0 z "},"Į":{"ha":318,"x_min":0,"x_max":0,"o":"m 93 -143 b 208 0 93 -72 147 -26 l 210 0 l 210 1083 l 110 1083 l 110 19 b 10 -157 53 -18 10 -78 b 161 -293 10 -253 71 -293 b 285 -265 206 -293 256 -283 l 258 -193 b 171 -212 238 -204 204 -212 b 93 -143 121 -212 93 -183 z "},"İ":{"ha":318,"x_min":0,"x_max":0,"o":"m 215 1292 l 104 1292 l 104 1194 l 215 1194 z m 210 1083 l 110 1083 l 110 0 l 210 0 z "},"J":{"ha":764,"x_min":0,"x_max":0,"o":"m 700 372 l 635 461 l 635 1083 l 535 1083 l 535 478 l 439 372 l 438 372 l 438 361 b 358 208 438 267 424 208 b 279 375 293 208 279 267 l 29 375 l 29 333 b 365 -19 29 108 115 -19 b 701 331 601 -19 701 108 l 701 372 z "},"Ĵ":{"ha":688,"x_min":0,"x_max":0,"o":"m 447 1167 l 542 1258 l 636 1167 l 733 1167 l 586 1319 l 497 1319 l 350 1167 z m 492 1083 l 492 350 b 314 75 492 161 442 75 b 135 353 185 75 135 161 l 40 353 l 40 333 b 315 -15 40 113 108 -15 b 592 333 518 -15 592 117 l 592 1083 z "},"K":{"ha":896,"x_min":0,"x_max":0,"o":"m 708 369 l 529 496 l 461 628 l 783 1083 l 661 1083 l 268 511 l 253 525 l 253 1083 l 153 1083 l 153 497 l 69 369 l 69 0 l 333 0 l 333 447 l 397 538 l 422 488 l 425 369 l 583 0 l 875 0 z "},"Ķ":{"ha":781,"x_min":0,"x_max":0,"o":"m 203 1083 l 103 1083 l 103 0 l 203 0 l 203 333 l 347 538 l 619 0 l 733 0 l 411 628 l 733 1083 l 611 1083 l 203 489 z m 443 -78 l 329 -78 l 329 -172 l 390 -172 b 297 -247 382 -226 347 -247 l 297 -297 b 443 -147 389 -297 443 -243 z "},"L":{"ha":736,"x_min":0,"x_max":0,"o":"m 333 228 l 333 372 l 239 500 l 239 1083 l 139 1083 l 139 449 l 69 372 l 69 0 l 715 0 l 715 228 z "},"Ĺ":{"ha":682,"x_min":0,"x_max":0,"o":"m 186 1319 l 103 1167 l 203 1167 l 289 1319 z m 661 0 l 661 90 l 203 90 l 203 1083 l 103 1083 l 103 0 z "},"Ļ":{"ha":682,"x_min":0,"x_max":0,"o":"m 661 0 l 661 90 l 203 90 l 203 1083 l 103 1083 l 103 0 z m 440 -78 l 326 -78 l 326 -172 l 388 -172 b 294 -247 379 -226 344 -247 l 294 -297 b 440 -147 386 -297 440 -243 z "},"Ľ":{"ha":682,"x_min":0,"x_max":0,"o":"m 406 1111 l 406 853 l 461 853 l 488 1111 z m 661 0 l 661 90 l 203 90 l 203 1083 l 103 1083 l 103 0 z "},"M":{"ha":1236,"x_min":0,"x_max":0,"o":"m 1082 460 l 1082 1083 l 942 1083 l 722 453 l 621 367 l 617 367 l 536 435 l 311 1083 l 171 1083 l 171 478 l 69 367 l 69 0 l 333 0 l 333 367 l 271 451 l 271 668 l 265 910 l 415 478 l 392 367 l 390 367 l 482 0 l 754 0 l 846 367 l 828 453 l 986 910 l 982 668 l 982 474 l 903 367 l 903 0 l 1167 0 l 1167 367 z "},"Ṁ":{"ha":1115,"x_min":0,"x_max":0,"o":"m 614 1292 l 503 1292 l 503 1194 l 614 1194 z m 918 910 l 914 668 l 914 0 l 1014 0 l 1014 1083 l 874 1083 l 558 172 l 243 1083 l 103 1083 l 103 0 l 203 0 l 203 668 l 197 910 l 513 0 l 603 0 z "},"N":{"ha":958,"x_min":0,"x_max":0,"o":"m 821 515 l 821 1083 l 726 1083 l 726 438 l 674 375 l 667 375 l 538 515 l 219 1083 l 111 1083 l 111 443 l 69 375 l 69 0 l 319 0 l 319 375 l 206 496 l 206 663 l 200 914 l 464 444 l 424 375 l 611 0 l 889 0 l 889 375 z "},"Ñ":{"ha":915,"x_min":0,"x_max":0,"o":"m 599 1300 b 547 1240 599 1254 575 1240 b 356 1315 493 1240 442 1315 b 246 1186 292 1315 246 1276 l 315 1186 b 367 1246 315 1232 339 1246 b 558 1171 421 1246 472 1171 b 668 1300 622 1171 668 1210 z m 813 1083 l 718 1083 l 718 421 l 722 169 l 211 1083 l 103 1083 l 103 0 l 197 0 l 197 663 l 192 914 l 704 0 l 813 0 z "},"Ń":{"ha":915,"x_min":0,"x_max":0,"o":"m 490 1319 l 407 1167 l 507 1167 l 593 1319 z m 813 1083 l 718 1083 l 718 421 l 722 169 l 211 1083 l 103 1083 l 103 0 l 197 0 l 197 663 l 192 914 l 704 0 l 813 0 z "},"Ņ":{"ha":915,"x_min":0,"x_max":0,"o":"m 813 1083 l 718 1083 l 718 421 l 722 169 l 211 1083 l 103 1083 l 103 0 l 197 0 l 197 663 l 192 914 l 704 0 l 813 0 z m 514 -78 l 400 -78 l 400 -172 l 461 -172 b 368 -247 453 -226 418 -247 l 368 -297 b 514 -147 460 -297 514 -243 z "},"Ň":{"ha":915,"x_min":0,"x_max":0,"o":"m 265 1319 l 413 1167 l 501 1167 l 649 1319 l 551 1319 l 457 1226 l 363 1319 z m 813 1083 l 718 1083 l 718 421 l 722 169 l 211 1083 l 103 1083 l 103 0 l 197 0 l 197 663 l 192 914 l 704 0 l 813 0 z "},"O":{"ha":944,"x_min":0,"x_max":0,"o":"m 835 465 b 836 514 836 481 836 497 l 836 569 b 464 1099 836 944 713 1099 b 93 569 217 1099 93 944 l 93 514 b 94 440 93 489 93 464 l 54 371 b 472 -19 86 99 221 -19 b 890 371 724 -19 858 99 z m 479 208 l 465 208 b 322 371 376 208 338 268 l 196 486 l 196 514 l 196 569 b 460 1008 196 878 278 1008 l 469 1008 b 733 569 651 1008 733 878 l 733 514 l 733 472 l 622 371 b 479 208 607 268 568 208 z "},"Ò":{"ha":901,"x_min":0,"x_max":0,"o":"m 314 1319 l 400 1167 l 500 1167 l 417 1319 z m 450 -15 b 822 514 699 -15 822 139 l 822 569 b 450 1099 822 944 699 1099 b 79 569 203 1099 79 944 l 79 514 b 450 -15 79 139 203 -15 z m 446 75 b 182 514 264 75 182 206 l 182 569 b 446 1008 182 878 264 1008 l 456 1008 b 719 569 638 1008 719 878 l 719 514 b 456 75 719 206 638 75 z "},"Ó":{"ha":901,"x_min":0,"x_max":0,"o":"m 483 1319 l 400 1167 l 500 1167 l 586 1319 z m 450 -15 b 822 514 699 -15 822 139 l 822 569 b 450 1099 822 944 699 1099 b 79 569 203 1099 79 944 l 79 514 b 450 -15 79 139 203 -15 z m 446 75 b 182 514 264 75 182 206 l 182 569 b 446 1008 182 878 264 1008 l 456 1008 b 719 569 638 1008 719 878 l 719 514 b 456 75 719 206 638 75 z "},"Ô":{"ha":901,"x_min":0,"x_max":0,"o":"m 356 1167 l 450 1258 l 544 1167 l 642 1167 l 494 1319 l 406 1319 l 258 1167 z m 450 -15 b 822 514 699 -15 822 139 l 822 569 b 450 1099 822 944 699 1099 b 79 569 203 1099 79 944 l 79 514 b 450 -15 79 139 203 -15 z m 446 75 b 182 514 264 75 182 206 l 182 569 b 446 1008 182 878 264 1008 l 456 1008 b 719 569 638 1008 719 878 l 719 514 b 456 75 719 206 638 75 z "},"Õ":{"ha":901,"x_min":0,"x_max":0,"o":"m 592 1300 b 540 1240 592 1254 568 1240 b 349 1315 486 1240 435 1315 b 239 1186 285 1315 239 1276 l 308 1186 b 360 1246 308 1232 332 1246 b 551 1171 414 1246 465 1171 b 661 1300 615 1171 661 1210 z m 450 -15 b 822 514 699 -15 822 139 l 822 569 b 450 1099 822 944 699 1099 b 79 569 203 1099 79 944 l 79 514 b 450 -15 79 139 203 -15 z m 446 75 b 182 514 264 75 182 206 l 182 569 b 446 1008 182 878 264 1008 l 456 1008 b 719 569 638 1008 719 878 l 719 514 b 456 75 719 206 638 75 z "},"Ö":{"ha":901,"x_min":0,"x_max":0,"o":"m 396 1292 l 286 1292 l 286 1194 l 396 1194 z m 614 1292 l 504 1292 l 504 1194 l 614 1194 z m 450 -15 b 822 514 699 -15 822 139 l 822 569 b 450 1099 822 944 699 1099 b 79 569 203 1099 79 944 l 79 514 b 450 -15 79 139 203 -15 z m 446 75 b 182 514 264 75 182 206 l 182 569 b 446 1008 182 878 264 1008 l 456 1008 b 719 569 638 1008 719 878 l 719 514 b 456 75 719 206 638 75 z "},"Ō":{"ha":901,"x_min":0,"x_max":0,"o":"m 293 1206 l 607 1206 l 607 1281 l 293 1281 z m 450 -15 b 822 514 699 -15 822 139 l 822 569 b 450 1099 822 944 699 1099 b 79 569 203 1099 79 944 l 79 514 b 450 -15 79 139 203 -15 z m 446 75 b 182 514 264 75 182 206 l 182 569 b 446 1008 182 878 264 1008 l 456 1008 b 719 569 638 1008 719 878 l 719 514 b 456 75 719 206 638 75 z "},"Ŏ":{"ha":901,"x_min":0,"x_max":0,"o":"m 450 1151 b 651 1319 596 1151 651 1224 l 574 1319 b 450 1221 574 1258 536 1221 b 326 1319 364 1221 326 1258 l 249 1319 b 450 1151 249 1224 304 1151 z m 450 -15 b 822 514 699 -15 822 139 l 822 569 b 450 1099 822 944 699 1099 b 79 569 203 1099 79 944 l 79 514 b 450 -15 79 139 203 -15 z m 446 75 b 182 514 264 75 182 206 l 182 569 b 446 1008 182 878 264 1008 l 456 1008 b 719 569 638 1008 719 878 l 719 514 b 456 75 719 206 638 75 z "},"Ő":{"ha":901,"x_min":0,"x_max":0,"o":"m 397 1319 l 317 1167 l 410 1167 l 494 1319 z m 574 1319 l 490 1167 l 583 1167 l 671 1319 z m 450 -15 b 822 514 699 -15 822 139 l 822 569 b 450 1099 822 944 699 1099 b 79 569 203 1099 79 944 l 79 514 b 450 -15 79 139 203 -15 z m 446 75 b 182 514 264 75 182 206 l 182 569 b 446 1008 182 878 264 1008 l 456 1008 b 719 569 638 1008 719 878 l 719 514 b 456 75 719 206 638 75 z "},"P":{"ha":861,"x_min":0,"x_max":0,"o":"m 431 1083 l 131 1083 l 131 450 l 69 372 l 69 0 l 333 0 l 333 372 l 274 440 l 431 440 b 763 747 585 440 763 499 l 763 775 b 431 1083 763 1025 585 1083 z m 660 751 b 433 531 660 565 526 531 l 231 531 l 231 993 l 433 993 b 660 772 526 993 660 958 z "},"Ṗ":{"ha":796,"x_min":0,"x_max":0,"o":"m 454 1292 l 343 1292 l 343 1194 l 454 1194 z m 203 440 l 403 440 b 735 747 557 440 735 499 l 735 775 b 403 1083 735 1025 557 1083 l 103 1083 l 103 0 l 203 0 z m 203 531 l 203 993 l 406 993 b 632 772 499 993 632 958 l 632 751 b 406 531 632 565 499 531 z "},"Q":{"ha":944,"x_min":0,"x_max":0,"o":"m 892 375 l 849 425 b 851 514 850 453 851 483 l 851 569 b 479 1099 851 944 728 1099 b 108 569 232 1099 108 944 l 108 514 b 110 443 108 489 108 467 l 53 375 b 472 -19 85 100 219 -19 b 515 -18 486 -19 501 -18 l 563 -139 l 764 -139 l 697 26 b 892 375 807 85 871 197 z m 596 278 l 557 375 l 363 375 l 425 213 b 321 375 363 229 333 286 l 211 506 l 211 514 l 211 569 b 475 1008 211 878 293 1008 l 485 1008 b 749 569 667 1008 749 878 l 749 526 l 622 375 b 596 278 618 336 608 304 z "},"R":{"ha":882,"x_min":0,"x_max":0,"o":"m 682 372 l 683 372 l 561 463 b 743 747 661 497 743 578 l 743 775 b 411 1083 743 1025 565 1083 l 111 1083 l 111 460 l 69 372 l 69 0 l 333 0 l 333 372 l 253 440 l 411 440 l 432 440 l 406 372 l 407 372 l 549 0 l 833 0 z m 211 531 l 211 993 l 414 993 b 640 772 507 993 640 958 l 640 751 b 414 531 640 565 507 531 z "},"Ŕ":{"ha":811,"x_min":0,"x_max":0,"o":"m 414 1319 l 331 1167 l 431 1167 l 517 1319 z m 203 440 l 403 440 b 453 442 419 440 436 440 l 625 0 l 735 0 l 547 461 b 735 747 650 494 735 575 l 735 775 b 403 1083 735 1025 557 1083 l 103 1083 l 103 0 l 203 0 z m 203 531 l 203 993 l 406 993 b 632 772 499 993 632 958 l 632 751 b 406 531 632 565 499 531 z "},"Ŗ":{"ha":811,"x_min":0,"x_max":0,"o":"m 203 440 l 403 440 b 453 442 419 440 436 440 l 625 0 l 735 0 l 547 461 b 735 747 650 494 735 575 l 735 775 b 403 1083 735 1025 557 1083 l 103 1083 l 103 0 l 203 0 z m 203 531 l 203 993 l 406 993 b 632 772 499 993 632 958 l 632 751 b 406 531 632 565 499 531 z m 451 -78 l 338 -78 l 338 -172 l 399 -172 b 306 -247 390 -226 356 -247 l 306 -297 b 451 -147 397 -297 451 -243 z "},"Ř":{"ha":811,"x_min":0,"x_max":0,"o":"m 189 1319 l 336 1167 l 425 1167 l 572 1319 l 475 1319 l 381 1226 l 286 1319 z m 203 440 l 403 440 b 453 442 419 440 436 440 l 625 0 l 735 0 l 547 461 b 735 747 650 494 735 575 l 735 775 b 403 1083 735 1025 557 1083 l 103 1083 l 103 0 l 203 0 z m 203 531 l 203 993 l 406 993 b 632 772 499 993 632 958 l 632 751 b 406 531 632 565 499 531 z "},"S":{"ha":889,"x_min":0,"x_max":0,"o":"m 849 374 l 806 401 b 486 599 771 508 672 574 b 228 810 288 626 228 694 l 228 821 b 460 1008 228 938 328 1008 l 469 1008 b 707 717 635 1008 707 922 l 807 717 l 807 750 b 465 1099 807 974 707 1099 b 125 808 260 1099 125 989 l 125 794 b 449 514 125 651 213 546 b 619 465 521 504 576 488 l 563 374 b 579 315 575 358 579 338 l 579 310 b 451 208 579 257 542 208 l 438 208 b 306 375 347 208 306 256 l 42 375 l 42 363 b 444 -19 42 90 181 -19 b 847 317 710 -19 847 104 l 847 332 b 846 374 847 347 847 361 z "},"Ś":{"ha":835,"x_min":0,"x_max":0,"o":"m 450 1319 l 367 1167 l 467 1167 l 553 1319 z m 400 514 b 668 296 589 488 668 424 l 668 283 b 422 75 668 151 569 75 l 413 75 b 164 353 267 75 164 163 l 64 353 l 64 339 b 417 -15 64 115 188 -15 b 771 290 633 -15 771 99 l 771 304 b 438 599 771 471 674 567 b 179 810 239 626 179 694 l 179 821 b 411 1008 179 938 279 1008 l 421 1008 b 658 717 586 1008 658 922 l 758 717 l 758 750 b 417 1099 758 974 658 1099 b 76 808 211 1099 76 989 l 76 794 b 400 514 76 651 164 546 z "},"Ŝ":{"ha":835,"x_min":0,"x_max":0,"o":"m 322 1167 l 417 1258 l 511 1167 l 608 1167 l 461 1319 l 372 1319 l 225 1167 z m 400 514 b 668 296 589 488 668 424 l 668 283 b 422 75 668 151 569 75 l 413 75 b 164 353 267 75 164 163 l 64 353 l 64 339 b 417 -15 64 115 188 -15 b 771 290 633 -15 771 99 l 771 304 b 438 599 771 471 674 567 b 179 810 239 626 179 694 l 179 821 b 411 1008 179 938 279 1008 l 421 1008 b 658 717 586 1008 658 922 l 758 717 l 758 750 b 417 1099 758 974 658 1099 b 76 808 211 1099 76 989 l 76 794 b 400 514 76 651 164 546 z "},"Ş":{"ha":835,"x_min":0,"x_max":0,"o":"m 294 -265 b 422 -293 322 -283 371 -293 b 565 -185 507 -293 565 -262 b 426 -78 565 -107 494 -78 l 421 -78 l 444 -14 b 771 290 644 -4 771 107 l 771 304 b 438 599 771 471 674 567 b 179 810 239 626 179 694 l 179 821 b 411 1008 179 938 279 1008 l 421 1008 b 658 717 586 1008 658 922 l 758 717 l 758 750 b 417 1099 758 974 658 1099 b 76 808 211 1099 76 989 l 76 794 b 400 514 76 651 164 546 b 668 296 589 488 668 424 l 668 283 b 422 75 668 151 569 75 l 413 75 b 164 353 267 75 164 163 l 64 353 l 64 339 b 378 -14 64 128 174 0 l 340 -111 l 367 -143 b 407 -139 367 -143 386 -139 b 493 -182 460 -139 493 -150 b 413 -225 493 -215 467 -225 b 315 -204 376 -225 339 -217 z "},"Š":{"ha":835,"x_min":0,"x_max":0,"o":"m 225 1319 l 372 1167 l 461 1167 l 608 1319 l 511 1319 l 417 1226 l 322 1319 z m 400 514 b 668 296 589 488 668 424 l 668 283 b 422 75 668 151 569 75 l 413 75 b 164 353 267 75 164 163 l 64 353 l 64 339 b 417 -15 64 115 188 -15 b 771 290 633 -15 771 99 l 771 304 b 438 599 771 471 674 567 b 179 810 239 626 179 694 l 179 821 b 411 1008 179 938 279 1008 l 421 1008 b 658 717 586 1008 658 922 l 758 717 l 758 750 b 417 1099 758 974 658 1099 b 76 808 211 1099 76 989 l 76 794 b 400 514 76 651 164 546 z "},"Ș":{"ha":835,"x_min":0,"x_max":0,"o":"m 400 514 b 668 296 589 488 668 424 l 668 283 b 422 75 668 151 569 75 l 413 75 b 164 353 267 75 164 163 l 64 353 l 64 339 b 417 -15 64 115 188 -15 b 771 290 633 -15 771 99 l 771 304 b 438 599 771 471 674 567 b 179 810 239 626 179 694 l 179 821 b 411 1008 179 938 279 1008 l 421 1008 b 658 717 586 1008 658 922 l 758 717 l 758 750 b 417 1099 758 974 658 1099 b 76 808 211 1099 76 989 l 76 794 b 400 514 76 651 164 546 z m 474 -78 l 360 -78 l 360 -172 l 421 -172 b 328 -247 413 -226 378 -247 l 328 -297 b 474 -147 419 -297 474 -243 z "},"T":{"ha":792,"x_min":0,"x_max":0,"o":"m 721 993 l 721 1083 l 69 1083 l 69 993 l 344 993 l 344 468 l 264 371 l 264 0 l 528 0 l 528 371 l 444 472 l 444 993 z "},"Ţ":{"ha":715,"x_min":0,"x_max":0,"o":"m 407 993 l 683 993 l 683 1083 l 32 1083 l 32 993 l 307 993 l 307 0 l 407 0 z m 414 -78 l 300 -78 l 300 -172 l 361 -172 b 268 -247 353 -226 318 -247 l 268 -297 b 414 -147 360 -297 414 -243 z "},"Ť":{"ha":715,"x_min":0,"x_max":0,"o":"m 165 1319 l 313 1167 l 401 1167 l 549 1319 l 451 1319 l 357 1226 l 263 1319 z m 407 993 l 683 993 l 683 1083 l 32 1083 l 32 993 l 307 993 l 307 0 l 407 0 z "},"Ṫ":{"ha":715,"x_min":0,"x_max":0,"o":"m 413 1292 l 301 1292 l 301 1194 l 413 1194 z m 407 993 l 683 993 l 683 1083 l 32 1083 l 32 993 l 307 993 l 307 0 l 407 0 z "},"U":{"ha":931,"x_min":0,"x_max":0,"o":"m 814 456 l 814 1083 l 714 1083 l 714 482 l 604 372 l 604 351 b 465 208 604 265 581 208 b 326 351 350 208 326 265 l 326 372 l 218 472 l 218 1083 l 118 1083 l 118 471 l 63 372 l 63 344 b 465 -19 63 117 151 -19 b 868 344 779 -19 868 117 l 868 372 z "},"Ù":{"ha":888,"x_min":0,"x_max":0,"o":"m 307 1319 l 393 1167 l 493 1167 l 410 1319 z m 443 -15 b 792 336 674 -15 792 75 l 792 1083 l 692 1083 l 692 343 b 443 75 692 138 610 75 b 196 343 276 75 196 138 l 196 1083 l 96 1083 l 96 336 b 443 -15 96 75 213 -15 z "},"Ú":{"ha":888,"x_min":0,"x_max":0,"o":"m 476 1319 l 393 1167 l 493 1167 l 579 1319 z m 443 -15 b 792 336 674 -15 792 75 l 792 1083 l 692 1083 l 692 343 b 443 75 692 138 610 75 b 196 343 276 75 196 138 l 196 1083 l 96 1083 l 96 336 b 443 -15 96 75 213 -15 z "},"Û":{"ha":888,"x_min":0,"x_max":0,"o":"m 349 1167 l 443 1258 l 538 1167 l 635 1167 l 488 1319 l 399 1319 l 251 1167 z m 443 -15 b 792 336 674 -15 792 75 l 792 1083 l 692 1083 l 692 343 b 443 75 692 138 610 75 b 196 343 276 75 196 138 l 196 1083 l 96 1083 l 96 336 b 443 -15 96 75 213 -15 z "},"Ü":{"ha":888,"x_min":0,"x_max":0,"o":"m 389 1292 l 279 1292 l 279 1194 l 389 1194 z m 607 1292 l 497 1292 l 497 1194 l 607 1194 z m 443 -15 b 792 336 674 -15 792 75 l 792 1083 l 692 1083 l 692 343 b 443 75 692 138 610 75 b 196 343 276 75 196 138 l 196 1083 l 96 1083 l 96 336 b 443 -15 96 75 213 -15 z "},"Ũ":{"ha":888,"x_min":0,"x_max":0,"o":"m 585 1300 b 533 1240 585 1254 561 1240 b 342 1315 479 1240 428 1315 b 232 1186 278 1315 232 1276 l 301 1186 b 353 1246 301 1232 325 1246 b 544 1171 407 1246 458 1171 b 654 1300 608 1171 654 1210 z m 443 -15 b 792 336 674 -15 792 75 l 792 1083 l 692 1083 l 692 343 b 443 75 692 138 610 75 b 196 343 276 75 196 138 l 196 1083 l 96 1083 l 96 336 b 443 -15 96 75 213 -15 z "},"Ū":{"ha":888,"x_min":0,"x_max":0,"o":"m 286 1206 l 600 1206 l 600 1281 l 286 1281 z m 443 -15 b 792 336 674 -15 792 75 l 792 1083 l 692 1083 l 692 343 b 443 75 692 138 610 75 b 196 343 276 75 196 138 l 196 1083 l 96 1083 l 96 336 b 443 -15 96 75 213 -15 z "},"Ŭ":{"ha":888,"x_min":0,"x_max":0,"o":"m 443 1151 b 644 1319 589 1151 644 1224 l 567 1319 b 443 1221 567 1258 529 1221 b 319 1319 357 1221 319 1258 l 242 1319 b 443 1151 242 1224 297 1151 z m 443 -15 b 792 336 674 -15 792 75 l 792 1083 l 692 1083 l 692 343 b 443 75 692 138 610 75 b 196 343 276 75 196 138 l 196 1083 l 96 1083 l 96 336 b 443 -15 96 75 213 -15 z "},"Ů":{"ha":888,"x_min":0,"x_max":0,"o":"m 313 1204 b 443 1074 313 1132 371 1074 b 574 1204 515 1074 574 1132 b 443 1335 574 1276 515 1335 b 313 1204 371 1335 313 1276 z m 365 1204 b 443 1282 365 1247 400 1282 b 521 1204 486 1282 521 1247 b 443 1126 521 1161 486 1126 b 365 1204 400 1126 365 1161 z m 443 -15 b 792 336 674 -15 792 75 l 792 1083 l 692 1083 l 692 343 b 443 75 692 138 610 75 b 196 343 276 75 196 138 l 196 1083 l 96 1083 l 96 336 b 443 -15 96 75 213 -15 z "},"Ű":{"ha":888,"x_min":0,"x_max":0,"o":"m 390 1319 l 310 1167 l 403 1167 l 488 1319 z m 567 1319 l 483 1167 l 576 1167 l 664 1319 z m 443 -15 b 792 336 674 -15 792 75 l 792 1083 l 692 1083 l 692 343 b 443 75 692 138 610 75 b 196 343 276 75 196 138 l 196 1083 l 96 1083 l 96 336 b 443 -15 96 75 213 -15 z "},"Ų":{"ha":888,"x_min":0,"x_max":0,"o":"m 443 -15 b 385 -157 408 -51 385 -99 b 536 -293 385 -253 446 -293 b 660 -265 581 -293 631 -283 l 633 -193 b 546 -212 613 -204 579 -212 b 468 -143 496 -212 468 -183 b 583 0 468 -72 521 -17 b 792 336 721 36 792 135 l 792 1083 l 692 1083 l 692 343 b 443 75 692 138 610 75 b 196 343 276 75 196 138 l 196 1083 l 96 1083 l 96 336 b 443 -15 96 75 213 -15 z "},"V":{"ha":903,"x_min":0,"x_max":0,"o":"m 828 1083 l 719 1083 l 542 451 l 464 371 l 451 306 l 439 371 l 340 464 l 168 1083 l 60 1083 l 235 467 l 182 371 l 271 0 l 632 0 l 721 371 l 654 474 z "},"W":{"ha":1319,"x_min":0,"x_max":0,"o":"m 1226 1083 l 1121 1083 l 1011 453 l 946 374 l 944 364 l 943 374 l 872 460 l 729 1083 l 594 1083 l 454 467 l 376 374 l 375 364 l 374 374 l 314 446 l 203 1083 l 97 1083 l 207 485 l 129 374 l 189 0 l 524 0 l 589 374 l 544 463 l 661 975 l 778 468 l 731 374 l 794 0 l 1131 0 l 1190 374 l 1115 479 z "},"Ŵ":{"ha":1243,"x_min":0,"x_max":0,"o":"m 526 1167 l 621 1258 l 715 1167 l 813 1167 l 665 1319 l 576 1319 l 429 1167 z m 847 -11 l 985 -11 l 1186 1083 l 1081 1083 l 911 113 l 689 1083 l 554 1083 l 332 113 l 163 1083 l 57 1083 l 258 -11 l 396 -11 l 621 975 z "},"Ẁ":{"ha":1243,"x_min":0,"x_max":0,"o":"m 485 1319 l 571 1167 l 671 1167 l 588 1319 z m 847 -11 l 985 -11 l 1186 1083 l 1081 1083 l 911 113 l 689 1083 l 554 1083 l 332 113 l 163 1083 l 57 1083 l 258 -11 l 396 -11 l 621 975 z "},"Ẃ":{"ha":1243,"x_min":0,"x_max":0,"o":"m 654 1319 l 571 1167 l 671 1167 l 757 1319 z m 847 -11 l 985 -11 l 1186 1083 l 1081 1083 l 911 113 l 689 1083 l 554 1083 l 332 113 l 163 1083 l 57 1083 l 258 -11 l 396 -11 l 621 975 z "},"Ẅ":{"ha":1243,"x_min":0,"x_max":0,"o":"m 567 1292 l 457 1292 l 457 1194 l 567 1194 z m 785 1292 l 675 1292 l 675 1194 l 785 1194 z m 847 -11 l 985 -11 l 1186 1083 l 1081 1083 l 911 113 l 689 1083 l 554 1083 l 332 113 l 163 1083 l 57 1083 l 258 -11 l 396 -11 l 621 975 z "},"X":{"ha":917,"x_min":0,"x_max":0,"o":"m 733 371 l 533 539 l 526 551 l 842 1083 l 724 1083 l 458 628 l 193 1083 l 76 1083 l 389 554 l 182 371 l 21 0 l 313 0 l 458 368 l 604 0 l 896 0 z "},"Y":{"ha":889,"x_min":0,"x_max":0,"o":"m 528 403 l 819 1083 l 710 1083 l 449 454 l 446 454 l 183 1083 l 75 1083 l 365 404 l 311 372 l 313 236 l 313 0 l 576 0 l 578 372 l 576 372 z "},"Ý":{"ha":801,"x_min":0,"x_max":0,"o":"m 435 1319 l 351 1167 l 451 1167 l 538 1319 z m 451 328 l 774 1083 l 664 1083 l 401 451 l 138 1083 l 29 1083 l 351 328 l 351 0 l 451 0 z "},"Ŷ":{"ha":801,"x_min":0,"x_max":0,"o":"m 307 1167 l 401 1258 l 496 1167 l 593 1167 l 446 1319 l 357 1319 l 210 1167 z m 451 328 l 774 1083 l 664 1083 l 401 451 l 138 1083 l 29 1083 l 351 328 l 351 0 l 451 0 z "},"Ÿ":{"ha":801,"x_min":0,"x_max":0,"o":"m 347 1292 l 238 1292 l 238 1194 l 347 1194 z m 565 1292 l 456 1292 l 456 1194 l 565 1194 z m 451 328 l 774 1083 l 664 1083 l 401 451 l 138 1083 l 29 1083 l 351 328 l 351 0 l 451 0 z "},"Ȳ":{"ha":801,"x_min":0,"x_max":0,"o":"m 244 1206 l 558 1206 l 558 1281 l 244 1281 z m 451 328 l 774 1083 l 664 1083 l 401 451 l 138 1083 l 29 1083 l 351 328 l 351 0 l 451 0 z "},"Ỳ":{"ha":801,"x_min":0,"x_max":0,"o":"m 265 1319 l 351 1167 l 451 1167 l 368 1319 z m 451 328 l 774 1083 l 664 1083 l 401 451 l 138 1083 l 29 1083 l 351 328 l 351 0 l 451 0 z "},"Z":{"ha":847,"x_min":0,"x_max":0,"o":"m 583 228 l 378 222 l 464 369 l 410 463 l 726 1014 l 726 1083 l 83 1083 l 83 993 l 428 993 l 603 997 l 304 476 l 167 369 l 56 181 l 56 0 l 792 0 l 792 228 z "},"Ź":{"ha":782,"x_min":0,"x_max":0,"o":"m 421 1319 l 338 1167 l 438 1167 l 524 1319 z m 56 69 l 56 0 l 726 0 l 726 90 l 354 90 l 179 86 l 713 1014 l 713 1083 l 69 1083 l 69 993 l 414 993 l 589 997 z "},"Ż":{"ha":782,"x_min":0,"x_max":0,"o":"m 443 1292 l 332 1292 l 332 1194 l 443 1194 z m 56 69 l 56 0 l 726 0 l 726 90 l 354 90 l 179 86 l 713 1014 l 713 1083 l 69 1083 l 69 993 l 414 993 l 589 997 z "},"Ž":{"ha":782,"x_min":0,"x_max":0,"o":"m 196 1319 l 343 1167 l 432 1167 l 579 1319 l 482 1319 l 388 1226 l 293 1319 z m 56 69 l 56 0 l 726 0 l 726 90 l 354 90 l 179 86 l 713 1014 l 713 1083 l 69 1083 l 69 993 l 414 993 l 589 997 z "},"Æ":{"ha":1163,"x_min":0,"x_max":0,"o":"m 429 1083 l 28 0 l 135 0 l 239 289 l 582 289 l 622 0 l 1107 0 l 1107 90 l 714 90 l 653 508 l 1038 508 l 1038 597 l 640 597 l 582 993 l 1107 993 l 1107 1083 z m 486 976 l 569 378 l 271 378 z "},"Ð":{"ha":971,"x_min":0,"x_max":0,"o":"m 25 513 l 186 513 l 186 0 l 472 0 b 892 514 736 0 892 139 l 892 569 b 472 1083 892 944 736 1083 l 186 1083 l 186 594 l 25 594 z m 286 993 l 464 993 b 789 569 672 993 789 878 l 789 514 b 464 90 789 206 672 90 l 286 90 l 286 513 l 582 513 l 582 594 l 286 594 z "},"Ø":{"ha":886,"x_min":0,"x_max":0,"o":"m 79 569 l 79 514 b 156 132 79 343 104 218 l 75 0 l 156 0 l 200 75 b 450 -15 261 13 344 -15 b 822 514 699 -15 822 139 l 822 569 b 739 960 822 746 794 875 l 814 1083 l 733 1083 l 692 1015 b 450 1099 632 1072 551 1099 b 79 569 203 1099 79 944 z m 182 514 l 182 569 b 446 1008 182 878 264 1008 l 456 1008 b 639 928 535 1008 596 983 l 218 236 b 182 514 193 304 182 396 z m 719 569 l 719 514 b 456 75 719 206 638 75 l 446 75 b 254 164 361 75 297 103 l 678 860 b 719 569 706 790 719 694 z "},"Þ":{"ha":796,"x_min":0,"x_max":0,"o":"m 203 1083 l 103 1083 l 103 0 l 203 0 l 203 219 l 403 219 b 735 528 557 219 735 278 l 735 556 b 403 864 735 806 557 864 l 203 864 z m 203 310 l 203 774 l 406 774 b 632 551 499 774 632 739 l 632 532 b 406 310 632 344 499 310 z "},"Đ":{"ha":971,"x_min":0,"x_max":0,"o":"m 25 513 l 186 513 l 186 0 l 472 0 b 892 514 736 0 892 139 l 892 569 b 472 1083 892 944 736 1083 l 186 1083 l 186 594 l 25 594 z m 286 993 l 464 993 b 789 569 672 993 789 878 l 789 514 b 464 90 789 206 672 90 l 286 90 l 286 513 l 582 513 l 582 594 l 286 594 z "},"Ħ":{"ha":888,"x_min":0,"x_max":0,"o":"m 685 1083 l 685 883 l 203 883 l 203 1083 l 103 1083 l 103 0 l 203 0 l 203 508 l 685 508 l 685 0 l 785 0 l 785 1083 z m 203 597 l 203 801 l 685 801 l 685 597 z "},"Ĳ":{"ha":693,"x_min":0,"x_max":0,"o":"m 210 1083 l 110 1083 l 110 0 l 210 0 z m 497 231 b 367 75 497 114 456 75 b 286 89 339 75 300 83 l 286 3 b 393 -15 297 -3 333 -15 b 597 218 511 -15 597 50 l 597 1083 l 497 1083 z "},"Ŀ":{"ha":682,"x_min":0,"x_max":0,"o":"m 661 0 l 661 90 l 203 90 l 203 1083 l 103 1083 l 103 0 z m 546 614 l 424 614 l 424 492 l 546 492 z "},"Ł":{"ha":765,"x_min":0,"x_max":0,"o":"m 25 368 l 186 451 l 186 0 l 744 0 l 744 90 l 286 90 l 286 503 l 588 660 l 588 751 l 286 596 l 286 1083 l 186 1083 l 186 544 l 25 461 z "},"Ŋ":{"ha":915,"x_min":0,"x_max":0,"o":"m 714 -61 b 574 -204 714 -178 665 -204 b 494 -193 542 -204 506 -197 l 494 -278 b 597 -293 504 -282 538 -293 b 813 -72 722 -293 813 -233 l 813 1083 l 718 1083 l 718 421 l 722 169 l 211 1083 l 103 1083 l 103 0 l 197 0 l 197 663 l 192 914 l 714 -19 z "},"Œ":{"ha":1306,"x_min":0,"x_max":0,"o":"m 79 569 l 79 514 b 497 0 79 139 233 0 l 1250 0 l 1250 90 l 746 90 l 746 508 l 1181 508 l 1181 597 l 746 597 l 746 993 l 1250 993 l 1250 1083 l 497 1083 b 79 569 233 1083 79 944 z m 646 993 l 646 90 l 506 90 b 182 514 299 90 182 206 l 182 569 b 506 993 182 878 299 993 z "},"Ŧ":{"ha":715,"x_min":0,"x_max":0,"o":"m 407 993 l 683 993 l 683 1083 l 32 1083 l 32 993 l 307 993 l 307 596 l 133 596 l 133 510 l 307 510 l 307 0 l 407 0 l 407 510 l 582 510 l 582 596 l 407 596 z "},"ẞ":{"ha":1051,"x_min":0,"x_max":0,"o":"m 425 611 l 425 542 l 639 515 b 899 296 808 493 899 424 l 899 283 b 685 75 899 149 813 75 l 675 75 b 456 353 549 75 456 150 l 356 353 l 356 339 b 679 -15 356 100 464 -15 b 1001 290 878 -15 1001 99 l 1001 304 b 669 601 1001 471 894 572 l 543 617 l 751 974 l 751 1043 b 494 1099 682 1082 593 1099 b 96 747 256 1099 96 1008 l 96 0 l 196 0 l 196 740 b 494 1008 196 946 319 1008 b 646 988 549 1008 601 1003 z "},"a":{"ha":778,"x_min":0,"x_max":0,"o":"m 717 208 l 717 381 l 635 490 b 368 751 632 646 567 751 b 103 506 151 751 103 617 l 103 493 l 196 493 b 367 669 196 589 228 669 b 538 478 497 669 538 604 l 538 458 l 315 424 b 89 285 219 408 125 376 l 36 247 b 35 222 35 239 35 231 l 35 208 b 264 -19 35 90 90 -19 b 486 69 361 -19 435 15 l 500 0 l 731 0 z m 461 226 b 361 186 440 207 404 186 b 289 246 308 186 289 217 l 289 247 l 222 314 b 324 353 249 332 282 346 l 499 381 l 461 333 z "},"à":{"ha":711,"x_min":0,"x_max":0,"o":"m 175 1083 l 306 853 l 406 853 l 281 1083 z m 550 0 l 631 0 l 622 208 l 622 478 b 356 751 622 640 560 751 b 90 506 139 751 90 617 l 90 493 l 183 493 b 354 669 183 589 215 669 b 525 478 485 669 525 604 l 525 458 l 303 424 b 63 200 183 406 63 360 l 63 186 b 275 -15 63 68 140 -15 b 535 103 403 -15 486 39 z m 300 69 b 160 194 201 69 160 129 l 160 207 b 311 353 160 290 217 336 l 525 388 l 525 186 b 300 69 499 143 436 69 z "},"á":{"ha":711,"x_min":0,"x_max":0,"o":"m 431 1083 l 306 853 l 406 853 l 536 1083 z m 550 0 l 631 0 l 622 208 l 622 478 b 356 751 622 640 560 751 b 90 506 139 751 90 617 l 90 493 l 183 493 b 354 669 183 589 215 669 b 525 478 485 669 525 604 l 525 458 l 303 424 b 63 200 183 406 63 360 l 63 186 b 275 -15 63 68 140 -15 b 535 103 403 -15 486 39 z m 300 69 b 160 194 201 69 160 129 l 160 207 b 311 353 160 290 217 336 l 525 388 l 525 186 b 300 69 499 143 436 69 z "},"â":{"ha":711,"x_min":0,"x_max":0,"o":"m 226 853 l 356 1010 l 485 853 l 581 853 l 399 1083 l 313 1083 l 131 853 z m 550 0 l 631 0 l 622 208 l 622 478 b 356 751 622 640 560 751 b 90 506 139 751 90 617 l 90 493 l 183 493 b 354 669 183 589 215 669 b 525 478 485 669 525 604 l 525 458 l 303 424 b 63 200 183 406 63 360 l 63 186 b 275 -15 63 68 140 -15 b 535 103 403 -15 486 39 z m 300 69 b 160 194 201 69 160 129 l 160 207 b 311 353 160 290 217 336 l 525 388 l 525 186 b 300 69 499 143 436 69 z "},"ã":{"ha":711,"x_min":0,"x_max":0,"o":"m 496 1036 b 446 976 496 990 474 976 b 251 1051 390 976 338 1051 b 139 908 185 1051 139 1007 l 215 908 b 265 968 215 954 238 968 b 460 893 321 968 374 893 b 572 1036 526 893 572 938 z m 550 0 l 631 0 l 622 208 l 622 478 b 356 751 622 640 560 751 b 90 506 139 751 90 617 l 90 493 l 183 493 b 354 669 183 589 215 669 b 525 478 485 669 525 604 l 525 458 l 303 424 b 63 200 183 406 63 360 l 63 186 b 275 -15 63 68 140 -15 b 535 103 403 -15 486 39 z m 300 69 b 160 194 201 69 160 129 l 160 207 b 311 353 160 290 217 336 l 525 388 l 525 186 b 300 69 499 143 436 69 z "},"ä":{"ha":711,"x_min":0,"x_max":0,"o":"m 300 1035 l 179 1035 l 179 913 l 300 913 z m 532 1035 l 411 1035 l 411 913 l 532 913 z m 550 0 l 631 0 l 622 208 l 622 478 b 356 751 622 640 560 751 b 90 506 139 751 90 617 l 90 493 l 183 493 b 354 669 183 589 215 669 b 525 478 485 669 525 604 l 525 458 l 303 424 b 63 200 183 406 63 360 l 63 186 b 275 -15 63 68 140 -15 b 535 103 403 -15 486 39 z m 300 69 b 160 194 201 69 160 129 l 160 207 b 311 353 160 290 217 336 l 525 388 l 525 186 b 300 69 499 143 436 69 z "},"å":{"ha":711,"x_min":0,"x_max":0,"o":"m 225 968 b 356 838 225 896 283 838 b 486 968 428 838 486 896 b 356 1099 486 1040 428 1099 b 225 968 283 1099 225 1040 z m 278 968 b 356 1046 278 1011 313 1046 b 433 968 399 1046 433 1011 b 356 890 433 925 399 890 b 278 968 313 890 278 925 z m 550 0 l 631 0 l 622 208 l 622 478 b 356 751 622 640 560 751 b 90 506 139 751 90 617 l 90 493 l 183 493 b 354 669 183 589 215 669 b 525 478 485 669 525 604 l 525 458 l 303 424 b 63 200 183 406 63 360 l 63 186 b 275 -15 63 68 140 -15 b 535 103 403 -15 486 39 z m 300 69 b 160 194 201 69 160 129 l 160 207 b 311 353 160 290 217 336 l 525 388 l 525 186 b 300 69 499 143 436 69 z "},"ā":{"ha":711,"x_min":0,"x_max":0,"o":"m 193 922 l 518 922 l 518 1014 l 193 1014 z m 550 0 l 631 0 l 622 208 l 622 478 b 356 751 622 640 560 751 b 90 506 139 751 90 617 l 90 493 l 183 493 b 354 669 183 589 215 669 b 525 478 485 669 525 604 l 525 458 l 303 424 b 63 200 183 406 63 360 l 63 186 b 275 -15 63 68 140 -15 b 535 103 403 -15 486 39 z m 300 69 b 160 194 201 69 160 129 l 160 207 b 311 353 160 290 217 336 l 525 388 l 525 186 b 300 69 499 143 436 69 z "},"ă":{"ha":711,"x_min":0,"x_max":0,"o":"m 356 838 b 579 1083 514 838 581 939 l 500 1083 b 356 919 500 985 458 919 b 211 1083 253 919 211 985 l 132 1083 b 356 838 131 939 197 838 z m 550 0 l 631 0 l 622 208 l 622 478 b 356 751 622 640 560 751 b 90 506 139 751 90 617 l 90 493 l 183 493 b 354 669 183 589 215 669 b 525 478 485 669 525 604 l 525 458 l 303 424 b 63 200 183 406 63 360 l 63 186 b 275 -15 63 68 140 -15 b 535 103 403 -15 486 39 z m 300 69 b 160 194 201 69 160 129 l 160 207 b 311 353 160 290 217 336 l 525 388 l 525 186 b 300 69 499 143 436 69 z "},"ą":{"ha":711,"x_min":0,"x_max":0,"o":"m 515 -143 b 631 0 515 -72 569 -26 l 622 208 l 622 478 b 356 751 622 640 560 751 b 90 506 139 751 90 617 l 90 493 l 183 493 b 354 669 183 589 215 669 b 525 478 485 669 525 604 l 525 458 l 303 424 b 63 200 183 406 63 360 l 63 186 b 275 -15 63 68 140 -15 b 535 103 403 -15 486 39 l 546 29 b 432 -157 482 -10 432 -72 b 583 -293 432 -253 493 -293 b 707 -265 628 -293 678 -283 l 681 -193 b 593 -212 660 -204 626 -212 b 515 -143 543 -212 515 -183 z m 300 69 b 160 194 201 69 160 129 l 160 207 b 311 353 160 290 217 336 l 525 388 l 525 186 b 300 69 499 143 436 69 z "},"b":{"ha":813,"x_min":0,"x_max":0,"o":"m 738 431 b 457 751 726 613 643 751 b 249 651 354 751 288 707 l 249 1111 l 151 1111 l 151 535 l 68 372 l 68 208 l 54 0 l 285 0 l 300 85 b 507 -19 342 24 407 -19 b 778 340 708 -19 778 125 l 778 372 z m 524 340 b 431 200 524 250 500 200 b 324 257 375 200 338 236 l 324 372 l 249 458 l 249 550 b 435 664 278 599 335 664 b 622 517 533 664 594 610 l 524 372 z "},"ḃ":{"ha":746,"x_min":0,"x_max":0,"o":"m 196 1292 l 85 1292 l 85 1194 l 196 1194 z m 189 1111 l 92 1111 l 92 208 l 83 0 l 164 0 l 178 100 b 397 -15 217 36 285 -15 b 679 351 599 -15 679 147 l 679 385 b 397 751 679 589 599 751 b 189 651 294 751 228 707 z m 189 550 b 375 664 218 599 275 664 b 579 385 514 664 579 556 l 579 351 b 375 72 579 181 514 72 b 189 186 275 72 218 138 z "},"c":{"ha":733,"x_min":0,"x_max":0,"o":"m 461 278 b 381 200 461 229 431 200 b 289 340 313 200 289 250 l 289 372 l 185 490 b 385 664 208 599 272 664 b 572 467 518 664 572 579 l 665 467 l 665 494 b 383 751 665 614 586 751 b 79 447 190 751 97 621 l 35 372 l 35 340 b 375 -19 35 125 138 -19 b 701 244 589 -19 701 83 l 701 278 z m 76 371 l 76 372 l 175 372 l 175 371 z "},"ç":{"ha":725,"x_min":0,"x_max":0,"o":"m 261 -265 b 389 -293 289 -283 338 -293 b 532 -185 474 -293 532 -262 b 393 -78 532 -107 461 -78 l 388 -78 l 411 -14 b 657 233 588 1 657 124 l 657 256 l 564 256 b 376 72 564 160 514 72 b 167 351 231 72 167 183 l 167 385 b 376 664 167 553 231 664 b 564 467 510 664 564 579 l 657 467 l 657 494 b 375 751 657 614 578 751 b 68 385 160 751 68 589 l 68 351 b 344 -14 68 157 151 0 l 307 -111 l 333 -143 b 374 -139 333 -143 353 -139 b 460 -182 426 -139 460 -150 b 379 -225 460 -215 433 -225 b 282 -204 343 -225 306 -217 z "},"ć":{"ha":725,"x_min":0,"x_max":0,"o":"m 450 1083 l 325 853 l 425 853 l 556 1083 z m 167 351 l 167 385 b 376 664 167 553 231 664 b 564 467 510 664 564 579 l 657 467 l 657 494 b 375 751 657 614 578 751 b 68 385 160 751 68 589 l 68 351 b 375 -15 68 147 160 -15 b 657 233 578 -15 657 117 l 657 256 l 564 256 b 376 72 564 160 514 72 b 167 351 231 72 167 183 z "},"ĉ":{"ha":725,"x_min":0,"x_max":0,"o":"m 246 853 l 375 1010 l 504 853 l 600 853 l 418 1083 l 332 1083 l 150 853 z m 167 351 l 167 385 b 376 664 167 553 231 664 b 564 467 510 664 564 579 l 657 467 l 657 494 b 375 751 657 614 578 751 b 68 385 160 751 68 589 l 68 351 b 375 -15 68 147 160 -15 b 657 233 578 -15 657 117 l 657 256 l 564 256 b 376 72 564 160 514 72 b 167 351 231 72 167 183 z "},"ċ":{"ha":725,"x_min":0,"x_max":0,"o":"m 436 1035 l 314 1035 l 314 913 l 436 913 z m 167 351 l 167 385 b 376 664 167 553 231 664 b 564 467 510 664 564 579 l 657 467 l 657 494 b 375 751 657 614 578 751 b 68 385 160 751 68 589 l 68 351 b 375 -15 68 147 160 -15 b 657 233 578 -15 657 117 l 657 256 l 564 256 b 376 72 564 160 514 72 b 167 351 231 72 167 183 z "},"č":{"ha":725,"x_min":0,"x_max":0,"o":"m 150 1083 l 332 853 l 418 853 l 600 1083 l 504 1083 l 375 925 l 246 1083 z m 167 351 l 167 385 b 376 664 167 553 231 664 b 564 467 510 664 564 579 l 657 467 l 657 494 b 375 751 657 614 578 751 b 68 385 160 751 68 589 l 68 351 b 375 -15 68 147 160 -15 b 657 233 578 -15 657 117 l 657 256 l 564 256 b 376 72 564 160 514 72 b 167 351 231 72 167 183 z "},"d":{"ha":826,"x_min":0,"x_max":0,"o":"m 757 208 l 757 374 l 754 374 l 704 444 l 704 1111 l 607 1111 l 607 651 b 399 751 567 707 501 751 b 128 507 240 751 156 650 l 49 374 l 47 374 l 47 340 b 318 -19 47 125 117 -19 b 524 85 418 -19 482 24 l 540 0 l 771 0 z m 394 200 b 301 340 325 200 301 250 l 301 374 l 300 374 l 221 464 b 419 664 239 589 304 664 b 607 550 519 664 576 599 l 607 513 l 500 372 l 501 372 l 501 257 b 394 200 488 236 450 200 z "},"ď":{"ha":750,"x_min":0,"x_max":0,"o":"m 353 751 b 71 385 151 751 71 589 l 71 351 b 353 -15 71 147 151 -15 b 571 99 464 -15 533 36 l 585 0 l 667 0 l 658 208 l 658 1111 l 561 1111 l 561 651 b 353 751 521 707 456 751 z m 761 1111 l 761 853 l 817 853 l 843 1111 z m 374 72 b 169 351 235 72 169 181 l 169 385 b 374 664 169 556 235 664 b 561 550 474 664 531 599 l 561 186 b 374 72 531 138 474 72 z "},"ḋ":{"ha":750,"x_min":0,"x_max":0,"o":"m 665 1292 l 554 1292 l 554 1194 l 665 1194 z m 353 751 b 71 385 151 751 71 589 l 71 351 b 353 -15 71 147 151 -15 b 571 99 464 -15 533 36 l 585 0 l 667 0 l 658 208 l 658 1111 l 561 1111 l 561 651 b 353 751 521 707 456 751 z m 561 550 l 561 186 b 374 72 531 138 474 72 b 169 351 235 72 169 181 l 169 385 b 374 664 169 556 235 664 b 561 550 474 664 531 599 z "},"e":{"ha":778,"x_min":0,"x_max":0,"o":"m 742 365 l 694 439 b 389 751 679 617 585 751 b 79 431 190 751 94 613 l 36 365 l 35 365 l 35 347 b 403 -19 35 132 151 -19 b 743 231 617 -19 743 83 l 743 236 l 503 236 b 404 172 503 201 460 172 b 290 278 340 172 299 194 l 743 278 l 743 365 z m 388 669 b 592 481 506 669 571 597 l 528 408 l 251 408 l 185 486 b 388 669 206 600 272 669 z "},"è":{"ha":756,"x_min":0,"x_max":0,"o":"m 199 1083 l 329 853 l 429 853 l 304 1083 z m 688 328 l 688 383 b 379 751 688 588 594 751 b 68 383 164 751 68 588 l 68 353 b 386 -15 68 149 164 -15 b 688 231 593 -15 688 117 l 688 236 l 594 236 b 386 67 594 157 533 67 b 167 328 239 67 171 167 z m 378 669 b 589 408 518 669 583 568 l 167 408 b 378 669 171 568 239 669 z "},"é":{"ha":756,"x_min":0,"x_max":0,"o":"m 454 1083 l 329 853 l 429 853 l 560 1083 z m 688 328 l 688 383 b 379 751 688 588 594 751 b 68 383 164 751 68 588 l 68 353 b 386 -15 68 149 164 -15 b 688 231 593 -15 688 117 l 688 236 l 594 236 b 386 67 594 157 533 67 b 167 328 239 67 171 167 z m 378 669 b 589 408 518 669 583 568 l 167 408 b 378 669 171 568 239 669 z "},"ê":{"ha":756,"x_min":0,"x_max":0,"o":"m 250 853 l 379 1010 l 508 853 l 604 853 l 422 1083 l 336 1083 l 154 853 z m 688 328 l 688 383 b 379 751 688 588 594 751 b 68 383 164 751 68 588 l 68 353 b 386 -15 68 149 164 -15 b 688 231 593 -15 688 117 l 688 236 l 594 236 b 386 67 594 157 533 67 b 167 328 239 67 171 167 z m 378 669 b 589 408 518 669 583 568 l 167 408 b 378 669 171 568 239 669 z "},"ë":{"ha":756,"x_min":0,"x_max":0,"o":"m 324 1035 l 203 1035 l 203 913 l 324 913 z m 556 1035 l 435 1035 l 435 913 l 556 913 z m 688 328 l 688 383 b 379 751 688 588 594 751 b 68 383 164 751 68 588 l 68 353 b 386 -15 68 149 164 -15 b 688 231 593 -15 688 117 l 688 236 l 594 236 b 386 67 594 157 533 67 b 167 328 239 67 171 167 z m 378 669 b 589 408 518 669 583 568 l 167 408 b 378 669 171 568 239 669 z "},"ē":{"ha":756,"x_min":0,"x_max":0,"o":"m 217 922 l 542 922 l 542 1014 l 217 1014 z m 688 328 l 688 383 b 379 751 688 588 594 751 b 68 383 164 751 68 588 l 68 353 b 386 -15 68 149 164 -15 b 688 231 593 -15 688 117 l 688 236 l 594 236 b 386 67 594 157 533 67 b 167 328 239 67 171 167 z m 378 669 b 589 408 518 669 583 568 l 167 408 b 378 669 171 568 239 669 z "},"ĕ":{"ha":756,"x_min":0,"x_max":0,"o":"m 379 838 b 603 1083 538 838 604 939 l 524 1083 b 379 919 524 985 482 919 b 235 1083 276 919 235 985 l 156 1083 b 379 838 154 939 221 838 z m 688 328 l 688 383 b 379 751 688 588 594 751 b 68 383 164 751 68 588 l 68 353 b 386 -15 68 149 164 -15 b 688 231 593 -15 688 117 l 688 236 l 594 236 b 386 67 594 157 533 67 b 167 328 239 67 171 167 z m 378 669 b 589 408 518 669 583 568 l 167 408 b 378 669 171 568 239 669 z "},"ė":{"ha":756,"x_min":0,"x_max":0,"o":"m 440 1035 l 318 1035 l 318 913 l 440 913 z m 688 328 l 688 383 b 379 751 688 588 594 751 b 68 383 164 751 68 588 l 68 353 b 386 -15 68 149 164 -15 b 688 231 593 -15 688 117 l 688 236 l 594 236 b 386 67 594 157 533 67 b 167 328 239 67 171 167 z m 378 669 b 589 408 518 669 583 568 l 167 408 b 378 669 171 568 239 669 z "},"ę":{"ha":756,"x_min":0,"x_max":0,"o":"m 688 328 l 688 383 b 379 751 688 588 594 751 b 68 383 164 751 68 588 l 68 353 b 360 -14 68 157 156 -1 b 300 -157 324 -51 300 -99 b 451 -293 300 -253 361 -293 b 575 -265 496 -293 546 -283 l 549 -193 b 461 -212 528 -204 494 -212 b 383 -143 411 -212 383 -183 b 497 0 383 -72 439 -17 b 688 231 629 38 688 139 l 688 236 l 594 236 b 386 67 594 157 533 67 b 167 328 239 67 171 167 z m 378 669 b 589 408 518 669 583 568 l 167 408 b 378 669 171 568 239 669 z "},"ě":{"ha":756,"x_min":0,"x_max":0,"o":"m 154 1083 l 336 853 l 422 853 l 604 1083 l 508 1083 l 379 925 l 250 1083 z m 688 328 l 688 383 b 379 751 688 588 594 751 b 68 383 164 751 68 588 l 68 353 b 386 -15 68 149 164 -15 b 688 231 593 -15 688 117 l 688 236 l 594 236 b 386 67 594 157 533 67 b 167 328 239 67 171 167 z m 378 669 b 589 408 518 669 583 568 l 167 408 b 378 669 171 568 239 669 z "},"f":{"ha":583,"x_min":0,"x_max":0,"o":"m 446 1039 b 525 1026 476 1039 514 1032 l 525 1111 b 422 1126 514 1115 481 1126 b 207 907 297 1126 207 1067 l 207 736 l 90 736 l 90 649 l 207 649 l 207 476 l 132 376 l 132 0 l 388 0 l 388 376 l 304 485 l 304 649 l 511 649 l 511 736 l 304 736 l 304 894 b 446 1039 304 1011 353 1039 z "},"ḟ":{"ha":514,"x_min":0,"x_max":0,"o":"m 390 1292 l 279 1292 l 279 1194 l 390 1194 z m 257 894 b 399 1039 257 1011 306 1039 b 478 1026 429 1039 467 1032 l 478 1111 b 375 1126 467 1115 433 1126 b 160 907 250 1126 160 1067 l 160 736 l 43 736 l 43 649 l 160 649 l 160 0 l 257 0 l 257 649 l 464 649 l 464 736 l 257 736 z "},"g":{"ha":813,"x_min":0,"x_max":0,"o":"m 678 508 l 678 528 l 686 736 l 606 736 l 592 638 b 372 751 553 700 485 751 b 92 443 185 751 100 613 l 35 368 b 306 22 35 153 111 22 b 489 92 388 22 447 49 l 489 21 b 383 -92 489 -69 451 -92 b 289 0 306 -92 289 -49 l 49 0 l 49 -33 b 389 -297 49 -181 133 -297 b 744 21 626 -297 744 -194 l 744 371 z m 489 299 b 382 242 475 278 438 242 b 289 368 319 242 289 278 l 289 371 l 197 493 b 393 664 218 597 282 664 b 581 550 494 664 550 599 l 581 469 l 489 371 z "},"ĝ":{"ha":746,"x_min":0,"x_max":0,"o":"m 239 853 l 368 1010 l 497 853 l 593 853 l 411 1083 l 325 1083 l 143 853 z m 558 -1 b 365 -208 558 -136 507 -208 b 175 0 228 -208 175 -139 l 82 0 l 82 -18 b 367 -293 82 -169 154 -293 b 656 -7 576 -293 656 -172 l 656 528 l 664 736 l 583 736 l 569 638 b 350 751 531 700 463 751 b 68 410 150 751 68 594 l 68 379 b 350 38 68 192 150 38 b 558 135 453 38 518 79 z m 558 550 l 558 238 b 371 125 528 190 472 125 b 167 379 233 125 167 225 l 167 410 b 371 664 167 561 233 664 b 558 550 472 664 528 599 z "},"ğ":{"ha":746,"x_min":0,"x_max":0,"o":"m 368 838 b 592 1083 526 838 593 939 l 513 1083 b 368 919 513 985 471 919 b 224 1083 265 919 224 985 l 144 1083 b 368 838 143 939 210 838 z m 558 -1 b 365 -208 558 -136 507 -208 b 175 0 228 -208 175 -139 l 82 0 l 82 -18 b 367 -293 82 -169 154 -293 b 656 -7 576 -293 656 -172 l 656 528 l 664 736 l 583 736 l 569 638 b 350 751 531 700 463 751 b 68 410 150 751 68 594 l 68 379 b 350 38 68 192 150 38 b 558 135 453 38 518 79 z m 558 550 l 558 238 b 371 125 528 190 472 125 b 167 379 233 125 167 225 l 167 410 b 371 664 167 561 233 664 b 558 550 472 664 528 599 z "},"ġ":{"ha":746,"x_min":0,"x_max":0,"o":"m 428 1035 l 306 1035 l 306 913 l 428 913 z m 558 -1 b 365 -208 558 -136 507 -208 b 175 0 228 -208 175 -139 l 82 0 l 82 -18 b 367 -293 82 -169 154 -293 b 656 -7 576 -293 656 -172 l 656 528 l 664 736 l 583 736 l 569 638 b 350 751 531 700 463 751 b 68 410 150 751 68 594 l 68 379 b 350 38 68 192 150 38 b 558 135 453 38 518 79 z m 558 550 l 558 238 b 371 125 528 190 472 125 b 167 379 233 125 167 225 l 167 410 b 371 664 167 561 233 664 b 558 550 472 664 528 599 z "},"ģ":{"ha":746,"x_min":0,"x_max":0,"o":"m 311 853 l 424 853 l 424 950 l 361 950 b 456 1049 367 1025 399 1049 l 456 1099 b 311 925 358 1099 311 1043 z m 558 -1 b 365 -208 558 -136 507 -208 b 175 0 228 -208 175 -139 l 82 0 l 82 -18 b 367 -293 82 -169 154 -293 b 656 -7 576 -293 656 -172 l 656 528 l 664 736 l 583 736 l 569 638 b 350 751 531 700 463 751 b 68 410 150 751 68 594 l 68 379 b 350 38 68 192 150 38 b 558 135 453 38 518 79 z m 558 550 l 558 238 b 371 125 528 190 472 125 b 167 379 233 125 167 225 l 167 410 b 371 664 167 561 233 664 b 558 550 472 664 528 599 z "},"h":{"ha":826,"x_min":0,"x_max":0,"o":"m 697 457 l 697 515 b 474 751 697 653 619 751 b 238 647 357 751 282 706 l 238 1111 l 140 1111 l 140 475 l 69 372 l 69 0 l 325 0 l 325 372 l 238 481 l 238 550 b 440 664 268 599 325 664 b 600 503 538 664 600 613 l 510 372 l 510 0 l 765 0 l 765 372 z "},"ĥ":{"ha":733,"x_min":0,"x_max":0,"o":"m 46 1167 l 140 1258 l 235 1167 l 332 1167 l 185 1319 l 96 1319 l -51 1167 z m 189 1111 l 92 1111 l 92 0 l 189 0 l 189 550 b 392 664 219 599 276 664 b 551 501 489 664 551 613 l 551 0 l 649 0 l 649 515 b 425 751 649 653 571 751 b 189 647 308 751 233 706 z "},"i":{"ha":389,"x_min":0,"x_max":0,"o":"m 264 1035 l 139 1035 l 139 910 l 264 910 z m 317 371 l 236 475 l 236 736 l 139 736 l 139 472 l 63 371 l 64 371 l 64 0 l 319 0 l 319 371 z "},"ì":{"ha":301,"x_min":0,"x_max":0,"o":"m -31 1083 l 100 853 l 200 853 l 75 1083 z m 101 0 l 199 0 l 199 736 l 101 736 z "},"í":{"ha":301,"x_min":0,"x_max":0,"o":"m 225 1083 l 100 853 l 200 853 l 331 1083 z m 101 0 l 199 0 l 199 736 l 101 736 z "},"î":{"ha":301,"x_min":0,"x_max":0,"o":"m 21 853 l 150 1010 l 279 853 l 375 853 l 193 1083 l 107 1083 l -75 853 z m 101 0 l 199 0 l 199 736 l 101 736 z "},"ï":{"ha":301,"x_min":0,"x_max":0,"o":"m 94 1035 l -26 1035 l -26 913 l 94 913 z m 326 1035 l 206 1035 l 206 913 l 326 913 z m 101 0 l 199 0 l 199 736 l 101 736 z "},"ĩ":{"ha":301,"x_min":0,"x_max":0,"o":"m 290 1036 b 240 976 290 990 268 976 b 46 1051 185 976 132 1051 b -67 908 -21 1051 -67 1007 l 10 908 b 60 968 10 954 32 968 b 254 893 115 968 168 893 b 367 1036 321 893 367 938 z m 101 0 l 199 0 l 199 736 l 101 736 z "},"ī":{"ha":301,"x_min":0,"x_max":0,"o":"m -12 922 l 313 922 l 313 1014 l -12 1014 z m 101 0 l 199 0 l 199 736 l 101 736 z "},"ĭ":{"ha":301,"x_min":0,"x_max":0,"o":"m 150 838 b 374 1083 308 838 375 939 l 294 1083 b 150 919 294 985 253 919 b 6 1083 47 919 6 985 l -74 1083 b 150 838 -75 939 -8 838 z m 101 0 l 199 0 l 199 736 l 101 736 z "},"į":{"ha":301,"x_min":0,"x_max":0,"o":"m 213 1035 l 88 1035 l 88 910 l 213 910 z m 83 -143 b 199 0 83 -72 138 -26 l 199 736 l 101 736 l 101 21 b 0 -157 44 -18 0 -78 b 151 -293 0 -253 61 -293 b 275 -265 196 -293 246 -283 l 249 -193 b 161 -212 228 -204 194 -212 b 83 -143 111 -212 83 -183 z "},"j":{"ha":389,"x_min":0,"x_max":0,"o":"m 238 1035 l 113 1035 l 113 910 l 238 910 z m 224 389 l 224 736 l 126 736 l 126 397 l 46 288 l 46 21 b -53 -78 46 -62 6 -78 b -117 -69 -75 -78 -110 -72 l -117 -278 b 7 -297 -104 -285 -62 -297 b 301 -7 183 -297 301 -222 l 301 288 z "},"ĵ":{"ha":301,"x_min":0,"x_max":0,"o":"m 21 853 l 150 1010 l 279 853 l 375 853 l 193 1083 l 107 1083 l -75 853 z m 101 -61 b -40 -206 101 -178 53 -206 b -119 -193 -71 -206 -107 -199 l -119 -278 b -17 -293 -108 -282 -75 -293 b 199 -74 108 -293 199 -233 l 199 736 l 101 736 z "},"k":{"ha":806,"x_min":0,"x_max":0,"o":"m 589 369 l 439 479 l 672 736 l 551 736 l 272 426 l 201 503 l 201 1111 l 104 1111 l 104 549 l 63 369 l 63 0 l 318 0 l 318 196 l 367 253 l 486 0 l 785 0 z "},"ķ":{"ha":696,"x_min":0,"x_max":0,"o":"m 90 0 l 188 0 l 188 217 l 339 383 l 547 0 l 658 0 l 406 457 l 658 736 l 538 736 l 188 347 l 188 1111 l 90 1111 z m 410 -78 l 296 -78 l 296 -172 l 357 -172 b 264 -247 349 -226 314 -247 l 264 -297 b 410 -147 356 -297 410 -243 z "},"l":{"ha":389,"x_min":0,"x_max":0,"o":"m 321 372 l 240 479 l 240 1111 l 143 1111 l 143 478 l 67 372 l 67 0 l 322 0 l 322 372 z "},"ĺ":{"ha":301,"x_min":0,"x_max":0,"o":"m 183 1319 l 100 1167 l 200 1167 l 286 1319 z m 101 0 l 199 0 l 199 1111 l 101 1111 z "},"ļ":{"ha":301,"x_min":0,"x_max":0,"o":"m 101 0 l 199 0 l 199 1111 l 101 1111 z m 207 -78 l 93 -78 l 93 -172 l 154 -172 b 61 -247 146 -226 111 -247 l 61 -297 b 207 -147 153 -297 207 -243 z "},"ľ":{"ha":301,"x_min":0,"x_max":0,"o":"m 101 0 l 199 0 l 199 1111 l 101 1111 z m 301 1111 l 301 853 l 357 853 l 383 1111 z "},"m":{"ha":1222,"x_min":0,"x_max":0,"o":"m 1081 472 l 1081 533 b 875 751 1081 672 1007 751 b 643 629 756 751 682 696 b 453 751 615 708 550 751 b 225 636 338 751 265 699 l 211 736 l 131 736 l 139 528 l 139 482 l 69 375 l 69 0 l 325 0 l 325 375 l 236 475 l 236 553 b 419 664 267 600 317 664 b 561 519 503 664 561 632 l 561 481 l 488 375 l 488 0 l 743 0 l 743 375 l 658 476 l 658 553 b 842 664 689 600 739 664 b 983 519 925 664 983 632 l 983 486 l 906 375 l 906 0 l 1161 0 l 1161 375 z "},"ṁ":{"ha":1118,"x_min":0,"x_max":0,"o":"m 624 1035 l 501 1035 l 501 913 l 624 913 z m 1033 0 l 1033 533 b 828 751 1033 672 960 751 b 596 629 708 751 635 696 b 406 751 568 708 503 751 b 178 636 290 751 218 699 l 164 736 l 83 736 l 92 528 l 92 0 l 189 0 l 189 553 b 372 664 219 600 269 664 b 514 519 456 664 514 632 l 514 0 l 611 0 l 611 553 b 794 664 642 600 692 664 b 936 519 878 664 936 632 l 936 0 z "},"n":{"ha":826,"x_min":0,"x_max":0,"o":"m 763 372 l 690 460 l 690 515 b 467 751 690 653 613 751 b 219 632 340 751 263 697 l 206 736 l 125 736 l 133 528 l 133 483 l 67 372 l 68 372 l 68 0 l 324 0 l 324 372 l 321 372 l 231 475 l 231 550 b 433 664 261 599 318 664 b 593 501 531 664 593 613 l 593 479 l 508 372 l 508 0 l 764 0 l 764 372 z "},"ñ":{"ha":733,"x_min":0,"x_max":0,"o":"m 511 1036 b 461 976 511 990 489 976 b 267 1051 406 976 353 1051 b 154 908 200 1051 154 1007 l 231 908 b 281 968 231 954 253 968 b 475 893 336 968 389 893 b 588 1036 542 893 588 938 z m 649 0 l 649 515 b 425 751 649 653 571 751 b 178 632 299 751 221 697 l 164 736 l 83 736 l 92 528 l 92 0 l 189 0 l 189 550 b 392 664 219 599 276 664 b 551 501 489 664 551 613 l 551 0 z "},"ń":{"ha":733,"x_min":0,"x_max":0,"o":"m 446 1083 l 321 853 l 421 853 l 551 1083 z m 649 0 l 649 515 b 425 751 649 653 571 751 b 178 632 299 751 221 697 l 164 736 l 83 736 l 92 528 l 92 0 l 189 0 l 189 550 b 392 664 219 599 276 664 b 551 501 489 664 551 613 l 551 0 z "},"ņ":{"ha":733,"x_min":0,"x_max":0,"o":"m 649 0 l 649 515 b 425 751 649 653 571 751 b 178 632 299 751 221 697 l 164 736 l 83 736 l 92 528 l 92 0 l 189 0 l 189 550 b 392 664 219 599 276 664 b 551 501 489 664 551 613 l 551 0 z m 428 -78 l 314 -78 l 314 -172 l 375 -172 b 282 -247 367 -226 332 -247 l 282 -297 b 428 -147 374 -297 428 -243 z "},"ň":{"ha":733,"x_min":0,"x_max":0,"o":"m 146 1083 l 328 853 l 414 853 l 596 1083 l 500 1083 l 371 925 l 242 1083 z m 649 0 l 649 515 b 425 751 649 653 571 751 b 178 632 299 751 221 697 l 164 736 l 83 736 l 92 528 l 92 0 l 189 0 l 189 550 b 392 664 219 599 276 664 b 551 501 489 664 551 613 l 551 0 z "},"o":{"ha":778,"x_min":0,"x_max":0,"o":"m 689 476 b 386 751 664 636 569 751 b 79 444 192 751 96 619 l 35 372 l 35 340 b 389 -19 35 125 146 -19 b 743 340 632 -19 743 125 l 743 372 z m 489 340 b 389 200 489 250 458 200 b 289 340 319 200 289 250 l 289 372 l 181 467 b 386 664 200 588 265 664 b 592 467 507 664 572 588 l 489 372 z "},"ò":{"ha":756,"x_min":0,"x_max":0,"o":"m 197 1083 l 328 853 l 428 853 l 303 1083 z m 378 -15 b 688 351 594 -15 688 147 l 688 385 b 378 751 688 589 594 751 b 68 385 161 751 68 589 l 68 351 b 378 -15 68 147 161 -15 z m 378 72 b 167 351 232 72 167 183 l 167 385 b 378 664 167 553 232 664 b 589 385 524 664 589 553 l 589 351 b 378 72 589 183 524 72 z "},"ó":{"ha":756,"x_min":0,"x_max":0,"o":"m 453 1083 l 328 853 l 428 853 l 558 1083 z m 378 -15 b 688 351 594 -15 688 147 l 688 385 b 378 751 688 589 594 751 b 68 385 161 751 68 589 l 68 351 b 378 -15 68 147 161 -15 z m 378 72 b 167 351 232 72 167 183 l 167 385 b 378 664 167 553 232 664 b 589 385 524 664 589 553 l 589 351 b 378 72 589 183 524 72 z "},"ô":{"ha":756,"x_min":0,"x_max":0,"o":"m 249 853 l 378 1010 l 507 853 l 603 853 l 421 1083 l 335 1083 l 153 853 z m 378 -15 b 688 351 594 -15 688 147 l 688 385 b 378 751 688 589 594 751 b 68 385 161 751 68 589 l 68 351 b 378 -15 68 147 161 -15 z m 378 72 b 167 351 232 72 167 183 l 167 385 b 378 664 167 553 232 664 b 589 385 524 664 589 553 l 589 351 b 378 72 589 183 524 72 z "},"õ":{"ha":756,"x_min":0,"x_max":0,"o":"m 518 1036 b 468 976 518 990 496 976 b 274 1051 413 976 360 1051 b 161 908 207 1051 161 1007 l 238 908 b 288 968 238 954 260 968 b 482 893 343 968 396 893 b 594 1036 549 893 594 938 z m 378 -15 b 688 351 594 -15 688 147 l 688 385 b 378 751 688 589 594 751 b 68 385 161 751 68 589 l 68 351 b 378 -15 68 147 161 -15 z m 378 72 b 167 351 232 72 167 183 l 167 385 b 378 664 167 553 232 664 b 589 385 524 664 589 553 l 589 351 b 378 72 589 183 524 72 z "},"ö":{"ha":756,"x_min":0,"x_max":0,"o":"m 322 1035 l 201 1035 l 201 913 l 322 913 z m 554 1035 l 433 1035 l 433 913 l 554 913 z m 378 -15 b 688 351 594 -15 688 147 l 688 385 b 378 751 688 589 594 751 b 68 385 161 751 68 589 l 68 351 b 378 -15 68 147 161 -15 z m 378 72 b 167 351 232 72 167 183 l 167 385 b 378 664 167 553 232 664 b 589 385 524 664 589 553 l 589 351 b 378 72 589 183 524 72 z "},"ō":{"ha":756,"x_min":0,"x_max":0,"o":"m 215 922 l 540 922 l 540 1014 l 215 1014 z m 378 -15 b 688 351 594 -15 688 147 l 688 385 b 378 751 688 589 594 751 b 68 385 161 751 68 589 l 68 351 b 378 -15 68 147 161 -15 z m 378 72 b 167 351 232 72 167 183 l 167 385 b 378 664 167 553 232 664 b 589 385 524 664 589 553 l 589 351 b 378 72 589 183 524 72 z "},"ŏ":{"ha":756,"x_min":0,"x_max":0,"o":"m 378 838 b 601 1083 536 838 603 939 l 522 1083 b 378 919 522 985 481 919 b 233 1083 275 919 233 985 l 154 1083 b 378 838 153 939 219 838 z m 378 -15 b 688 351 594 -15 688 147 l 688 385 b 378 751 688 589 594 751 b 68 385 161 751 68 589 l 68 351 b 378 -15 68 147 161 -15 z m 378 72 b 167 351 232 72 167 183 l 167 385 b 378 664 167 553 232 664 b 589 385 524 664 589 553 l 589 351 b 378 72 589 183 524 72 z "},"ő":{"ha":756,"x_min":0,"x_max":0,"o":"m 365 1083 l 249 853 l 336 853 l 458 1083 z m 544 1083 l 419 853 l 507 853 l 639 1083 z m 378 -15 b 688 351 594 -15 688 147 l 688 385 b 378 751 688 589 594 751 b 68 385 161 751 68 589 l 68 351 b 378 -15 68 147 161 -15 z m 378 72 b 167 351 232 72 167 183 l 167 385 b 378 664 167 553 232 664 b 589 385 524 664 589 553 l 589 351 b 378 72 589 183 524 72 z "},"p":{"ha":813,"x_min":0,"x_max":0,"o":"m 776 374 l 707 458 b 429 751 689 626 606 751 b 210 636 317 751 249 699 l 196 736 l 115 736 l 124 528 l 124 465 l 69 374 l 68 374 l 68 -278 l 324 -278 l 324 56 b 507 -19 365 10 424 -19 b 778 340 708 -19 778 125 l 778 374 z m 524 340 b 431 200 524 250 500 200 b 324 257 375 200 338 236 l 324 374 l 322 374 l 221 488 l 221 550 b 407 664 250 599 307 664 b 604 474 519 664 585 592 l 525 374 l 524 374 z "},"ṗ":{"ha":746,"x_min":0,"x_max":0,"o":"m 440 1035 l 318 1035 l 318 913 l 440 913 z m 397 -15 b 679 351 599 -15 679 147 l 679 385 b 397 751 679 589 599 751 b 178 636 285 751 217 699 l 164 736 l 83 736 l 92 528 l 92 -278 l 189 -278 l 189 83 b 397 -15 228 28 294 -15 z m 189 550 b 375 664 218 599 275 664 b 579 385 514 664 579 556 l 579 351 b 375 72 579 181 514 72 b 189 186 275 72 218 138 z "},"q":{"ha":824,"x_min":0,"x_max":0,"o":"m 696 481 l 696 528 l 706 736 l 624 736 l 610 635 b 390 751 571 699 503 751 b 114 474 219 751 136 635 l 39 375 l 39 340 b 310 -19 39 125 108 -19 b 493 56 392 -19 451 10 l 493 -278 l 749 -278 l 749 375 z m 493 257 b 386 200 479 236 442 200 b 293 340 317 200 293 250 l 293 375 l 217 482 b 413 664 238 596 301 664 b 600 550 513 664 569 599 l 600 471 l 493 375 z "},"r":{"ha":556,"x_min":0,"x_max":0,"o":"m 439 751 b 233 639 340 751 272 700 l 219 736 l 139 736 l 147 528 l 147 474 l 69 372 l 69 0 l 325 0 l 325 372 l 244 475 l 244 546 b 440 657 275 594 329 657 l 460 657 l 460 750 b 439 751 458 750 449 751 z "},"ŕ":{"ha":463,"x_min":0,"x_max":0,"o":"m 322 1083 l 197 853 l 297 853 l 428 1083 z m 383 751 b 178 639 285 751 217 700 l 164 736 l 83 736 l 92 528 l 92 0 l 189 0 l 189 546 b 385 657 219 594 274 657 l 404 657 l 404 750 b 383 751 403 750 393 751 z "},"ŗ":{"ha":463,"x_min":0,"x_max":0,"o":"m 383 751 b 178 639 285 751 217 700 l 164 736 l 83 736 l 92 528 l 92 0 l 189 0 l 189 546 b 385 657 219 594 274 657 l 404 657 l 404 750 b 383 751 403 750 393 751 z m 197 -78 l 83 -78 l 83 -172 l 144 -172 b 51 -247 136 -226 101 -247 l 51 -297 b 197 -147 143 -297 197 -243 z "},"ř":{"ha":463,"x_min":0,"x_max":0,"o":"m 22 1083 l 204 853 l 290 853 l 472 1083 l 376 1083 l 247 925 l 118 1083 z m 383 751 b 178 639 285 751 217 700 l 164 736 l 83 736 l 92 528 l 92 0 l 189 0 l 189 546 b 385 657 219 594 274 657 l 404 657 l 404 750 b 383 751 403 750 393 751 z "},"s":{"ha":736,"x_min":0,"x_max":0,"o":"m 369 461 l 279 429 b 190 542 208 450 190 488 b 367 669 190 624 256 669 b 546 499 504 669 546 604 l 642 499 l 642 504 b 367 751 642 649 568 751 b 93 542 194 751 93 669 l 93 533 b 244 354 93 446 129 385 l 347 282 l 349 282 b 432 226 418 276 432 257 b 358 172 432 197 414 172 b 283 236 306 172 283 196 l 29 236 l 29 229 b 358 -19 29 76 142 -19 b 688 238 579 -19 688 76 l 688 251 b 369 461 688 413 554 446 z "},"ś":{"ha":725,"x_min":0,"x_max":0,"o":"m 438 1083 l 313 853 l 413 853 l 543 1083 z m 363 67 b 176 225 217 67 176 144 l 79 225 l 79 219 b 363 -15 79 107 154 -15 b 646 201 544 -15 646 74 l 646 208 b 382 411 646 343 567 396 b 186 542 222 424 186 465 b 363 669 186 624 251 669 b 542 499 500 669 542 604 l 638 499 l 638 504 b 363 751 638 649 564 751 b 89 542 190 751 89 669 l 89 533 b 344 338 89 424 146 354 b 546 201 488 325 546 301 b 363 67 546 119 482 67 z "},"ŝ":{"ha":725,"x_min":0,"x_max":0,"o":"m 233 853 l 363 1010 l 492 853 l 588 853 l 406 1083 l 319 1083 l 138 853 z m 363 67 b 176 225 217 67 176 144 l 79 225 l 79 219 b 363 -15 79 107 154 -15 b 646 201 544 -15 646 74 l 646 208 b 382 411 646 343 567 396 b 186 542 222 424 186 465 b 363 669 186 624 251 669 b 542 499 500 669 542 604 l 638 499 l 638 504 b 363 751 638 649 564 751 b 89 542 190 751 89 669 l 89 533 b 344 338 89 424 146 354 b 546 201 488 325 546 301 b 363 67 546 119 482 67 z "},"ş":{"ha":725,"x_min":0,"x_max":0,"o":"m 240 -265 b 368 -293 268 -283 317 -293 b 511 -185 453 -293 511 -262 b 372 -78 511 -107 440 -78 l 367 -78 l 390 -14 b 646 201 554 -6 646 81 l 646 208 b 382 411 646 343 567 396 b 186 542 222 424 186 465 b 363 669 186 624 251 669 b 542 499 500 669 542 604 l 638 499 l 638 504 b 363 751 638 649 564 751 b 89 542 190 751 89 669 l 89 533 b 344 338 89 424 146 354 b 546 201 488 325 546 301 b 363 67 546 119 482 67 b 176 225 217 67 176 144 l 79 225 l 79 219 b 324 -14 79 114 144 0 l 286 -111 l 313 -143 b 353 -139 313 -143 332 -139 b 439 -182 406 -139 439 -150 b 358 -225 439 -215 413 -225 b 261 -204 322 -225 285 -217 z "},"š":{"ha":725,"x_min":0,"x_max":0,"o":"m 138 1083 l 319 853 l 406 853 l 588 1083 l 492 1083 l 363 925 l 233 1083 z m 363 67 b 176 225 217 67 176 144 l 79 225 l 79 219 b 363 -15 79 107 154 -15 b 646 201 544 -15 646 74 l 646 208 b 382 411 646 343 567 396 b 186 542 222 424 186 465 b 363 669 186 624 251 669 b 542 499 500 669 542 604 l 638 499 l 638 504 b 363 751 638 649 564 751 b 89 542 190 751 89 669 l 89 533 b 344 338 89 424 146 354 b 546 201 488 325 546 301 b 363 67 546 119 482 67 z "},"ș":{"ha":725,"x_min":0,"x_max":0,"o":"m 363 67 b 176 225 217 67 176 144 l 79 225 l 79 219 b 363 -15 79 107 154 -15 b 646 201 544 -15 646 74 l 646 208 b 382 411 646 343 567 396 b 186 542 222 424 186 465 b 363 669 186 624 251 669 b 542 499 500 669 542 604 l 638 499 l 638 504 b 363 751 638 649 564 751 b 89 542 190 751 89 669 l 89 533 b 344 338 89 424 146 354 b 546 201 488 325 546 301 b 363 67 546 119 482 67 z m 419 -78 l 306 -78 l 306 -172 l 367 -172 b 274 -247 358 -226 324 -247 l 274 -297 b 419 -147 365 -297 419 -243 z "},"t":{"ha":611,"x_min":0,"x_max":0,"o":"m 486 200 b 388 299 428 200 388 215 l 388 371 l 308 478 l 308 649 l 543 649 l 543 736 l 308 736 l 308 944 l 211 944 l 211 736 l 94 736 l 94 649 l 211 649 l 211 479 l 132 371 l 132 271 b 426 -19 132 56 250 -19 b 550 0 496 -19 538 -7 l 550 208 b 486 200 543 206 508 200 z "},"ţ":{"ha":556,"x_min":0,"x_max":0,"o":"m 257 736 l 257 944 l 160 944 l 160 736 l 43 736 l 43 649 l 160 649 l 160 204 b 375 -15 160 44 250 -15 b 478 0 433 -15 467 -4 l 478 85 b 399 72 467 79 429 72 b 257 217 306 72 257 100 l 257 649 l 492 649 l 492 736 z m 379 -78 l 265 -78 l 265 -172 l 326 -172 b 233 -247 318 -226 283 -247 l 233 -297 b 379 -147 325 -297 379 -243 z "},"ť":{"ha":556,"x_min":0,"x_max":0,"o":"m 360 1111 l 360 853 l 415 853 l 442 1111 z m 257 736 l 257 944 l 160 944 l 160 736 l 43 736 l 43 649 l 160 649 l 160 204 b 375 -15 160 44 250 -15 b 478 0 433 -15 467 -4 l 478 85 b 399 72 467 79 429 72 b 257 217 306 72 257 100 l 257 649 l 492 649 l 492 736 z "},"ṫ":{"ha":556,"x_min":0,"x_max":0,"o":"m 264 1125 l 153 1125 l 153 1028 l 264 1028 z m 257 736 l 257 944 l 160 944 l 160 736 l 43 736 l 43 649 l 160 649 l 160 204 b 375 -15 160 44 250 -15 b 478 0 433 -15 467 -4 l 478 85 b 399 72 467 79 429 72 b 257 217 306 72 257 100 l 257 649 l 492 649 l 492 736 z "},"u":{"ha":826,"x_min":0,"x_max":0,"o":"m 757 208 l 757 372 l 688 469 l 688 736 l 590 736 l 590 489 l 501 372 l 501 257 b 394 200 488 236 450 200 b 317 285 325 200 317 250 l 317 372 l 315 372 l 226 474 l 226 736 l 131 736 l 131 489 l 61 372 l 61 243 b 290 -19 61 111 117 -19 b 522 90 400 -19 475 25 l 540 0 l 771 0 z "},"ù":{"ha":733,"x_min":0,"x_max":0,"o":"m 182 1083 l 313 853 l 413 853 l 288 1083 z m 85 736 l 85 221 b 308 -15 85 83 161 -15 b 554 103 433 -15 513 38 l 569 0 l 650 0 l 642 208 l 642 736 l 544 736 l 544 186 b 340 72 514 138 457 72 b 181 235 243 72 181 124 l 181 736 z "},"ú":{"ha":733,"x_min":0,"x_max":0,"o":"m 438 1083 l 313 853 l 413 853 l 543 1083 z m 85 736 l 85 221 b 308 -15 85 83 161 -15 b 554 103 433 -15 513 38 l 569 0 l 650 0 l 642 208 l 642 736 l 544 736 l 544 186 b 340 72 514 138 457 72 b 181 235 243 72 181 124 l 181 736 z "},"û":{"ha":733,"x_min":0,"x_max":0,"o":"m 233 853 l 363 1010 l 492 853 l 588 853 l 406 1083 l 319 1083 l 138 853 z m 85 736 l 85 221 b 308 -15 85 83 161 -15 b 554 103 433 -15 513 38 l 569 0 l 650 0 l 642 208 l 642 736 l 544 736 l 544 186 b 340 72 514 138 457 72 b 181 235 243 72 181 124 l 181 736 z "},"ü":{"ha":733,"x_min":0,"x_max":0,"o":"m 307 1035 l 186 1035 l 186 913 l 307 913 z m 539 1035 l 418 1035 l 418 913 l 539 913 z m 85 736 l 85 221 b 308 -15 85 83 161 -15 b 554 103 433 -15 513 38 l 569 0 l 650 0 l 642 208 l 642 736 l 544 736 l 544 186 b 340 72 514 138 457 72 b 181 235 243 72 181 124 l 181 736 z "},"ũ":{"ha":733,"x_min":0,"x_max":0,"o":"m 503 1036 b 453 976 503 990 481 976 b 258 1051 397 976 344 1051 b 146 908 192 1051 146 1007 l 222 908 b 272 968 222 954 244 968 b 467 893 328 968 381 893 b 579 1036 533 893 579 938 z m 85 736 l 85 221 b 308 -15 85 83 161 -15 b 554 103 433 -15 513 38 l 569 0 l 650 0 l 642 208 l 642 736 l 544 736 l 544 186 b 340 72 514 138 457 72 b 181 235 243 72 181 124 l 181 736 z "},"ū":{"ha":733,"x_min":0,"x_max":0,"o":"m 200 922 l 525 922 l 525 1014 l 200 1014 z m 85 736 l 85 221 b 308 -15 85 83 161 -15 b 554 103 433 -15 513 38 l 569 0 l 650 0 l 642 208 l 642 736 l 544 736 l 544 186 b 340 72 514 138 457 72 b 181 235 243 72 181 124 l 181 736 z "},"ŭ":{"ha":733,"x_min":0,"x_max":0,"o":"m 363 838 b 586 1083 521 838 588 939 l 507 1083 b 363 919 507 985 465 919 b 218 1083 260 919 218 985 l 139 1083 b 363 838 138 939 204 838 z m 85 736 l 85 221 b 308 -15 85 83 161 -15 b 554 103 433 -15 513 38 l 569 0 l 650 0 l 642 208 l 642 736 l 544 736 l 544 186 b 340 72 514 138 457 72 b 181 235 243 72 181 124 l 181 736 z "},"ů":{"ha":733,"x_min":0,"x_max":0,"o":"m 232 968 b 363 838 232 896 290 838 b 493 968 435 838 493 896 b 363 1099 493 1040 435 1099 b 232 968 290 1099 232 1040 z m 285 968 b 363 1046 285 1011 319 1046 b 440 968 406 1046 440 1011 b 363 890 440 925 406 890 b 285 968 319 890 285 925 z m 85 736 l 85 221 b 308 -15 85 83 161 -15 b 554 103 433 -15 513 38 l 569 0 l 650 0 l 642 208 l 642 736 l 544 736 l 544 186 b 340 72 514 138 457 72 b 181 235 243 72 181 124 l 181 736 z "},"ű":{"ha":733,"x_min":0,"x_max":0,"o":"m 350 1083 l 233 853 l 321 853 l 443 1083 z m 529 1083 l 404 853 l 492 853 l 624 1083 z m 85 736 l 85 221 b 308 -15 85 83 161 -15 b 554 103 433 -15 513 38 l 569 0 l 650 0 l 642 208 l 642 736 l 544 736 l 544 186 b 340 72 514 138 457 72 b 181 235 243 72 181 124 l 181 736 z "},"ų":{"ha":733,"x_min":0,"x_max":0,"o":"m 85 736 l 85 221 b 308 -15 85 83 161 -15 b 554 103 433 -15 513 38 l 565 29 b 451 -157 501 -10 451 -72 b 603 -293 451 -253 513 -293 b 726 -265 647 -293 697 -283 l 700 -193 b 613 -212 679 -204 646 -212 b 535 -143 563 -212 535 -183 b 650 0 535 -72 589 -26 l 642 208 l 642 736 l 544 736 l 544 186 b 340 72 514 138 457 72 b 181 235 243 72 181 124 l 181 736 z "},"v":{"ha":778,"x_min":0,"x_max":0,"o":"m 706 736 l 601 736 l 501 443 l 431 372 l 426 372 l 389 201 l 351 372 l 258 465 l 167 736 l 63 736 l 151 482 l 107 372 l 208 0 l 569 0 l 671 372 l 675 372 l 624 501 z "},"w":{"ha":1083,"x_min":0,"x_max":0,"o":"m 938 463 l 997 736 l 900 736 l 842 449 l 785 369 l 778 278 l 761 369 l 676 458 l 601 736 l 483 736 l 408 460 l 322 369 l 306 278 l 299 369 l 243 446 l 185 736 l 88 736 l 146 464 l 79 369 l 139 0 l 458 0 l 524 369 l 494 451 l 542 628 l 589 451 l 560 369 l 625 0 l 944 0 l 1004 369 z "},"ŵ":{"ha":996,"x_min":0,"x_max":0,"o":"m 368 853 l 497 1010 l 626 853 l 722 853 l 540 1083 l 454 1083 l 272 853 z m 497 628 l 665 0 l 794 0 l 953 736 l 856 736 l 728 101 l 557 736 l 439 736 l 268 101 l 140 736 l 43 736 l 201 0 l 329 0 z "},"ẁ":{"ha":996,"x_min":0,"x_max":0,"o":"m 317 1083 l 447 853 l 547 853 l 422 1083 z m 497 628 l 665 0 l 794 0 l 953 736 l 856 736 l 728 101 l 557 736 l 439 736 l 268 101 l 140 736 l 43 736 l 201 0 l 329 0 z "},"ẃ":{"ha":996,"x_min":0,"x_max":0,"o":"m 572 1083 l 447 853 l 547 853 l 678 1083 z m 497 628 l 665 0 l 794 0 l 953 736 l 856 736 l 728 101 l 557 736 l 439 736 l 268 101 l 140 736 l 43 736 l 201 0 l 329 0 z "},"ẅ":{"ha":996,"x_min":0,"x_max":0,"o":"m 442 1035 l 321 1035 l 321 913 l 442 913 z m 674 1035 l 553 1035 l 553 913 l 674 913 z m 497 628 l 665 0 l 794 0 l 953 736 l 856 736 l 728 101 l 557 736 l 439 736 l 268 101 l 140 736 l 43 736 l 201 0 l 329 0 z "},"x":{"ha":806,"x_min":0,"x_max":0,"o":"m 606 382 l 607 383 l 507 411 l 714 736 l 599 736 l 410 438 l 407 438 l 219 736 l 104 736 l 310 413 l 199 383 l 199 382 l 21 0 l 307 0 l 403 239 l 499 0 l 785 0 z "},"y":{"ha":792,"x_min":0,"x_max":0,"o":"m 710 736 l 606 736 l 514 474 l 413 372 l 394 306 l 376 372 l 379 372 l 276 475 l 185 736 l 81 736 l 183 460 l 136 372 l 133 372 l 256 42 l 136 -278 l 442 -278 l 533 42 l 656 372 l 607 463 z "},"ý":{"ha":672,"x_min":0,"x_max":0,"o":"m 421 1083 l 296 853 l 396 853 l 526 1083 z m 346 135 l 136 736 l 32 736 l 296 28 l 181 -278 l 293 -278 l 397 28 l 661 736 l 557 736 z "},"ÿ":{"ha":672,"x_min":0,"x_max":0,"o":"m 290 1035 l 169 1035 l 169 913 l 290 913 z m 522 1035 l 401 1035 l 401 913 l 522 913 z m 346 135 l 136 736 l 32 736 l 296 28 l 181 -278 l 293 -278 l 397 28 l 661 736 l 557 736 z "},"ŷ":{"ha":672,"x_min":0,"x_max":0,"o":"m 217 853 l 346 1010 l 475 853 l 571 853 l 389 1083 l 303 1083 l 121 853 z m 346 135 l 136 736 l 32 736 l 296 28 l 181 -278 l 293 -278 l 397 28 l 661 736 l 557 736 z "},"ȳ":{"ha":672,"x_min":0,"x_max":0,"o":"m 183 922 l 508 922 l 508 1014 l 183 1014 z m 346 135 l 136 736 l 32 736 l 296 28 l 181 -278 l 293 -278 l 397 28 l 661 736 l 557 736 z "},"ỳ":{"ha":672,"x_min":0,"x_max":0,"o":"m 165 1083 l 296 853 l 396 853 l 271 1083 z m 346 135 l 136 736 l 32 736 l 296 28 l 181 -278 l 293 -278 l 397 28 l 661 736 l 557 736 z "},"z":{"ha":708,"x_min":0,"x_max":0,"o":"m 514 222 l 364 217 l 425 288 l 432 408 l 613 669 l 613 736 l 97 736 l 97 649 l 488 650 l 356 460 l 224 399 l 28 175 l 28 0 l 681 0 l 681 222 z "},"ź":{"ha":643,"x_min":0,"x_max":0,"o":"m 394 1083 l 269 853 l 369 853 l 500 1083 z m 50 67 l 50 0 l 593 0 l 593 88 l 174 86 l 579 669 l 579 736 l 64 736 l 64 649 l 454 650 z "},"ż":{"ha":643,"x_min":0,"x_max":0,"o":"m 381 1035 l 258 1035 l 258 913 l 381 913 z m 50 67 l 50 0 l 593 0 l 593 88 l 174 86 l 579 669 l 579 736 l 64 736 l 64 649 l 454 650 z "},"ž":{"ha":643,"x_min":0,"x_max":0,"o":"m 94 1083 l 276 853 l 363 853 l 544 1083 l 449 1083 l 319 925 l 190 1083 z m 50 67 l 50 0 l 593 0 l 593 88 l 174 86 l 579 669 l 579 736 l 64 736 l 64 649 l 454 650 z "},"ª":{"ha":542,"x_min":0,"x_max":0,"o":"m 415 539 l 489 539 l 482 693 l 482 894 b 278 1099 482 1017 435 1099 b 74 915 114 1099 74 1000 l 74 906 l 158 906 b 276 1026 158 971 181 1026 b 394 894 367 1026 394 981 l 394 882 l 236 858 b 53 689 142 843 53 808 l 53 679 b 214 526 53 590 110 526 b 403 613 307 526 367 565 z m 239 601 b 142 688 169 601 142 643 l 142 696 b 247 799 142 754 182 788 l 394 822 l 394 678 b 239 601 374 649 328 601 z m 489 294 l 489 374 l 65 374 l 65 294 z "},"º":{"ha":581,"x_min":0,"x_max":0,"o":"m 525 799 l 525 826 b 290 1099 525 981 454 1099 b 56 826 128 1099 56 981 l 56 799 b 290 526 56 646 128 526 b 525 799 454 526 525 646 z m 144 799 l 144 826 b 290 1021 144 944 189 1021 b 436 826 392 1021 436 944 l 436 799 b 290 604 436 682 392 604 b 144 799 189 604 144 682 z m 67 294 l 515 294 l 515 374 l 67 374 z "},"ß":{"ha":793,"x_min":0,"x_max":0,"o":"m 364 514 l 471 443 b 657 224 596 363 657 307 b 508 67 657 144 629 67 b 358 225 388 67 358 144 l 272 225 l 272 218 b 513 -15 272 110 315 -15 b 754 221 710 -15 754 111 l 754 228 b 544 506 754 342 681 415 l 475 550 b 660 836 603 633 660 717 l 660 846 b 375 1126 660 1008 569 1126 b 90 846 175 1126 90 1011 l 90 0 l 188 0 l 188 839 b 375 1036 188 953 243 1036 b 563 836 507 1036 563 956 b 364 578 563 724 503 654 z "},"æ":{"ha":1210,"x_min":0,"x_max":0,"o":"m 1146 328 l 1146 383 b 836 751 1146 588 1051 751 b 589 614 714 751 635 697 b 356 751 560 699 493 751 b 90 506 139 751 90 617 l 90 493 l 183 493 b 354 669 183 589 215 669 b 525 478 485 669 525 604 l 525 458 l 304 424 b 63 200 185 406 63 360 l 63 186 b 279 -15 63 68 142 -15 b 576 128 425 -15 524 54 b 843 -15 625 40 713 -15 b 1146 231 1051 -15 1146 117 l 1146 236 l 1051 236 b 844 67 1051 157 990 67 b 624 328 696 67 628 167 z m 835 669 b 1046 408 975 669 1040 568 l 624 408 b 835 669 628 568 696 669 z m 529 192 b 300 68 506 151 444 68 b 160 193 201 68 160 128 l 160 206 b 313 351 160 289 217 335 l 525 386 l 525 353 b 543 211 525 303 531 254 z "},"ð":{"ha":756,"x_min":0,"x_max":0,"o":"m 68 1038 b 292 976 147 1028 222 1010 l 121 878 l 121 801 l 358 939 b 451 861 390 917 422 892 b 553 686 496 813 529 753 b 369 751 508 726 447 751 b 68 385 161 751 68 589 l 68 351 b 378 -15 68 147 161 -15 b 688 351 594 -15 688 147 l 688 385 b 528 919 688 546 656 776 b 450 992 503 946 476 971 l 553 1050 l 553 1126 l 390 1032 b 68 1126 293 1090 185 1117 z m 378 72 b 167 351 232 72 167 183 l 167 385 b 378 664 167 553 232 664 b 589 385 524 664 589 553 l 589 351 b 378 72 589 183 524 72 z "},"ø":{"ha":756,"x_min":0,"x_max":0,"o":"m 688 736 l 614 736 l 575 685 b 378 751 526 726 461 751 b 68 385 161 751 68 589 l 68 351 b 139 94 68 251 90 161 l 68 0 l 142 0 l 179 51 b 378 -15 228 10 293 -15 b 688 351 594 -15 688 147 l 688 385 b 617 640 688 485 665 575 z m 167 351 l 167 385 b 378 664 167 553 232 664 b 519 608 439 664 486 644 l 200 178 b 167 351 178 224 167 283 z m 589 385 l 589 351 b 378 72 589 183 524 72 b 235 126 317 72 269 92 l 554 557 b 589 385 578 511 589 453 z "},"þ":{"ha":746,"x_min":0,"x_max":0,"o":"m 90 1111 l 90 -278 l 188 -278 l 188 86 b 397 -15 226 29 293 -15 b 679 351 599 -15 679 147 l 679 385 b 397 751 679 589 599 751 b 188 650 293 751 226 707 l 188 1111 z m 189 186 l 189 550 b 375 664 218 599 275 664 b 579 385 514 664 579 556 l 579 351 b 375 72 579 181 514 72 b 189 186 275 72 218 138 z "},"đ":{"ha":750,"x_min":0,"x_max":0,"o":"m 785 964 l 658 964 l 658 1111 l 561 1111 l 561 964 l 376 964 l 376 883 l 561 883 l 561 651 b 353 751 521 707 456 751 b 71 385 151 751 71 589 l 71 351 b 353 -15 71 147 151 -15 b 571 99 464 -15 533 36 l 585 0 l 667 0 l 658 208 l 658 883 l 785 883 z m 561 550 l 561 186 b 374 72 531 138 474 72 b 169 351 235 72 169 181 l 169 385 b 374 664 169 556 235 664 b 561 550 474 664 531 599 z "},"ħ":{"ha":733,"x_min":0,"x_max":0,"o":"m 189 1111 l 92 1111 l 92 964 l -36 964 l -36 883 l 92 883 l 92 0 l 189 0 l 189 550 b 392 664 219 599 276 664 b 551 501 489 664 551 613 l 551 0 l 649 0 l 649 515 b 425 751 649 653 571 751 b 189 647 308 751 233 706 l 189 883 l 374 883 l 374 964 l 189 964 z "},"ı":{"ha":300,"x_min":0,"x_max":0,"o":"m 101 0 l 199 0 l 199 736 l 101 736 z "},"ĳ":{"ha":532,"x_min":0,"x_max":0,"o":"m 213 1035 l 88 1035 l 88 910 l 213 910 z m 444 1035 l 319 1035 l 319 910 l 444 910 z m 101 0 l 199 0 l 199 736 l 101 736 z m 333 -61 b 192 -206 333 -178 285 -206 b 113 -193 161 -206 125 -199 l 113 -278 b 215 -293 124 -282 157 -293 b 431 -74 340 -293 431 -233 l 431 736 l 333 736 z "},"ĸ":{"ha":696,"x_min":0,"x_max":0,"o":"m 90 0 l 188 0 l 188 217 l 339 383 l 547 0 l 658 0 l 406 457 l 658 736 l 538 736 l 188 347 l 188 736 l 90 736 z "},"ŀ":{"ha":465,"x_min":0,"x_max":0,"o":"m 101 0 l 199 0 l 199 1111 l 101 1111 z m 444 547 l 324 547 l 324 425 l 444 425 z "},"ł":{"ha":457,"x_min":0,"x_max":0,"o":"m 44 364 l 174 461 l 174 0 l 271 0 l 271 536 l 426 654 l 426 751 l 271 633 l 271 1111 l 174 1111 l 174 558 l 44 461 z "},"ŋ":{"ha":733,"x_min":0,"x_max":0,"o":"m 551 -61 b 410 -206 551 -178 503 -206 b 331 -193 379 -206 342 -199 l 331 -278 b 433 -293 342 -282 375 -293 b 649 -74 558 -293 649 -233 l 649 515 b 425 751 649 653 571 751 b 178 632 299 751 221 697 l 164 736 l 83 736 l 92 528 l 92 0 l 189 0 l 189 550 b 392 664 219 599 276 664 b 551 501 489 664 551 613 z "},"œ":{"ha":1276,"x_min":0,"x_max":0,"o":"m 1210 328 l 1210 383 b 900 751 1210 588 1115 751 b 639 588 765 751 682 685 b 378 751 596 685 513 751 b 68 385 161 751 68 589 l 68 351 b 378 -15 68 147 161 -15 b 639 149 513 -15 596 51 b 907 -15 683 51 768 -15 b 1210 231 1115 -15 1210 117 l 1210 236 l 1115 236 b 908 67 1115 157 1054 67 b 688 328 760 67 692 167 z m 899 669 b 1110 408 1039 669 1104 568 l 688 408 b 899 669 692 568 760 669 z m 167 351 l 167 385 b 378 664 167 553 232 664 b 589 385 524 664 589 553 l 589 351 b 378 72 589 183 524 72 b 167 351 232 72 167 183 z "},"ŧ":{"ha":556,"x_min":0,"x_max":0,"o":"m 257 736 l 257 944 l 160 944 l 160 736 l 43 736 l 43 649 l 160 649 l 160 408 l 49 408 l 49 328 l 160 328 l 160 204 b 375 -15 160 44 250 -15 b 478 0 433 -15 467 -4 l 478 85 b 399 72 467 79 429 72 b 257 217 306 72 257 100 l 257 328 l 436 328 l 436 408 l 257 408 l 257 649 l 492 649 l 492 736 z "},"ȷ":{"ha":300,"x_min":0,"x_max":0,"o":"m 101 -61 b -40 -206 101 -178 53 -206 b -119 -193 -71 -206 -107 -199 l -119 -278 b -17 -293 -108 -282 -75 -293 b 199 -74 108 -293 199 -233 l 199 736 l 101 736 z "},"ˆ":{"ha":694,"x_min":0,"x_max":0,"o":"m 218 853 l 347 1010 l 476 853 l 572 853 l 390 1083 l 304 1083 l 122 853 z "},"ˇ":{"ha":694,"x_min":0,"x_max":0,"o":"m 122 1083 l 304 853 l 390 853 l 572 1083 l 476 1083 l 347 925 l 218 1083 z "},"²":{"ha":417,"x_min":0,"x_max":0,"o":"m 382 614 l 154 614 l 319 793 b 382 933 364 842 382 874 l 382 943 b 208 1092 382 1022 331 1092 b 35 918 89 1092 35 1031 l 35 903 l 117 903 b 206 1018 117 986 149 1018 l 210 1018 b 299 929 263 1018 299 986 l 299 922 b 254 832 299 888 286 865 l 35 593 l 35 542 l 382 542 z "},"³":{"ha":417,"x_min":0,"x_max":0,"o":"m 114 715 l 31 715 l 31 706 b 208 532 31 597 89 532 b 385 683 325 532 385 607 l 385 696 b 311 818 385 758 353 797 b 382 936 351 838 382 875 l 382 947 b 208 1092 382 1022 331 1092 b 35 918 89 1092 35 1031 l 35 903 l 117 903 b 204 1018 117 986 147 1018 l 211 1018 b 299 938 263 1018 299 986 l 299 932 b 213 854 299 879 263 854 l 139 854 l 139 782 l 215 782 b 303 700 267 782 303 754 l 303 690 b 211 606 303 632 258 606 l 204 606 b 114 715 150 606 114 638 z "},"¹":{"ha":417,"x_min":0,"x_max":0,"o":"m 385 542 l 385 614 l 257 614 l 257 1085 l 197 1085 l 28 969 l 68 908 l 174 979 l 174 614 l 44 614 l 44 542 z "},"¼":{"ha":1111,"x_min":0,"x_max":0,"o":"m 385 542 l 385 614 l 257 614 l 257 1085 l 197 1085 l 28 969 l 68 908 l 174 979 l 174 614 l 44 614 l 44 542 z m 200 0 l 1000 1083 l 911 1083 l 111 0 z m 1018 0 l 1018 129 l 1090 129 l 1090 203 l 1018 203 l 1018 542 l 938 542 l 714 186 l 714 129 l 935 129 l 935 0 z m 936 407 l 935 353 l 935 203 l 853 203 l 806 201 z "},"½":{"ha":1111,"x_min":0,"x_max":0,"o":"m 385 542 l 385 614 l 257 614 l 257 1085 l 197 1085 l 28 969 l 68 908 l 174 979 l 174 614 l 44 614 l 44 542 z m 200 0 l 1000 1083 l 911 1083 l 111 0 z m 1076 72 l 849 72 l 1014 251 b 1076 392 1058 300 1076 332 l 1076 401 b 903 550 1076 481 1025 550 b 729 376 783 550 729 489 l 729 361 l 811 361 b 900 476 811 444 843 476 l 904 476 b 993 388 957 476 993 444 l 993 381 b 949 290 993 346 981 324 l 729 51 l 729 0 l 1076 0 z "},"¾":{"ha":1111,"x_min":0,"x_max":0,"o":"m 114 715 l 31 715 l 31 706 b 208 532 31 597 89 532 b 385 683 325 532 385 607 l 385 696 b 311 818 385 758 353 797 b 382 936 351 838 382 875 l 382 947 b 208 1092 382 1022 331 1092 b 35 918 89 1092 35 1031 l 35 903 l 117 903 b 204 1018 117 986 147 1018 l 211 1018 b 299 938 263 1018 299 986 l 299 932 b 213 854 299 879 263 854 l 139 854 l 139 782 l 215 782 b 303 700 267 782 303 754 l 303 690 b 211 606 303 632 258 606 l 204 606 b 114 715 150 606 114 638 z m 200 0 l 1000 1083 l 911 1083 l 111 0 z m 1018 0 l 1018 129 l 1090 129 l 1090 203 l 1018 203 l 1018 542 l 938 542 l 714 186 l 714 129 l 935 129 l 935 0 z m 936 407 l 935 353 l 935 203 l 853 203 l 806 201 z "},"⁰":{"ha":417,"x_min":0,"x_max":0,"o":"m 381 696 l 381 929 b 208 1092 381 1022 326 1092 b 36 929 90 1092 36 1022 l 36 696 b 208 532 36 601 90 532 b 381 696 326 532 381 601 z m 297 925 l 297 699 b 210 606 297 643 272 606 l 206 606 b 119 699 143 606 119 643 l 119 925 b 206 1018 119 982 143 1018 l 210 1018 b 297 925 272 1018 297 982 z "},"⁴":{"ha":417,"x_min":0,"x_max":0,"o":"m 324 542 l 324 671 l 396 671 l 396 744 l 324 744 l 324 1083 l 243 1083 l 19 728 l 19 671 l 240 671 l 240 542 z m 242 949 l 240 894 l 240 744 l 158 744 l 111 743 z "},"⁵":{"ha":417,"x_min":0,"x_max":0,"o":"m 31 715 l 31 706 b 208 532 31 597 89 532 b 385 706 318 532 385 597 l 385 717 b 213 889 385 825 318 889 b 114 864 175 889 142 879 l 121 1010 l 378 1010 l 378 1083 l 47 1083 l 35 783 l 106 760 b 203 817 122 797 164 817 l 207 817 b 303 717 258 817 303 788 l 303 706 b 211 606 303 635 258 606 l 204 606 b 114 715 150 606 114 638 z "},"⁶":{"ha":417,"x_min":0,"x_max":0,"o":"m 361 1092 b 108 985 261 1092 168 1065 b 32 736 51 908 32 822 l 32 728 b 210 532 32 608 100 532 b 388 704 322 532 388 594 l 388 711 b 231 882 388 822 322 882 b 129 847 189 882 154 868 b 174 938 138 881 151 911 b 361 1018 217 994 285 1018 z m 211 810 l 215 810 b 304 715 268 810 304 778 l 304 703 b 211 606 304 640 265 606 l 207 606 b 115 722 157 606 115 647 l 115 750 b 211 810 133 788 171 810 z "},"⁷":{"ha":417,"x_min":0,"x_max":0,"o":"m 32 889 l 106 889 l 106 1010 l 222 1010 l 293 1011 l 100 542 l 188 542 l 388 1032 l 388 1083 l 32 1083 z "},"⁸":{"ha":417,"x_min":0,"x_max":0,"o":"m 208 532 b 385 683 325 532 385 607 l 385 696 b 310 818 385 758 353 797 b 382 936 351 838 382 875 l 382 949 b 208 1092 382 1022 331 1092 b 35 949 86 1092 35 1022 l 35 936 b 106 818 35 875 64 838 b 31 696 63 797 31 758 l 31 683 b 208 532 31 607 90 532 z m 211 1018 b 299 939 263 1018 299 988 l 299 932 b 213 854 299 879 263 854 l 204 854 b 117 932 153 854 117 879 l 117 939 b 204 1018 117 988 153 1018 z m 201 782 l 215 782 b 303 699 267 782 303 753 l 303 690 b 211 606 303 632 258 606 l 204 606 b 114 690 157 606 114 632 l 114 699 b 201 782 114 753 150 782 z "},"⁹":{"ha":417,"x_min":0,"x_max":0,"o":"m 54 532 b 307 639 154 532 247 560 b 383 889 365 717 383 803 l 383 896 b 207 1092 383 1017 315 1092 b 29 919 94 1092 29 1029 l 29 913 b 185 743 29 803 93 743 b 288 778 226 743 261 757 b 243 686 278 744 264 713 b 54 606 199 629 132 607 z m 206 815 l 201 815 b 113 910 149 815 113 846 l 113 922 b 204 1018 113 983 150 1018 l 208 1018 b 301 903 260 1018 301 976 l 301 874 b 206 815 282 836 244 815 z "},"₀":{"ha":417,"x_min":0,"x_max":0,"o":"m 381 154 l 381 388 b 208 550 381 481 326 550 b 36 388 90 550 36 481 l 36 154 b 208 -10 36 60 90 -10 b 381 154 326 -10 381 60 z m 297 383 l 297 157 b 210 64 297 101 272 64 l 206 64 b 119 157 143 64 119 101 l 119 383 b 206 476 119 440 143 476 l 210 476 b 297 383 272 476 297 440 z "},"₁":{"ha":417,"x_min":0,"x_max":0,"o":"m 385 0 l 385 72 l 257 72 l 257 543 l 197 543 l 28 428 l 68 367 l 174 438 l 174 72 l 44 72 l 44 0 z "},"₂":{"ha":417,"x_min":0,"x_max":0,"o":"m 382 72 l 154 72 l 319 251 b 382 392 364 300 382 332 l 382 401 b 208 550 382 481 331 550 b 35 376 89 550 35 489 l 35 361 l 117 361 b 206 476 117 444 149 476 l 210 476 b 299 388 263 476 299 444 l 299 381 b 254 290 299 346 286 324 l 35 51 l 35 0 l 382 0 z "},"₃":{"ha":417,"x_min":0,"x_max":0,"o":"m 114 174 l 31 174 l 31 164 b 208 -10 31 56 89 -10 b 385 142 325 -10 385 65 l 385 154 b 311 276 385 217 353 256 b 382 394 351 296 382 333 l 382 406 b 208 550 382 481 331 550 b 35 376 89 550 35 489 l 35 361 l 117 361 b 204 476 117 444 147 476 l 211 476 b 299 396 263 476 299 444 l 299 390 b 213 313 299 338 263 313 l 139 313 l 139 240 l 215 240 b 303 158 267 240 303 213 l 303 149 b 211 64 303 90 258 64 l 204 64 b 114 174 150 64 114 96 z "},"₄":{"ha":417,"x_min":0,"x_max":0,"o":"m 324 0 l 324 129 l 396 129 l 396 203 l 324 203 l 324 542 l 243 542 l 19 186 l 19 129 l 240 129 l 240 0 z m 242 407 l 240 353 l 240 203 l 158 203 l 111 201 z "},"₅":{"ha":417,"x_min":0,"x_max":0,"o":"m 31 174 l 31 164 b 208 -10 31 56 89 -10 b 385 164 318 -10 385 56 l 385 175 b 213 347 385 283 318 347 b 114 322 175 347 142 338 l 121 468 l 378 468 l 378 542 l 47 542 l 35 242 l 106 218 b 203 275 122 256 164 275 l 207 275 b 303 175 258 275 303 246 l 303 164 b 211 64 303 93 258 64 l 204 64 b 114 174 150 64 114 96 z "},"₆":{"ha":417,"x_min":0,"x_max":0,"o":"m 361 550 b 108 443 261 550 168 524 b 32 194 51 367 32 281 l 32 186 b 210 -10 32 67 100 -10 b 388 163 322 -10 388 53 l 388 169 b 231 340 388 281 322 340 b 129 306 189 340 154 326 b 174 396 138 339 151 369 b 361 476 217 453 285 476 z m 211 268 l 215 268 b 304 174 268 268 304 236 l 304 161 b 211 64 304 99 265 64 l 207 64 b 115 181 157 64 115 106 l 115 208 b 211 268 133 246 171 268 z "},"₇":{"ha":417,"x_min":0,"x_max":0,"o":"m 32 347 l 106 347 l 106 468 l 222 468 l 293 469 l 100 0 l 188 0 l 388 490 l 388 542 l 32 542 z "},"₈":{"ha":417,"x_min":0,"x_max":0,"o":"m 208 -10 b 385 142 325 -10 385 65 l 385 154 b 310 276 385 217 353 256 b 382 394 351 296 382 333 l 382 407 b 208 550 382 481 331 550 b 35 407 86 550 35 481 l 35 394 b 106 276 35 333 64 296 b 31 154 63 256 31 217 l 31 142 b 208 -10 31 65 90 -10 z m 211 476 b 299 397 263 476 299 446 l 299 390 b 213 313 299 338 263 313 l 204 313 b 117 390 153 313 117 338 l 117 397 b 204 476 117 446 153 476 z m 201 240 l 215 240 b 303 157 267 240 303 211 l 303 149 b 211 64 303 90 258 64 l 204 64 b 114 149 157 64 114 90 l 114 157 b 201 240 114 211 150 240 z "},"₉":{"ha":417,"x_min":0,"x_max":0,"o":"m 54 -10 b 307 97 154 -10 247 18 b 383 347 365 175 383 261 l 383 354 b 207 550 383 475 315 550 b 29 378 94 550 29 488 l 29 371 b 185 201 29 261 93 201 b 288 236 226 201 261 215 b 243 144 278 203 264 171 b 54 64 199 88 132 65 z m 206 274 l 201 274 b 113 368 149 274 113 304 l 113 381 b 204 476 113 442 150 476 l 208 476 b 301 361 260 476 301 435 l 301 332 b 206 274 282 294 244 274 z "},"⅓":{"ha":1111,"x_min":0,"x_max":0,"o":"m 385 542 l 385 614 l 257 614 l 257 1085 l 197 1085 l 28 969 l 68 908 l 174 979 l 174 614 l 44 614 l 44 542 z m 200 0 l 1000 1083 l 911 1083 l 111 0 z m 808 174 l 725 174 l 725 164 b 903 -10 725 56 783 -10 b 1079 142 1019 -10 1079 65 l 1079 154 b 1006 276 1079 217 1047 256 b 1076 394 1046 296 1076 333 l 1076 406 b 903 550 1076 481 1025 550 b 729 376 783 550 729 489 l 729 361 l 811 361 b 899 476 811 444 842 476 l 906 476 b 993 396 957 476 993 444 l 993 390 b 907 313 993 338 957 313 l 833 313 l 833 240 l 910 240 b 997 158 961 240 997 213 l 997 149 b 906 64 997 90 953 64 l 899 64 b 808 174 844 64 808 96 z "},"⅔":{"ha":1111,"x_min":0,"x_max":0,"o":"m 382 614 l 154 614 l 319 793 b 382 933 364 842 382 874 l 382 943 b 208 1092 382 1022 331 1092 b 35 918 89 1092 35 1031 l 35 903 l 117 903 b 206 1018 117 986 149 1018 l 210 1018 b 299 929 263 1018 299 986 l 299 922 b 254 832 299 888 286 865 l 35 593 l 35 542 l 382 542 z m 200 0 l 1000 1083 l 911 1083 l 111 0 z m 808 174 l 725 174 l 725 164 b 903 -10 725 56 783 -10 b 1079 142 1019 -10 1079 65 l 1079 154 b 1006 276 1079 217 1047 256 b 1076 394 1046 296 1076 333 l 1076 406 b 903 550 1076 481 1025 550 b 729 376 783 550 729 489 l 729 361 l 811 361 b 899 476 811 444 842 476 l 906 476 b 993 396 957 476 993 444 l 993 390 b 907 313 993 338 957 313 l 833 313 l 833 240 l 910 240 b 997 158 961 240 997 213 l 997 149 b 906 64 997 90 953 64 l 899 64 b 808 174 844 64 808 96 z "},"⅕":{"ha":1111,"x_min":0,"x_max":0,"o":"m 385 542 l 385 614 l 257 614 l 257 1085 l 197 1085 l 28 969 l 68 908 l 174 979 l 174 614 l 44 614 l 44 542 z m 200 0 l 1000 1083 l 911 1083 l 111 0 z m 725 174 l 725 164 b 903 -10 725 56 783 -10 b 1079 164 1013 -10 1079 56 l 1079 175 b 907 347 1079 283 1013 347 b 808 322 869 347 836 338 l 815 468 l 1072 468 l 1072 542 l 742 542 l 729 242 l 800 218 b 897 275 817 256 858 275 l 901 275 b 997 175 953 275 997 246 l 997 164 b 906 64 997 93 953 64 l 899 64 b 808 174 844 64 808 96 z "},"⅖":{"ha":1111,"x_min":0,"x_max":0,"o":"m 382 614 l 154 614 l 319 793 b 382 933 364 842 382 874 l 382 943 b 208 1092 382 1022 331 1092 b 35 918 89 1092 35 1031 l 35 903 l 117 903 b 206 1018 117 986 149 1018 l 210 1018 b 299 929 263 1018 299 986 l 299 922 b 254 832 299 888 286 865 l 35 593 l 35 542 l 382 542 z m 200 0 l 1000 1083 l 911 1083 l 111 0 z m 725 174 l 725 164 b 903 -10 725 56 783 -10 b 1079 164 1013 -10 1079 56 l 1079 175 b 907 347 1079 283 1013 347 b 808 322 869 347 836 338 l 815 468 l 1072 468 l 1072 542 l 742 542 l 729 242 l 800 218 b 897 275 817 256 858 275 l 901 275 b 997 175 953 275 997 246 l 997 164 b 906 64 997 93 953 64 l 899 64 b 808 174 844 64 808 96 z "},"⅗":{"ha":1111,"x_min":0,"x_max":0,"o":"m 114 715 l 31 715 l 31 706 b 208 532 31 597 89 532 b 385 683 325 532 385 607 l 385 696 b 311 818 385 758 353 797 b 382 936 351 838 382 875 l 382 947 b 208 1092 382 1022 331 1092 b 35 918 89 1092 35 1031 l 35 903 l 117 903 b 204 1018 117 986 147 1018 l 211 1018 b 299 938 263 1018 299 986 l 299 932 b 213 854 299 879 263 854 l 139 854 l 139 782 l 215 782 b 303 700 267 782 303 754 l 303 690 b 211 606 303 632 258 606 l 204 606 b 114 715 150 606 114 638 z m 200 0 l 1000 1083 l 911 1083 l 111 0 z m 725 174 l 725 164 b 903 -10 725 56 783 -10 b 1079 164 1013 -10 1079 56 l 1079 175 b 907 347 1079 283 1013 347 b 808 322 869 347 836 338 l 815 468 l 1072 468 l 1072 542 l 742 542 l 729 242 l 800 218 b 897 275 817 256 858 275 l 901 275 b 997 175 953 275 997 246 l 997 164 b 906 64 997 93 953 64 l 899 64 b 808 174 844 64 808 96 z "},"⅘":{"ha":1111,"x_min":0,"x_max":0,"o":"m 324 542 l 324 671 l 396 671 l 396 744 l 324 744 l 324 1083 l 243 1083 l 19 728 l 19 671 l 240 671 l 240 542 z m 200 0 l 1000 1083 l 911 1083 l 111 0 z m 242 949 l 240 894 l 240 744 l 158 744 l 111 743 z m 725 174 l 725 164 b 903 -10 725 56 783 -10 b 1079 164 1013 -10 1079 56 l 1079 175 b 907 347 1079 283 1013 347 b 808 322 869 347 836 338 l 815 468 l 1072 468 l 1072 542 l 742 542 l 729 242 l 800 218 b 897 275 817 256 858 275 l 901 275 b 997 175 953 275 997 246 l 997 164 b 906 64 997 93 953 64 l 899 64 b 808 174 844 64 808 96 z "},"⅙":{"ha":1111,"x_min":0,"x_max":0,"o":"m 385 542 l 385 614 l 257 614 l 257 1085 l 197 1085 l 28 969 l 68 908 l 174 979 l 174 614 l 44 614 l 44 542 z m 200 0 l 1000 1083 l 911 1083 l 111 0 z m 1056 550 b 803 443 956 550 863 524 b 726 194 746 367 726 281 l 726 186 b 904 -10 726 67 794 -10 b 1082 163 1017 -10 1082 53 l 1082 169 b 925 340 1082 281 1017 340 b 824 306 883 340 849 326 b 868 396 832 339 846 369 b 1056 476 911 453 979 476 z m 906 268 l 910 268 b 999 174 963 268 999 236 l 999 161 b 906 64 999 99 960 64 l 901 64 b 810 181 851 64 810 106 l 810 208 b 906 268 828 246 865 268 z "},"⅚":{"ha":1111,"x_min":0,"x_max":0,"o":"m 31 715 l 31 706 b 208 532 31 597 89 532 b 385 706 318 532 385 597 l 385 717 b 213 889 385 825 318 889 b 114 864 175 889 142 879 l 121 1010 l 378 1010 l 378 1083 l 47 1083 l 35 783 l 106 760 b 203 817 122 797 164 817 l 207 817 b 303 717 258 817 303 788 l 303 706 b 211 606 303 635 258 606 l 204 606 b 114 715 150 606 114 638 z m 200 0 l 1000 1083 l 911 1083 l 111 0 z m 1056 550 b 803 443 956 550 863 524 b 726 194 746 367 726 281 l 726 186 b 904 -10 726 67 794 -10 b 1082 163 1017 -10 1082 53 l 1082 169 b 925 340 1082 281 1017 340 b 824 306 883 340 849 326 b 868 396 832 339 846 369 b 1056 476 911 453 979 476 z m 906 268 l 910 268 b 999 174 963 268 999 236 l 999 161 b 906 64 999 99 960 64 l 901 64 b 810 181 851 64 810 106 l 810 208 b 906 268 828 246 865 268 z "},"⅛":{"ha":1111,"x_min":0,"x_max":0,"o":"m 385 542 l 385 614 l 257 614 l 257 1085 l 197 1085 l 28 969 l 68 908 l 174 979 l 174 614 l 44 614 l 44 542 z m 200 0 l 1000 1083 l 911 1083 l 111 0 z m 903 -10 b 1079 142 1019 -10 1079 65 l 1079 154 b 1004 276 1079 217 1047 256 b 1076 394 1046 296 1076 333 l 1076 407 b 903 550 1076 481 1025 550 b 729 407 781 550 729 481 l 729 394 b 800 276 729 333 758 296 b 725 154 757 256 725 217 l 725 142 b 903 -10 725 65 785 -10 z m 906 476 b 993 397 957 476 993 446 l 993 390 b 907 313 993 338 957 313 l 899 313 b 811 390 847 313 811 338 l 811 397 b 899 476 811 446 847 476 z m 896 240 l 910 240 b 997 157 961 240 997 211 l 997 149 b 906 64 997 90 953 64 l 899 64 b 808 149 851 64 808 90 l 808 157 b 896 240 808 211 844 240 z "},"⅜":{"ha":1111,"x_min":0,"x_max":0,"o":"m 114 715 l 31 715 l 31 706 b 208 532 31 597 89 532 b 385 683 325 532 385 607 l 385 696 b 311 818 385 758 353 797 b 382 936 351 838 382 875 l 382 947 b 208 1092 382 1022 331 1092 b 35 918 89 1092 35 1031 l 35 903 l 117 903 b 204 1018 117 986 147 1018 l 211 1018 b 299 938 263 1018 299 986 l 299 932 b 213 854 299 879 263 854 l 139 854 l 139 782 l 215 782 b 303 700 267 782 303 754 l 303 690 b 211 606 303 632 258 606 l 204 606 b 114 715 150 606 114 638 z m 200 0 l 1000 1083 l 911 1083 l 111 0 z m 903 -10 b 1079 142 1019 -10 1079 65 l 1079 154 b 1004 276 1079 217 1047 256 b 1076 394 1046 296 1076 333 l 1076 407 b 903 550 1076 481 1025 550 b 729 407 781 550 729 481 l 729 394 b 800 276 729 333 758 296 b 725 154 757 256 725 217 l 725 142 b 903 -10 725 65 785 -10 z m 906 476 b 993 397 957 476 993 446 l 993 390 b 907 313 993 338 957 313 l 899 313 b 811 390 847 313 811 338 l 811 397 b 899 476 811 446 847 476 z m 896 240 l 910 240 b 997 157 961 240 997 211 l 997 149 b 906 64 997 90 953 64 l 899 64 b 808 149 851 64 808 90 l 808 157 b 896 240 808 211 844 240 z "},"⅝":{"ha":1111,"x_min":0,"x_max":0,"o":"m 31 715 l 31 706 b 208 532 31 597 89 532 b 385 706 318 532 385 597 l 385 717 b 213 889 385 825 318 889 b 114 864 175 889 142 879 l 121 1010 l 378 1010 l 378 1083 l 47 1083 l 35 783 l 106 760 b 203 817 122 797 164 817 l 207 817 b 303 717 258 817 303 788 l 303 706 b 211 606 303 635 258 606 l 204 606 b 114 715 150 606 114 638 z m 200 0 l 1000 1083 l 911 1083 l 111 0 z m 903 -10 b 1079 142 1019 -10 1079 65 l 1079 154 b 1004 276 1079 217 1047 256 b 1076 394 1046 296 1076 333 l 1076 407 b 903 550 1076 481 1025 550 b 729 407 781 550 729 481 l 729 394 b 800 276 729 333 758 296 b 725 154 757 256 725 217 l 725 142 b 903 -10 725 65 785 -10 z m 906 476 b 993 397 957 476 993 446 l 993 390 b 907 313 993 338 957 313 l 899 313 b 811 390 847 313 811 338 l 811 397 b 899 476 811 446 847 476 z m 896 240 l 910 240 b 997 157 961 240 997 211 l 997 149 b 906 64 997 90 953 64 l 899 64 b 808 149 851 64 808 90 l 808 157 b 896 240 808 211 844 240 z "},"⅞":{"ha":1111,"x_min":0,"x_max":0,"o":"m 32 889 l 106 889 l 106 1010 l 222 1010 l 293 1011 l 100 542 l 188 542 l 388 1032 l 388 1083 l 32 1083 z m 200 0 l 1000 1083 l 911 1083 l 111 0 z m 903 -10 b 1079 142 1019 -10 1079 65 l 1079 154 b 1004 276 1079 217 1047 256 b 1076 394 1046 296 1076 333 l 1076 407 b 903 550 1076 481 1025 550 b 729 407 781 550 729 481 l 729 394 b 800 276 729 333 758 296 b 725 154 757 256 725 217 l 725 142 b 903 -10 725 65 785 -10 z m 906 476 b 993 397 957 476 993 446 l 993 390 b 907 313 993 338 957 313 l 899 313 b 811 390 847 313 811 338 l 811 397 b 899 476 811 446 847 476 z m 896 240 l 910 240 b 997 157 961 240 997 211 l 997 149 b 906 64 997 90 953 64 l 899 64 b 808 149 851 64 808 90 l 808 157 b 896 240 808 211 844 240 z "},"⅟":{"ha":694,"x_min":0,"x_max":0,"o":"m 385 542 l 385 614 l 257 614 l 257 1085 l 197 1085 l 28 969 l 68 908 l 174 979 l 174 614 l 44 614 l 44 542 z m 200 0 l 1000 1083 l 911 1083 l 111 0 z "},"_":{"ha":444,"x_min":0,"x_max":0,"o":"m 67 -187 l 378 -187 l 378 -99 l 67 -99 z "},"-":{"ha":457,"x_min":0,"x_max":0,"o":"m 56 442 l 401 442 l 401 531 l 56 531 z "},"‒":{"ha":833,"x_min":0,"x_max":0,"o":"m 56 442 l 778 442 l 778 531 l 56 531 z "},"–":{"ha":694,"x_min":0,"x_max":0,"o":"m 56 442 l 639 442 l 639 531 l 56 531 z "},"—":{"ha":1389,"x_min":0,"x_max":0,"o":"m 56 442 l 1333 442 l 1333 531 l 56 531 z "},"―":{"ha":1667,"x_min":0,"x_max":0,"o":"m 56 442 l 1611 442 l 1611 531 l 56 531 z "},"(":{"ha":440,"x_min":0,"x_max":0,"o":"m 71 486 b 286 -167 71 164 171 -1 l 393 -167 b 169 486 265 13 169 188 l 169 514 b 393 1167 169 813 265 988 l 286 1167 b 71 514 171 1001 71 836 z "},"[":{"ha":440,"x_min":0,"x_max":0,"o":"m 93 1167 l 93 -167 l 382 -167 l 382 -75 l 192 -75 l 192 1075 l 382 1075 l 382 1167 z "},"{":{"ha":440,"x_min":0,"x_max":0,"o":"m 382 1167 l 357 1167 b 154 974 256 1167 154 1125 l 154 668 b 35 546 154 567 114 546 l 35 454 b 154 332 114 454 154 433 l 154 26 b 357 -167 154 -125 256 -167 l 382 -167 l 382 -75 b 251 68 300 -75 251 -46 l 251 357 b 176 500 251 432 222 476 b 251 643 222 522 251 567 l 251 932 b 382 1075 251 1046 300 1075 z "},"‚":{"ha":300,"x_min":0,"x_max":0,"o":"m 213 125 l 88 125 l 88 0 l 153 0 b 56 -106 147 -79 113 -106 l 56 -164 b 213 25 158 -164 213 -101 z "},"„":{"ha":503,"x_min":0,"x_max":0,"o":"m 213 125 l 88 125 l 88 0 l 153 0 b 56 -106 147 -79 113 -106 l 56 -164 b 213 25 158 -164 213 -101 z m 415 125 l 290 125 l 290 0 l 356 0 b 258 -106 350 -79 315 -106 l 258 -164 b 415 25 361 -164 415 -101 z "},"⁽":{"ha":238,"x_min":0,"x_max":0,"o":"m 36 806 b 119 542 36 690 72 601 l 206 542 b 118 806 163 604 118 699 l 118 819 b 206 1083 118 926 163 1021 l 119 1083 b 36 819 72 1022 36 933 z "},"₍":{"ha":238,"x_min":0,"x_max":0,"o":"m 36 264 b 119 0 36 149 72 60 l 206 0 b 118 264 163 63 118 157 l 118 278 b 206 542 118 385 163 479 l 119 542 b 36 278 72 481 36 392 z "},"〈":{"ha":440,"x_min":0,"x_max":0,"o":"m 390 1167 l 289 1167 l 64 500 l 289 -167 l 390 -167 l 165 500 z "},")":{"ha":440,"x_min":0,"x_max":0,"o":"m 369 514 b 154 1167 369 836 271 1001 l 47 1167 b 271 514 175 988 271 813 l 271 486 b 47 -167 271 188 175 13 l 154 -167 b 369 486 271 -1 369 164 z "},"]":{"ha":440,"x_min":0,"x_max":0,"o":"m 347 -167 l 347 1167 l 58 1167 l 58 1075 l 250 1075 l 250 -75 l 58 -75 l 58 -167 z "},"}":{"ha":440,"x_min":0,"x_max":0,"o":"m 58 -167 l 83 -167 b 286 26 185 -167 286 -125 l 286 332 b 406 454 286 433 326 454 l 406 546 b 286 668 326 546 286 567 l 286 974 b 83 1167 286 1125 185 1167 l 58 1167 l 58 1075 b 189 932 140 1075 189 1046 l 189 643 b 264 500 189 567 218 522 b 189 357 218 476 189 432 l 189 68 b 58 -75 189 -46 140 -75 z "},"⁾":{"ha":238,"x_min":0,"x_max":0,"o":"m 201 819 b 118 1083 201 933 165 1022 l 33 1083 b 119 819 75 1021 119 926 l 119 806 b 33 542 119 699 75 604 l 118 542 b 201 806 165 601 201 690 z "},"₎":{"ha":238,"x_min":0,"x_max":0,"o":"m 201 278 b 118 542 201 392 165 481 l 33 542 b 119 278 75 479 119 385 l 119 264 b 33 0 119 157 75 63 l 118 0 b 201 264 165 60 201 149 z "},"〉":{"ha":440,"x_min":0,"x_max":0,"o":"m 50 -167 l 151 -167 l 376 500 l 151 1167 l 50 1167 l 275 500 z "},"«":{"ha":718,"x_min":0,"x_max":0,"o":"m 353 728 l 69 515 l 69 429 l 353 217 l 353 314 l 146 472 l 353 631 z m 649 728 l 365 515 l 365 429 l 649 217 l 649 314 l 440 472 l 649 631 z "},"‘":{"ha":300,"x_min":0,"x_max":0,"o":"m 88 814 l 213 814 l 213 939 l 146 939 b 244 1044 151 1018 186 1044 l 244 1103 b 88 914 142 1103 88 1040 z "},"‛":{"ha":300,"x_min":0,"x_max":0,"o":"m 88 1083 l 88 983 b 244 794 88 857 142 794 l 244 853 b 146 958 186 853 151 879 l 213 958 l 213 1083 z "},"“":{"ha":503,"x_min":0,"x_max":0,"o":"m 88 814 l 213 814 l 213 939 l 146 939 b 244 1044 151 1018 186 1044 l 244 1103 b 88 914 142 1103 88 1040 z m 290 814 l 415 814 l 415 939 l 349 939 b 447 1044 354 1018 389 1044 l 447 1103 b 290 914 344 1103 290 1040 z "},"‟":{"ha":503,"x_min":0,"x_max":0,"o":"m 88 1083 l 88 983 b 244 794 88 857 142 794 l 244 853 b 146 958 186 853 151 879 l 213 958 l 213 1083 z m 290 1083 l 290 983 b 447 794 290 857 344 794 l 447 853 b 349 958 389 853 354 879 l 415 958 l 415 1083 z "},"‹":{"ha":422,"x_min":0,"x_max":0,"o":"m 353 728 l 69 515 l 69 429 l 353 217 l 353 314 l 146 472 l 353 631 z "},"»":{"ha":718,"x_min":0,"x_max":0,"o":"m 69 631 l 276 472 l 69 314 l 69 217 l 353 429 l 353 515 l 69 728 z m 365 631 l 571 472 l 365 314 l 365 217 l 649 429 l 649 515 l 365 728 z "},"’":{"ha":300,"x_min":0,"x_max":0,"o":"m 213 1083 l 88 1083 l 88 958 l 153 958 b 56 853 147 879 113 853 l 56 794 b 213 983 158 794 213 857 z "},"”":{"ha":503,"x_min":0,"x_max":0,"o":"m 213 1083 l 88 1083 l 88 958 l 153 958 b 56 853 147 879 113 853 l 56 794 b 213 983 158 794 213 857 z m 415 1083 l 290 1083 l 290 958 l 356 958 b 258 853 350 879 315 853 l 258 794 b 415 983 361 794 415 857 z "},"›":{"ha":422,"x_min":0,"x_max":0,"o":"m 69 631 l 276 472 l 69 314 l 69 217 l 353 429 l 353 515 l 69 728 z "},"!":{"ha":389,"x_min":0,"x_max":0,"o":"m 104 333 l 285 333 l 292 401 l 232 501 l 251 1083 l 132 1083 l 151 493 l 97 401 z m 63 264 l 63 0 l 326 0 l 326 264 z "},"\"":{"ha":469,"x_min":0,"x_max":0,"o":"m 96 1083 l 117 710 l 185 710 l 200 1083 z m 271 1083 l 285 710 l 354 710 l 374 1083 z "},"#":{"ha":833,"x_min":0,"x_max":0,"o":"m 126 665 l 250 665 l 194 418 l 46 418 l 46 326 l 174 326 l 100 0 l 192 0 l 264 326 l 471 326 l 399 0 l 489 0 l 563 326 l 707 326 l 707 418 l 583 418 l 639 665 l 788 665 l 788 757 l 660 757 l 733 1083 l 642 1083 l 568 757 l 361 757 l 435 1083 l 344 1083 l 271 757 l 126 757 z m 340 665 l 547 665 l 492 418 l 285 418 z "},"%":{"ha":1279,"x_min":0,"x_max":0,"o":"m 461 0 l 885 1019 l 885 1085 b 626 1040 847 1068 722 1040 b 378 1083 540 1040 457 1053 b 286 1099 350 1093 318 1099 b 53 861 157 1099 53 1018 l 53 846 b 286 608 53 689 157 608 b 519 846 415 608 519 689 l 519 861 b 500 965 519 900 513 936 b 615 956 536 958 574 956 b 774 976 701 956 768 975 l 368 0 z m 438 865 l 438 842 b 290 690 438 743 371 690 l 282 690 b 135 842 201 690 135 743 l 135 865 b 282 1017 135 964 201 1017 l 290 1017 b 438 865 371 1017 438 964 z m 761 238 l 761 222 b 993 -15 761 65 865 -15 b 1226 222 1122 -15 1226 65 l 1226 238 b 993 475 1226 394 1122 475 b 761 238 865 475 761 394 z m 843 218 l 843 242 b 989 393 843 340 908 393 l 997 393 b 1144 242 1079 393 1144 340 l 1144 218 b 997 67 1144 119 1079 67 l 989 67 b 843 218 908 67 843 119 z "},"&":{"ha":972,"x_min":0,"x_max":0,"o":"m 806 183 b 875 285 832 215 856 250 l 833 406 b 844 547 840 450 844 497 l 743 547 l 743 543 b 739 447 743 508 742 476 l 649 401 b 642 383 647 396 644 389 l 586 451 l 481 475 l 389 574 b 625 860 504 649 625 724 l 625 874 b 367 1099 625 1001 536 1099 b 110 874 199 1099 110 1001 l 110 860 b 249 586 110 750 161 682 b 113 449 196 549 146 504 l 21 372 b 17 311 18 353 17 333 l 17 296 b 342 -19 17 110 133 -19 b 617 39 449 -19 539 3 l 649 0 l 956 0 z m 210 860 l 210 872 b 363 1010 210 944 261 1010 l 372 1010 b 524 872 474 1010 524 944 l 524 860 b 326 639 524 763 429 704 b 210 860 261 707 210 772 z m 393 200 l 386 200 b 279 321 317 200 279 243 l 279 328 b 286 372 279 344 282 358 l 240 458 b 311 519 261 481 285 500 l 406 417 l 406 299 l 475 213 b 393 200 450 204 422 200 z "},"'":{"ha":389,"x_min":0,"x_max":0,"o":"m 140 1083 l 161 710 l 229 710 l 250 1083 z "},"*":{"ha":540,"x_min":0,"x_max":0,"o":"m 233 1111 l 240 908 l 300 908 l 307 1111 z m 14 900 l 210 844 l 228 900 l 38 969 z m 503 969 l 313 900 l 331 844 l 525 900 z m 149 626 l 261 794 l 214 828 l 89 669 z m 450 669 l 326 828 l 278 794 l 392 626 z "},",":{"ha":389,"x_min":0,"x_max":0,"o":"m 326 56 l 326 264 l 63 264 l 63 0 l 193 0 b 63 -83 176 -54 132 -83 l 63 -208 b 326 56 236 -208 326 -118 z "},".":{"ha":389,"x_min":0,"x_max":0,"o":"m 326 0 l 326 264 l 63 264 l 63 0 z "},"/":{"ha":458,"x_min":0,"x_max":0,"o":"m 438 1167 l 340 1167 l 21 -167 l 118 -167 z "},":":{"ha":389,"x_min":0,"x_max":0,"o":"m 257 479 l 257 604 l 132 604 l 132 479 z m 326 0 l 326 264 l 63 264 l 63 0 z "},";":{"ha":389,"x_min":0,"x_max":0,"o":"m 257 479 l 257 604 l 132 604 l 132 479 z m 326 56 l 326 264 l 63 264 l 63 0 l 193 0 b 63 -83 176 -54 132 -83 l 63 -208 b 326 56 236 -208 326 -118 z "},"?":{"ha":708,"x_min":0,"x_max":0,"o":"m 354 1008 b 525 800 488 1008 525 929 b 393 529 525 689 453 619 l 256 404 b 257 333 254 382 254 358 l 433 333 l 417 414 b 626 810 485 553 626 596 b 354 1099 626 983 549 1099 b 69 717 128 1099 69 933 l 69 700 l 168 700 b 354 1008 168 890 208 1008 z m 215 0 l 479 0 l 479 264 l 215 264 z "},"@":{"ha":1389,"x_min":0,"x_max":0,"o":"m 726 -133 l 718 -133 b 201 372 415 -133 203 29 l 142 440 b 706 1022 146 808 376 1022 l 714 1022 b 1224 539 978 1022 1224 886 l 1224 497 b 1221 425 1224 471 1222 447 l 1169 372 l 1171 372 b 989 247 1149 288 1096 254 l 989 372 l 938 457 l 938 532 l 946 736 l 871 736 l 857 635 b 642 751 819 697 750 751 b 369 426 449 751 369 596 l 369 404 l 347 372 b 600 64 351 188 439 64 b 786 160 690 64 749 103 l 801 83 l 972 83 b 1342 372 1153 83 1299 153 l 1304 440 b 1306 497 1306 458 1306 478 l 1306 539 b 710 1099 1306 919 1033 1099 b 63 431 326 1099 63 851 l 63 418 l 35 372 b 722 -297 36 -64 325 -297 b 1279 -107 885 -297 1078 -267 l 1185 21 b 726 -133 1049 -79 894 -133 z m 767 311 b 671 260 754 292 721 260 b 581 372 611 260 583 300 l 467 456 b 663 668 475 578 535 668 b 847 557 756 668 817 604 l 847 431 l 767 372 z "},"\\":{"ha":457,"x_min":0,"x_max":0,"o":"m 340 -167 l 438 -167 l 118 1167 l 21 1167 z "},"¡":{"ha":300,"x_min":0,"x_max":0,"o":"m 88 611 l 213 611 l 213 736 l 88 736 z m 210 -278 l 183 474 l 117 474 l 90 -278 z "},"·":{"ha":301,"x_min":0,"x_max":0,"o":"m 211 547 l 90 547 l 90 425 l 211 425 z "},"¿":{"ha":632,"x_min":0,"x_max":0,"o":"m 256 611 l 381 611 l 381 736 l 256 736 z m 311 -203 b 140 -31 189 -203 140 -136 b 350 474 140 161 360 229 l 285 474 b 39 -40 275 229 39 235 b 311 -293 39 -190 128 -293 b 596 67 538 -293 596 -137 l 596 83 l 496 83 b 311 -203 496 -94 457 -203 z "},"‖":{"ha":454,"x_min":0,"x_max":0,"o":"m 92 -167 l 189 -167 l 189 1167 l 92 1167 z m 265 -167 l 363 -167 l 363 1167 l 265 1167 z "},"†":{"ha":540,"x_min":0,"x_max":0,"o":"m 233 1111 l 240 908 l 300 908 l 307 1111 z m 29 824 l 221 831 l 221 889 l 29 896 z m 510 896 l 319 889 l 319 831 l 510 824 z m 233 636 l 240 460 l 300 460 l 307 636 l 300 811 l 240 811 z "},"‡":{"ha":540,"x_min":0,"x_max":0,"o":"m 233 1111 l 240 908 l 300 908 l 307 1111 z m 29 824 l 221 831 l 221 889 l 29 896 z m 510 896 l 319 889 l 319 831 l 510 824 z m 233 710 l 240 608 l 300 608 l 307 710 l 300 811 l 240 811 z m 29 522 l 221 529 l 221 589 l 29 596 z m 510 596 l 319 589 l 319 529 l 510 522 z m 233 335 l 240 160 l 300 160 l 307 335 l 300 510 l 240 510 z "},"•":{"ha":551,"x_min":0,"x_max":0,"o":"m 457 668 l 94 668 l 94 304 l 457 304 z "},"…":{"ha":1389,"x_min":0,"x_max":0,"o":"m 310 125 l 185 125 l 185 0 l 310 0 z m 757 125 l 632 125 l 632 0 l 757 0 z m 1204 125 l 1079 125 l 1079 0 l 1204 0 z "},"‰":{"ha":1835,"x_min":0,"x_max":0,"o":"m 461 0 l 885 1019 l 885 1085 b 626 1040 847 1068 722 1040 b 378 1083 540 1040 457 1053 b 286 1099 350 1093 318 1099 b 53 861 157 1099 53 1018 l 53 846 b 286 608 53 689 157 608 b 519 846 415 608 519 689 l 519 861 b 500 965 519 900 513 936 b 615 956 536 958 574 956 b 774 976 701 956 768 975 l 368 0 z m 438 865 l 438 842 b 290 690 438 743 371 690 l 282 690 b 135 842 201 690 135 743 l 135 865 b 282 1017 135 964 201 1017 l 290 1017 b 438 865 371 1017 438 964 z m 761 238 l 761 222 b 993 -15 761 65 865 -15 b 1226 222 1122 -15 1226 65 l 1226 238 b 993 475 1226 394 1122 475 b 761 238 865 475 761 394 z m 1317 238 l 1317 222 b 1549 -15 1317 65 1421 -15 b 1782 222 1678 -15 1782 65 l 1782 238 b 1549 475 1782 394 1678 475 b 1317 238 1421 475 1317 394 z m 843 218 l 843 242 b 989 393 843 340 908 393 l 997 393 b 1144 242 1079 393 1144 340 l 1144 218 b 997 67 1144 119 1079 67 l 989 67 b 843 218 908 67 843 119 z m 1399 218 l 1399 242 b 1544 393 1399 340 1464 393 l 1553 393 b 1700 242 1635 393 1700 340 l 1700 218 b 1553 67 1700 119 1635 67 l 1544 67 b 1399 218 1464 67 1399 119 z "},"‴":{"ha":639,"x_min":0,"x_max":0,"o":"m 96 1083 l 117 710 l 185 710 l 200 1083 z m 271 1083 l 285 710 l 354 710 l 368 1083 z m 439 1083 l 453 710 l 522 710 l 543 1083 z "},"‽":{"ha":632,"x_min":0,"x_max":0,"o":"m 347 263 b 593 810 357 542 593 533 b 321 1099 593 983 515 1099 b 36 717 94 1099 36 933 l 36 700 l 135 700 b 264 1001 135 863 164 972 l 288 263 z m 492 800 b 347 493 492 674 406 603 l 364 1006 b 492 800 463 989 492 914 z m 376 125 l 251 125 l 251 0 l 376 0 z "},"+":{"ha":833,"x_min":0,"x_max":0,"o":"m 371 892 l 371 588 l 67 588 l 67 496 l 371 496 l 371 192 l 463 192 l 463 496 l 767 496 l 767 588 l 463 588 l 463 892 z "},"<":{"ha":833,"x_min":0,"x_max":0,"o":"m 67 590 l 67 493 l 767 167 l 767 267 l 164 542 l 767 817 l 767 917 z "},"=":{"ha":833,"x_min":0,"x_max":0,"o":"m 67 638 l 767 638 l 767 729 l 67 729 z m 67 354 l 767 354 l 767 446 l 67 446 z "},">":{"ha":833,"x_min":0,"x_max":0,"o":"m 767 590 l 67 917 l 67 817 l 668 542 l 67 267 l 67 167 l 767 493 z "},"|":{"ha":279,"x_min":0,"x_max":0,"o":"m 92 -167 l 189 -167 l 189 1167 l 92 1167 z "},"~":{"ha":833,"x_min":0,"x_max":0,"o":"m 246 626 b 51 521 147 626 85 567 l 107 465 b 243 543 132 497 182 543 b 588 444 367 543 440 444 b 782 550 686 444 749 506 l 726 606 b 590 528 701 575 651 528 b 246 626 467 528 393 626 z "},"¬":{"ha":833,"x_min":0,"x_max":0,"o":"m 67 681 l 675 681 l 675 296 l 767 296 l 767 774 l 67 774 z "},"±":{"ha":833,"x_min":0,"x_max":0,"o":"m 371 901 l 371 708 l 67 708 l 67 615 l 371 615 l 371 422 l 463 422 l 463 615 l 767 615 l 767 708 l 463 708 l 463 901 z m 67 224 l 767 224 l 767 315 l 67 315 z "},"×":{"ha":833,"x_min":0,"x_max":0,"o":"m 115 175 l 417 476 l 718 175 l 783 240 l 482 542 l 783 843 l 718 908 l 417 607 l 115 908 l 50 843 l 351 542 l 50 240 z "},"÷":{"ha":833,"x_min":0,"x_max":0,"o":"m 478 904 l 356 904 l 356 782 l 478 782 z m 67 496 l 767 496 l 767 588 l 67 588 z m 478 301 l 356 301 l 356 179 l 478 179 z "},"⁄":{"ha":278,"x_min":0,"x_max":0,"o":"m -217 0 l 583 1083 l 494 1083 l -306 0 z "},"⁺":{"ha":417,"x_min":0,"x_max":0,"o":"m 171 990 l 171 849 l 31 849 l 31 775 l 171 775 l 171 635 l 244 635 l 244 775 l 386 775 l 386 849 l 244 849 l 244 990 z "},"⁻":{"ha":417,"x_min":0,"x_max":0,"o":"m 31 775 l 386 775 l 386 849 l 31 849 z "},"⁼":{"ha":417,"x_min":0,"x_max":0,"o":"m 31 849 l 386 849 l 386 922 l 31 922 z m 31 701 l 386 701 l 386 776 l 31 776 z "},"₊":{"ha":417,"x_min":0,"x_max":0,"o":"m 171 449 l 171 307 l 31 307 l 31 233 l 171 233 l 171 93 l 244 93 l 244 233 l 386 233 l 386 307 l 244 307 l 244 449 z "},"₋":{"ha":417,"x_min":0,"x_max":0,"o":"m 31 233 l 386 233 l 386 307 l 31 307 z "},"₌":{"ha":417,"x_min":0,"x_max":0,"o":"m 31 307 l 386 307 l 386 381 l 31 381 z m 31 160 l 386 160 l 386 235 l 31 235 z "},"←":{"ha":1278,"x_min":0,"x_max":0,"o":"m 624 1083 l 82 542 l 624 0 l 753 0 l 257 496 l 1181 496 l 1181 588 l 257 588 l 753 1083 z "},"↑":{"ha":1278,"x_min":0,"x_max":0,"o":"m 97 428 l 593 924 l 593 0 l 685 0 l 685 924 l 1181 428 l 1181 557 l 639 1099 l 97 557 z "},"→":{"ha":1278,"x_min":0,"x_max":0,"o":"m 525 1083 l 1021 588 l 97 588 l 97 496 l 1021 496 l 525 0 l 654 0 l 1196 542 l 654 1083 z "},"↓":{"ha":1278,"x_min":0,"x_max":0,"o":"m 97 526 l 639 -15 l 1181 526 l 1181 656 l 685 160 l 685 1083 l 593 1083 l 593 160 l 97 656 z "},"−":{"ha":833,"x_min":0,"x_max":0,"o":"m 67 496 l 767 496 l 767 588 l 67 588 z "},"≈":{"ha":833,"x_min":0,"x_max":0,"o":"m 246 768 b 51 663 147 768 85 708 l 107 607 b 243 685 132 639 182 685 b 588 586 367 685 440 586 b 782 692 686 586 749 647 l 726 747 b 590 669 701 717 651 669 b 246 768 467 669 393 768 z m 246 485 b 51 379 147 485 85 425 l 107 324 b 243 401 132 356 182 401 b 588 303 367 401 440 303 b 782 408 686 303 749 364 l 726 464 b 590 386 701 432 651 386 b 246 485 467 386 393 485 z "},"≠":{"ha":833,"x_min":0,"x_max":0,"o":"m 67 638 l 431 638 l 319 446 l 67 446 l 67 354 l 267 354 l 168 182 l 251 182 l 350 354 l 767 354 l 767 446 l 403 446 l 513 638 l 767 638 l 767 729 l 565 729 l 665 901 l 582 901 l 483 729 l 67 729 z "},"≡":{"ha":833,"x_min":0,"x_max":0,"o":"m 67 779 l 767 779 l 767 871 l 67 871 z m 67 496 l 767 496 l 767 588 l 67 588 z m 67 213 l 767 213 l 767 304 l 67 304 z "},"≤":{"ha":833,"x_min":0,"x_max":0,"o":"m 767 826 l 767 926 l 67 685 l 67 588 l 767 346 l 767 444 l 194 635 z m 767 233 l 67 475 l 67 399 l 767 157 z "},"≥":{"ha":833,"x_min":0,"x_max":0,"o":"m 67 444 l 67 346 l 767 588 l 767 685 l 67 926 l 67 826 l 638 635 z m 67 157 l 767 399 l 767 475 l 67 233 z "},"⊠":{"ha":1278,"x_min":0,"x_max":0,"o":"m 1181 0 l 1181 1083 l 97 1083 l 97 0 z m 1092 994 l 1092 89 l 186 89 l 186 994 z m 356 192 l 639 475 l 922 192 l 989 258 l 706 542 l 989 825 l 922 892 l 639 608 l 356 892 l 289 825 l 572 542 l 289 258 z "},"$":{"ha":833,"x_min":0,"x_max":0,"o":"m 604 1167 l 519 1167 l 481 1006 b 417 1010 461 1008 439 1010 b 99 760 228 1010 99 914 l 99 750 b 364 517 99 629 171 547 l 286 192 b 186 381 222 228 186 293 l 88 381 l 88 371 b 265 101 88 247 149 149 l 221 -83 l 306 -83 l 344 79 b 428 74 369 75 397 74 b 746 335 626 74 746 175 l 746 346 b 465 588 746 488 656 560 l 540 899 b 639 689 607 864 639 793 l 736 689 l 736 711 b 561 988 736 849 681 947 z m 199 760 l 199 767 b 414 924 199 865 294 924 l 419 924 b 461 921 433 924 447 922 l 383 599 b 199 760 247 624 199 675 z m 431 160 l 426 160 b 364 165 404 160 383 161 l 446 506 b 644 336 581 483 644 439 l 644 329 b 431 160 644 222 560 160 z "},"¢":{"ha":833,"x_min":0,"x_max":0,"o":"m 603 1167 l 517 1167 l 478 1007 b 435 1010 464 1008 450 1010 b 86 561 203 1010 86 853 l 86 522 b 265 114 86 315 146 176 l 218 -83 l 304 -83 l 344 85 b 435 76 372 79 401 76 b 747 374 651 76 747 200 l 747 392 l 649 392 b 439 167 649 258 590 167 l 435 167 b 365 174 410 167 386 168 l 539 900 b 649 663 615 865 649 786 l 747 663 l 747 696 b 561 992 747 839 689 950 z m 188 522 l 188 561 b 435 918 188 799 272 918 l 439 918 b 457 917 444 918 451 917 l 289 213 b 188 522 221 268 188 371 z "},"£":{"ha":833,"x_min":0,"x_max":0,"o":"m 456 1008 b 663 694 601 1008 663 885 l 761 694 l 761 711 b 456 1099 761 933 681 1099 b 161 801 261 1099 161 976 b 189 578 161 721 172 649 l 78 578 l 78 488 l 214 488 b 307 92 250 360 296 236 l 78 92 l 78 0 l 756 0 l 756 92 l 393 92 b 319 488 388 233 351 365 l 574 488 l 574 578 l 294 578 b 263 792 276 653 263 725 b 456 1008 263 924 322 1008 z "},"¥":{"ha":833,"x_min":0,"x_max":0,"o":"m 61 575 l 263 575 l 350 389 l 61 389 l 61 297 l 367 297 l 367 0 l 467 0 l 467 297 l 772 297 l 772 389 l 482 389 l 569 575 l 772 575 l 772 667 l 613 667 l 810 1083 l 700 1083 l 417 469 l 133 1083 l 24 1083 l 219 667 l 61 667 z "},"€":{"ha":833,"x_min":0,"x_max":0,"o":"m 150 410 b 479 -15 171 110 281 -15 b 768 333 683 -15 768 111 l 768 347 l 678 347 b 488 75 678 168 613 75 l 478 75 b 254 410 350 75 271 175 l 524 410 l 568 500 l 250 500 l 250 583 l 579 583 l 624 674 l 254 674 b 478 1008 271 907 350 1008 l 488 1008 b 678 694 624 1008 678 918 l 768 694 l 768 733 b 479 1099 768 972 689 1099 b 150 674 281 1099 171 974 l 47 674 l 47 583 l 147 583 l 147 500 l 47 500 l 47 410 z "},"^":{"ha":833,"x_min":0,"x_max":0,"o":"m 465 1083 l 368 1083 l 42 383 l 142 383 l 417 985 l 692 383 l 792 383 z "},"`":{"ha":694,"x_min":0,"x_max":0,"o":"m 167 1083 l 297 853 l 397 853 l 272 1083 z "},"¨":{"ha":694,"x_min":0,"x_max":0,"o":"m 292 1035 l 171 1035 l 171 913 l 292 913 z m 524 1035 l 403 1035 l 403 913 l 524 913 z "},"¯":{"ha":694,"x_min":0,"x_max":0,"o":"m 185 922 l 510 922 l 510 1014 l 185 1014 z "},"´":{"ha":694,"x_min":0,"x_max":0,"o":"m 422 1083 l 297 853 l 397 853 l 528 1083 z "},"¸":{"ha":836,"x_min":0,"x_max":0,"o":"m 225 -265 b 353 -293 253 -283 301 -293 b 496 -185 438 -293 496 -262 b 357 -78 496 -107 425 -78 l 351 -78 l 381 0 l 314 0 l 271 -111 l 297 -143 b 338 -139 297 -143 317 -139 b 424 -182 390 -139 424 -150 b 343 -225 424 -215 397 -225 b 246 -204 307 -225 269 -217 z "},"˘":{"ha":694,"x_min":0,"x_max":0,"o":"m 347 838 b 571 1083 506 838 572 939 l 492 1083 b 347 919 492 985 450 919 b 203 1083 244 919 203 985 l 124 1083 b 347 838 122 939 189 838 z "},"˙":{"ha":694,"x_min":0,"x_max":0,"o":"m 408 1035 l 286 1035 l 286 913 l 408 913 z "},"˚":{"ha":694,"x_min":0,"x_max":0,"o":"m 217 968 b 347 838 217 896 275 838 b 478 968 419 838 478 896 b 347 1099 478 1040 419 1099 b 217 968 275 1099 217 1040 z m 269 968 b 347 1046 269 1011 304 1046 b 425 968 390 1046 425 1011 b 347 890 425 925 390 890 b 269 968 304 890 269 925 z "},"˛":{"ha":836,"x_min":0,"x_max":0,"o":"m 278 -143 b 393 0 278 -72 332 -26 l 369 58 b 194 -157 282 26 194 -46 b 346 -293 194 -253 256 -293 b 469 -265 390 -293 440 -283 l 443 -193 b 356 -212 422 -204 389 -212 b 278 -143 306 -212 278 -183 z "},"˜":{"ha":694,"x_min":0,"x_max":0,"o":"m 488 1036 b 438 976 488 990 465 976 b 243 1051 382 976 329 1051 b 131 908 176 1051 131 1007 l 207 908 b 257 968 207 954 229 968 b 451 893 313 968 365 893 b 564 1036 518 893 564 938 z "},"˝":{"ha":694,"x_min":0,"x_max":0,"o":"m 335 1083 l 218 853 l 306 853 l 428 1083 z m 514 1083 l 389 853 l 476 853 l 608 1083 z "},"¦":{"ha":279,"x_min":0,"x_max":0,"o":"m 92 550 l 189 550 l 189 1167 l 92 1167 z m 92 -167 l 189 -167 l 189 450 l 92 450 z "},"§":{"ha":713,"x_min":0,"x_max":0,"o":"m 654 540 l 654 549 b 390 756 654 686 575 740 b 196 889 232 768 196 813 b 371 1017 196 969 261 1017 b 550 846 508 1017 550 950 l 647 846 l 647 851 b 371 1099 647 996 572 1099 b 97 889 199 1099 97 1017 l 97 881 b 183 722 97 813 119 757 b 57 543 100 689 57 626 l 57 535 b 322 328 57 397 138 343 b 517 194 481 315 517 271 b 340 67 517 114 451 67 b 163 238 204 67 163 133 l 65 238 l 65 232 b 340 -15 65 88 139 -15 b 615 194 514 -15 615 67 l 615 203 b 528 361 615 271 592 325 b 654 540 611 393 654 456 z m 554 542 b 367 403 554 457 489 403 l 361 403 b 158 542 219 413 158 440 b 346 681 158 626 224 681 l 350 681 b 554 542 493 671 554 643 z "},"©":{"ha":1278,"x_min":0,"x_max":0,"o":"m 82 542 b 639 -15 82 235 332 -15 b 1196 542 946 -15 1196 235 b 639 1099 1196 849 946 1099 b 82 542 332 1099 82 849 z m 142 542 b 639 1039 142 817 364 1039 b 1136 542 914 1039 1136 817 b 639 44 1136 267 914 44 b 142 542 364 44 142 267 z m 640 286 b 444 525 497 286 444 407 l 444 558 b 640 797 444 676 497 797 b 814 638 772 797 814 717 l 904 638 l 904 661 b 639 883 904 749 838 883 b 350 558 429 883 350 711 l 350 525 b 639 200 350 372 429 200 b 904 414 838 200 904 329 l 904 432 l 814 432 b 640 286 814 369 776 286 z "},"®":{"ha":458,"x_min":0,"x_max":0,"o":"m 26 924 b 229 721 26 813 118 721 b 432 924 340 721 432 813 b 229 1126 432 1035 340 1126 b 26 924 118 1126 26 1035 z m 60 924 b 229 1093 60 1017 136 1093 b 399 924 322 1093 399 1017 b 229 754 399 831 322 754 b 60 924 136 754 60 831 z m 318 963 l 318 972 b 240 1043 318 1019 285 1043 l 140 1043 l 140 804 l 189 804 l 189 892 l 231 892 l 268 804 l 318 804 l 276 897 b 318 963 301 907 318 928 z m 269 969 l 269 965 b 231 932 269 942 256 932 l 189 932 l 189 1001 l 231 1001 b 269 969 256 1001 269 992 z "},"°":{"ha":556,"x_min":0,"x_max":0,"o":"m 490 888 b 278 1099 490 1018 399 1099 b 65 888 157 1099 65 1018 l 65 882 b 278 672 65 751 157 672 b 490 882 399 672 490 751 z m 417 881 b 282 746 417 797 356 746 l 274 746 b 139 881 200 746 139 797 l 139 890 b 274 1024 139 974 200 1024 l 282 1024 b 417 890 356 1024 417 974 z "},"¶":{"ha":713,"x_min":0,"x_max":0,"o":"m 521 0 l 621 0 l 621 1083 l 382 1083 b 50 775 226 1083 50 1025 l 50 747 b 368 440 50 506 215 443 l 368 0 l 465 0 l 465 993 l 521 993 z m 153 751 l 153 772 b 368 993 153 951 275 990 l 368 531 b 153 751 275 533 153 572 z "},"№":{"ha":1496,"x_min":0,"x_max":0,"o":"m 1440 799 l 1440 826 b 1206 1099 1440 981 1369 1099 b 971 826 1043 1099 971 981 l 971 799 b 1206 526 971 646 1043 526 b 1440 799 1369 526 1440 646 z m 813 1083 l 718 1083 l 718 421 l 722 169 l 211 1083 l 103 1083 l 103 0 l 197 0 l 197 663 l 192 914 l 704 0 l 813 0 z m 1060 799 l 1060 826 b 1206 1021 1060 944 1104 1021 b 1351 826 1307 1021 1351 944 l 1351 799 b 1206 604 1351 682 1307 604 b 1060 799 1104 604 1060 682 z m 982 294 l 1431 294 l 1431 374 l 982 374 z "},"℗":{"ha":1278,"x_min":0,"x_max":0,"o":"m 82 542 b 639 -15 82 235 332 -15 b 1196 542 946 -15 1196 235 b 639 1099 1196 849 946 1099 b 82 542 332 1099 82 849 z m 142 542 b 639 1039 142 817 364 1039 b 1136 542 914 1039 1136 817 b 639 44 1136 267 914 44 b 142 542 364 44 142 267 z m 511 475 l 671 475 b 876 664 768 475 876 511 l 876 681 b 671 868 876 832 768 868 l 418 868 l 418 215 l 511 215 z m 511 550 l 511 793 l 660 793 b 783 676 715 793 783 775 l 783 667 b 660 550 783 569 715 550 z "},"℠":{"ha":726,"x_min":0,"x_max":0,"o":"m 140 901 b 218 839 199 893 218 875 l 218 836 b 154 778 218 799 200 778 l 151 778 b 83 863 101 778 83 807 l 25 863 l 25 857 b 151 725 25 772 67 725 b 278 840 235 725 278 771 l 278 846 b 163 953 278 908 244 942 b 88 1011 103 960 88 978 l 88 1015 b 150 1065 88 1047 110 1065 l 153 1065 b 215 981 201 1065 215 1040 l 274 981 l 274 992 b 151 1118 274 1075 242 1118 b 29 1011 74 1118 29 1076 l 29 1006 b 140 901 29 946 57 913 z m 599 1019 l 596 926 l 596 736 l 654 736 l 654 1111 l 565 1111 l 489 829 l 413 1111 l 325 1111 l 325 736 l 383 736 l 383 926 l 381 1019 l 457 736 l 522 736 z "},"™":{"ha":726,"x_min":0,"x_max":0,"o":"m 182 1058 l 279 1058 l 279 1111 l 26 1111 l 26 1058 l 124 1058 l 124 736 l 182 736 z m 599 1019 l 596 926 l 596 736 l 654 736 l 654 1111 l 565 1111 l 489 829 l 413 1111 l 325 1111 l 325 736 l 383 736 l 383 926 l 381 1019 l 457 736 l 522 736 z "},"↖":{"ha":1278,"x_min":0,"x_max":0,"o":"m 189 0 l 189 926 l 1131 -15 l 1196 50 l 254 992 l 1181 992 l 1181 1083 l 97 1083 l 97 0 z "},"↗":{"ha":1278,"x_min":0,"x_max":0,"o":"m 1181 0 l 1181 1083 l 97 1083 l 97 992 l 1024 992 l 82 50 l 147 -15 l 1089 926 l 1089 0 z "},"↘":{"ha":1278,"x_min":0,"x_max":0,"o":"m 97 0 l 1181 0 l 1181 1083 l 1089 1083 l 1089 157 l 147 1099 l 82 1033 l 1024 92 l 97 92 z "},"↙":{"ha":1278,"x_min":0,"x_max":0,"o":"m 1181 92 l 254 92 l 1196 1033 l 1131 1099 l 189 157 l 189 1083 l 97 1083 l 97 0 l 1181 0 z "},"⌂":{"ha":1181,"x_min":0,"x_max":0,"o":"m 1083 0 l 1083 625 l 590 1097 l 97 625 l 97 0 z "},"□":{"ha":1278,"x_min":0,"x_max":0,"o":"m 1181 0 l 1181 1083 l 97 1083 l 97 0 z m 1092 994 l 1092 89 l 186 89 l 186 994 z "},"▪":{"ha":944,"x_min":0,"x_max":0,"o":"m 833 0 l 833 736 l 97 736 l 97 0 z "},"▫":{"ha":944,"x_min":0,"x_max":0,"o":"m 97 736 l 97 0 l 833 0 l 833 736 z m 744 647 l 744 89 l 186 89 l 186 647 z "},"▲":{"ha":1292,"x_min":0,"x_max":0,"o":"m 694 1099 l 597 1099 l 89 0 l 189 0 l 646 994 l 1103 0 l 1203 0 z "},"►":{"ha":1292,"x_min":0,"x_max":0,"o":"m 1210 590 l 111 1099 l 111 999 l 1106 542 l 111 85 l 111 -15 l 1210 493 z "},"▼":{"ha":1292,"x_min":0,"x_max":0,"o":"m 597 -15 l 694 -15 l 1203 1083 l 1103 1083 l 646 89 l 189 1083 l 89 1083 z "},"◄":{"ha":1292,"x_min":0,"x_max":0,"o":"m 82 590 l 82 493 l 1181 -15 l 1181 85 l 186 542 l 1181 999 l 1181 1099 z "},"●":{"ha":1278,"x_min":0,"x_max":0,"o":"m 82 542 b 639 -15 82 235 332 -15 b 1196 542 946 -15 1196 235 b 639 1099 1196 849 946 1099 b 82 542 332 1099 82 849 z "},"◢":{"ha":1292,"x_min":0,"x_max":0,"o":"m 1215 33 l 799 1169 l 728 1099 l 1108 72 l 82 453 l 11 382 l 1147 -35 z "},"◣":{"ha":1292,"x_min":0,"x_max":0,"o":"m 76 33 l 144 -35 l 1281 382 l 1210 453 l 183 72 l 564 1099 l 493 1169 z "},"◤":{"ha":1292,"x_min":0,"x_max":0,"o":"m 76 1050 l 493 -86 l 564 -15 l 183 1010 l 1210 631 l 1281 701 l 144 1118 l 110 1085 z "},"◥":{"ha":1292,"x_min":0,"x_max":0,"o":"m 1182 1085 l 1147 1118 l 11 701 l 82 631 l 1107 1010 l 728 -15 l 799 -86 l 1215 1050 z "},"◯":{"ha":1278,"x_min":0,"x_max":0,"o":"m 82 542 b 639 -15 82 235 332 -15 b 1196 542 946 -15 1196 235 b 639 1099 1196 849 946 1099 b 82 542 332 1099 82 849 z m 172 542 b 639 1008 172 800 381 1008 b 1106 542 897 1008 1106 800 b 639 75 1106 283 897 75 b 172 542 381 75 172 283 z "},"★":{"ha":1222,"x_min":0,"x_max":0,"o":"m 611 250 l 972 -14 l 835 413 l 1196 675 l 749 675 l 611 1100 l 474 675 l 26 675 l 388 413 l 250 -14 z "},"☒":{"ha":944,"x_min":0,"x_max":0,"o":"m 833 0 l 833 736 l 97 736 l 97 0 z m 744 647 l 744 89 l 186 89 l 186 647 z m 356 192 l 465 301 l 575 192 l 642 258 l 532 368 l 642 478 l 575 544 l 465 435 l 356 544 l 289 478 l 399 368 l 289 258 z "},"☼":{"ha":1333,"x_min":0,"x_max":0,"o":"m 724 265 b 776 132 732 260 776 196 b 872 33 776 76 819 33 b 911 44 888 33 899 38 b 844 126 911 44 844 51 b 856 213 844 150 856 188 b 819 304 856 268 824 300 l 1058 147 l 901 386 b 1033 329 935 386 993 369 b 1104 300 1053 310 1078 300 b 1190 364 1142 300 1178 321 b 1142 347 1190 364 1171 347 b 1033 442 1086 347 1074 397 b 942 482 996 482 947 482 l 1222 540 l 942 599 b 1075 651 947 607 1011 651 b 1174 747 1131 651 1174 694 b 1163 786 1174 763 1169 774 b 1081 719 1163 786 1156 719 b 994 731 1057 719 1019 731 b 903 694 939 731 907 699 l 1060 933 l 821 776 b 878 908 821 810 838 868 b 907 979 897 928 907 953 b 843 1065 907 1017 886 1053 b 860 1017 843 1065 860 1046 b 765 908 860 961 810 949 b 725 817 725 871 725 822 l 667 1097 l 608 817 b 556 950 600 822 556 886 b 460 1049 556 1006 513 1049 b 421 1038 444 1049 433 1044 b 488 956 421 1038 488 1031 b 476 869 488 932 476 894 b 513 778 476 814 508 782 l 274 935 l 431 696 b 299 753 397 696 339 713 b 228 782 279 772 254 782 b 142 718 190 782 154 761 b 190 735 142 718 161 735 b 299 640 246 735 258 685 b 390 600 336 600 385 600 l 110 542 l 390 483 b 257 431 385 475 321 431 b 158 335 201 431 158 388 b 169 296 158 319 163 308 b 251 363 169 296 176 363 b 338 351 275 363 313 351 b 429 388 393 351 425 383 l 272 149 l 511 306 b 454 174 511 272 494 214 b 425 103 435 154 425 129 b 489 17 425 65 446 29 b 472 65 489 17 472 36 b 567 174 472 121 522 133 b 607 265 607 211 607 260 l 665 -15 z "},"☾":{"ha":1333,"x_min":0,"x_max":0,"o":"m 867 1011 b 1000 990 913 1011 957 1003 b 667 1097 906 1057 789 1097 b 111 542 360 1097 111 849 b 667 -14 111 235 360 -14 b 1000 93 789 -14 906 25 b 867 72 957 79 913 72 b 417 542 618 72 417 282 b 867 1011 417 801 618 1011 z "},"♠":{"ha":1250,"x_min":0,"x_max":0,"o":"m 626 1097 l 624 1097 b 300 778 578 1028 447 874 b 72 464 179 699 72 608 b 317 222 72 328 181 222 b 594 446 454 222 547 331 l 599 444 b 485 0 583 257 554 139 l 765 0 b 651 444 696 139 667 257 l 656 446 b 933 222 703 331 796 222 b 1178 464 1069 222 1178 328 b 950 778 1178 608 1071 699 b 626 1097 803 874 672 1028 z "},"♣":{"ha":1250,"x_min":0,"x_max":0,"o":"m 485 0 l 765 0 b 651 444 696 139 667 257 l 656 446 b 933 222 703 331 796 222 b 1178 464 1069 222 1178 328 b 936 714 1178 608 1081 714 b 819 682 889 714 851 699 l 817 685 b 869 847 847 731 869 786 b 625 1097 869 985 765 1097 b 381 847 485 1097 381 985 b 433 685 381 786 403 731 l 431 682 b 314 714 399 699 361 714 b 72 464 169 714 72 608 b 317 222 72 328 181 222 b 594 446 454 222 547 331 l 599 444 b 485 0 583 257 554 139 z "},"♥":{"ha":1250,"x_min":0,"x_max":0,"o":"m 626 -14 b 950 393 672 56 803 226 b 1178 811 1046 501 1178 667 b 913 1097 1178 975 1076 1097 b 628 879 740 1097 668 994 l 622 879 b 338 1097 582 994 510 1097 b 72 811 174 1097 72 975 b 300 393 72 667 204 501 b 624 -14 447 226 578 56 z "},"♦":{"ha":1250,"x_min":0,"x_max":0,"o":"m 1135 542 b 626 1097 938 696 750 901 l 624 1097 b 115 542 500 901 313 696 b 624 -14 313 388 500 182 l 626 -14 b 1135 542 750 182 938 388 z "},"♻":{"ha":1333,"x_min":0,"x_max":0,"o":"m 561 1082 b 688 1003 561 1082 646 1075 l 788 829 l 731 796 l 971 753 l 1056 983 l 996 950 l 957 1018 b 829 1083 921 1081 882 1082 l 561 1083 z m 278 831 l 486 711 l 647 990 b 418 1039 618 1043 500 1088 b 371 996 396 1026 378 1008 z m 1119 732 l 913 613 l 1074 333 b 1229 508 1132 333 1231 413 b 1215 569 1229 533 1222 557 z m 258 169 b 264 319 258 169 222 249 b 364 493 267 326 364 493 l 421 460 l 339 690 l 97 647 l 156 614 l 117 546 b 122 403 79 483 99 447 l 256 169 z m 1199 369 b 1067 297 1199 369 1149 297 l 865 297 l 865 365 l 708 178 l 865 -11 l 865 57 l 944 57 b 1067 135 1018 57 1038 92 l 1200 367 z m 619 57 l 619 297 l 297 297 b 371 75 267 246 286 124 b 432 57 392 63 417 57 z "},"♼":{"ha":1333,"x_min":0,"x_max":0,"o":"m 89 542 b 639 -8 89 238 335 -8 b 1189 542 943 -8 1189 238 b 639 1092 1189 846 943 1092 b 89 542 335 1092 89 846 z m 547 964 l 756 964 b 854 913 796 964 826 961 l 885 860 l 931 886 l 865 707 l 679 740 l 724 767 l 646 901 b 547 963 614 956 547 963 z m 406 896 b 442 929 411 906 425 919 b 619 892 506 967 597 932 l 494 675 l 333 768 z m 1060 565 b 1071 518 1065 556 1071 538 b 950 382 1072 443 996 382 l 825 599 l 986 692 z m 317 256 l 213 436 b 208 547 194 471 179 499 l 239 600 l 193 626 l 381 660 l 444 481 l 400 507 l 322 372 b 318 256 290 317 318 256 z m 1049 408 l 944 228 b 850 168 925 194 907 168 l 789 168 l 789 115 l 667 261 l 789 407 l 789 354 l 944 354 b 1047 410 1008 354 1047 410 z m 447 168 b 400 182 436 168 417 172 b 343 354 335 219 319 314 l 593 354 l 593 168 z "},"♽":{"ha":1333,"x_min":0,"x_max":0,"o":"m 83 542 b 639 -14 83 235 332 -14 b 1194 542 946 -14 1194 235 b 639 1097 1194 849 946 1097 b 83 542 332 1097 83 849 z m 136 542 b 639 1044 136 819 361 1044 b 1142 542 917 1044 1142 819 b 639 39 1142 264 917 39 b 136 542 361 39 136 264 z m 547 963 b 646 901 547 963 614 956 l 724 767 l 679 740 l 865 707 l 931 886 l 885 860 l 854 913 b 756 964 826 961 796 964 l 547 964 z m 333 768 l 494 675 l 619 892 b 442 929 597 932 506 967 b 406 896 425 919 411 906 z m 986 692 l 825 599 l 950 382 b 1071 518 996 382 1072 443 b 1060 565 1071 538 1065 556 z m 318 256 b 322 372 318 256 290 317 l 400 507 l 444 481 l 381 660 l 193 626 l 239 600 l 208 547 b 213 436 179 499 194 471 l 317 256 z m 1047 410 b 944 354 1047 410 1008 354 l 789 354 l 789 407 l 667 261 l 789 115 l 789 168 l 850 168 b 944 228 907 168 925 194 l 1049 408 z m 593 168 l 593 354 l 343 354 b 400 182 319 314 335 219 b 447 168 417 172 436 168 z "},"⚪":{"ha":931,"x_min":0,"x_max":0,"o":"m 82 368 b 465 -15 82 157 254 -15 b 849 368 676 -15 849 157 b 465 751 849 579 676 751 b 82 368 254 751 82 579 z m 172 368 b 465 661 172 531 303 661 b 758 368 628 661 758 531 b 465 75 758 206 628 75 b 172 368 303 75 172 206 z "},"⚫":{"ha":931,"x_min":0,"x_max":0,"o":"m 82 368 b 465 -15 82 157 254 -15 b 849 368 676 -15 849 157 b 465 751 849 579 676 751 b 82 368 254 751 82 579 z "}," ":{"ha":278,"x_min":0,"x_max":0,"o":""}," ":{"ha":694,"x_min":0,"x_max":0,"o":""}," ":{"ha":1389,"x_min":0,"x_max":0,"o":""}," ":{"ha":463,"x_min":0,"x_max":0,"o":""}," ":{"ha":347,"x_min":0,"x_max":0,"o":""}," ":{"ha":232,"x_min":0,"x_max":0,"o":""}," ":{"ha":833,"x_min":0,"x_max":0,"o":""}," ":{"ha":250,"x_min":0,"x_max":0,"o":""}," ":{"ha":208,"x_min":0,"x_max":0,"o":""}," ":{"ha":69,"x_min":0,"x_max":0,"o":""},"­":{"ha":457,"x_min":0,"x_max":0,"o":"m 56 442 l 401 442 l 401 531 l 56 531 z "},"​":{"ha":0,"x_min":0,"x_max":0,"o":""},"":{"ha":828,"x_min":0,"x_max":0,"o":"m 257 894 b 399 1039 257 1011 306 1039 b 478 1026 429 1039 467 1032 l 478 1111 b 375 1126 467 1115 433 1126 b 160 907 250 1126 160 1067 l 160 736 l 43 736 l 43 649 l 160 649 l 160 0 l 257 0 l 257 649 l 464 649 l 464 736 l 257 736 z m 740 1035 l 615 1035 l 615 910 l 740 910 z m 629 0 l 726 0 l 726 736 l 629 736 z "},"":{"ha":828,"x_min":0,"x_max":0,"o":"m 257 894 b 399 1039 257 1011 306 1039 b 478 1026 429 1039 467 1032 l 478 1111 b 375 1126 467 1115 433 1126 b 160 907 250 1126 160 1067 l 160 736 l 43 736 l 43 649 l 160 649 l 160 0 l 257 0 l 257 649 l 464 649 l 464 736 l 257 736 z m 629 0 l 726 0 l 726 1111 l 629 1111 z "},"":{"ha":694,"x_min":0,"x_max":0,"o":"m 347 1099 b 124 853 189 1099 122 996 l 203 853 b 347 1017 203 950 244 1017 b 492 853 450 1017 492 950 l 571 853 b 347 1099 572 996 506 1099 z "},"":{"ha":694,"x_min":0,"x_max":0,"o":"m 86 1083 l 218 853 l 306 853 l 181 1083 z m 267 1083 l 389 853 l 476 853 l 360 1083 z "},"":{"ha":694,"x_min":0,"x_max":0,"o":"m 450 1111 l 450 853 l 506 853 l 532 1111 z "},"":{"ha":836,"x_min":0,"x_max":0,"o":"m 404 -121 l 290 -121 l 290 -235 l 404 -235 z "},"":{"ha":836,"x_min":0,"x_max":0,"o":"m 424 -182 b 343 -225 424 -215 397 -225 b 246 -204 307 -225 269 -217 l 225 -265 b 353 -293 253 -283 301 -293 b 496 -185 438 -293 496 -262 b 356 -76 496 -107 435 -76 b 264 -90 321 -76 288 -82 l 264 -149 b 343 -137 279 -143 314 -137 b 424 -182 396 -137 424 -147 z "},"":{"ha":463,"x_min":0,"x_max":0,"o":"m 407 442 l 407 531 l 56 531 l 56 442 z "},"":{"ha":1042,"x_min":0,"x_max":0,"o":"m 56 442 l 986 442 l 986 531 l 56 531 z "},"":{"ha":444,"x_min":0,"x_max":0,"o":"m 67 0 l 378 0 l 378 89 l 67 89 z "},"":{"ha":833,"x_min":0,"x_max":0,"o":"m 67 -187 l 767 -187 l 767 -99 l 67 -99 z "},"":{"ha":849,"x_min":0,"x_max":0,"o":"m 353 1094 l 40 0 l 149 0 l 424 985 l 700 0 l 808 0 l 496 1094 z "},"":{"ha":1278,"x_min":0,"x_max":0,"o":"m 1181 0 l 1181 1083 l 97 1083 l 97 0 z "},"":{"ha":300,"x_min":0,"x_max":0,"o":"m 213 1035 l 88 1035 l 88 910 l 213 910 z m 101 0 l 199 0 l 199 736 l 101 736 z "},"":{"ha":632,"x_min":0,"x_max":0,"o":"m 254 611 l 379 611 l 379 736 l 254 736 z m 285 474 b 39 -40 275 229 39 235 b 311 -293 39 -190 128 -293 b 596 67 538 -293 596 -137 l 596 83 l 496 83 b 367 -196 496 -69 467 -171 l 343 474 z m 140 -31 b 282 264 140 92 224 164 l 267 -199 b 140 -31 176 -185 140 -122 z "},"":{"ha":1528,"x_min":0,"x_max":0,"o":"m 385 542 l 385 614 l 257 614 l 257 1085 l 197 1085 l 28 969 l 68 908 l 174 979 l 174 614 l 44 614 l 44 542 z m 200 0 l 1000 1083 l 911 1083 l 111 0 z m 1472 550 b 1219 443 1372 550 1279 524 b 1143 194 1163 367 1143 281 l 1143 186 b 1321 -10 1143 67 1211 -10 b 1499 163 1433 -10 1499 53 l 1499 169 b 1342 340 1499 281 1433 340 b 1240 306 1300 340 1265 326 b 1285 396 1249 339 1263 369 b 1472 476 1328 453 1396 476 z m 1079 0 l 1079 72 l 951 72 l 951 543 l 892 543 l 722 428 l 763 367 l 868 438 l 868 72 l 739 72 l 739 0 z m 1322 268 l 1326 268 b 1415 174 1379 268 1415 236 l 1415 161 b 1322 64 1415 99 1376 64 l 1318 64 b 1226 181 1268 64 1226 106 l 1226 208 b 1322 268 1244 246 1282 268 z "},"":{"ha":1528,"x_min":0,"x_max":0,"o":"m 114 715 l 31 715 l 31 706 b 208 532 31 597 89 532 b 385 683 325 532 385 607 l 385 696 b 311 818 385 758 353 797 b 382 936 351 838 382 875 l 382 947 b 208 1092 382 1022 331 1092 b 35 918 89 1092 35 1031 l 35 903 l 117 903 b 204 1018 117 986 147 1018 l 211 1018 b 299 938 263 1018 299 986 l 299 932 b 213 854 299 879 263 854 l 139 854 l 139 782 l 215 782 b 303 700 267 782 303 754 l 303 690 b 211 606 303 632 258 606 l 204 606 b 114 715 150 606 114 638 z m 200 0 l 1000 1083 l 911 1083 l 111 0 z m 1472 550 b 1219 443 1372 550 1279 524 b 1143 194 1163 367 1143 281 l 1143 186 b 1321 -10 1143 67 1211 -10 b 1499 163 1433 -10 1499 53 l 1499 169 b 1342 340 1499 281 1433 340 b 1240 306 1300 340 1265 326 b 1285 396 1249 339 1263 369 b 1472 476 1328 453 1396 476 z m 1079 0 l 1079 72 l 951 72 l 951 543 l 892 543 l 722 428 l 763 367 l 868 438 l 868 72 l 739 72 l 739 0 z m 1322 268 l 1326 268 b 1415 174 1379 268 1415 236 l 1415 161 b 1322 64 1415 99 1376 64 l 1318 64 b 1226 181 1268 64 1226 106 l 1226 208 b 1322 268 1244 246 1282 268 z "},"":{"ha":1528,"x_min":0,"x_max":0,"o":"m 31 715 l 31 706 b 208 532 31 597 89 532 b 385 706 318 532 385 597 l 385 717 b 213 889 385 825 318 889 b 114 864 175 889 142 879 l 121 1010 l 378 1010 l 378 1083 l 47 1083 l 35 783 l 106 760 b 203 817 122 797 164 817 l 207 817 b 303 717 258 817 303 788 l 303 706 b 211 606 303 635 258 606 l 204 606 b 114 715 150 606 114 638 z m 200 0 l 1000 1083 l 911 1083 l 111 0 z m 1472 550 b 1219 443 1372 550 1279 524 b 1143 194 1163 367 1143 281 l 1143 186 b 1321 -10 1143 67 1211 -10 b 1499 163 1433 -10 1499 53 l 1499 169 b 1342 340 1499 281 1433 340 b 1240 306 1300 340 1265 326 b 1285 396 1249 339 1263 369 b 1472 476 1328 453 1396 476 z m 1079 0 l 1079 72 l 951 72 l 951 543 l 892 543 l 722 428 l 763 367 l 868 438 l 868 72 l 739 72 l 739 0 z m 1322 268 l 1326 268 b 1415 174 1379 268 1415 236 l 1415 161 b 1322 64 1415 99 1376 64 l 1318 64 b 1226 181 1268 64 1226 106 l 1226 208 b 1322 268 1244 246 1282 268 z "},"":{"ha":1528,"x_min":0,"x_max":0,"o":"m 32 889 l 106 889 l 106 1010 l 222 1010 l 293 1011 l 100 542 l 188 542 l 388 1032 l 388 1083 l 32 1083 z m 200 0 l 1000 1083 l 911 1083 l 111 0 z m 1472 550 b 1219 443 1372 550 1279 524 b 1143 194 1163 367 1143 281 l 1143 186 b 1321 -10 1143 67 1211 -10 b 1499 163 1433 -10 1499 53 l 1499 169 b 1342 340 1499 281 1433 340 b 1240 306 1300 340 1265 326 b 1285 396 1249 339 1263 369 b 1472 476 1328 453 1396 476 z m 1079 0 l 1079 72 l 951 72 l 951 543 l 892 543 l 722 428 l 763 367 l 868 438 l 868 72 l 739 72 l 739 0 z m 1322 268 l 1326 268 b 1415 174 1379 268 1415 236 l 1415 161 b 1322 64 1415 99 1376 64 l 1318 64 b 1226 181 1268 64 1226 106 l 1226 208 b 1322 268 1244 246 1282 268 z "},"":{"ha":1528,"x_min":0,"x_max":0,"o":"m 54 532 b 307 639 154 532 247 560 b 383 889 365 717 383 803 l 383 896 b 207 1092 383 1017 315 1092 b 29 919 94 1092 29 1029 l 29 913 b 185 743 29 803 93 743 b 288 778 226 743 261 757 b 243 686 278 744 264 713 b 54 606 199 629 132 607 z m 200 0 l 1000 1083 l 911 1083 l 111 0 z m 206 815 l 201 815 b 113 910 149 815 113 846 l 113 922 b 204 1018 113 983 150 1018 l 208 1018 b 301 903 260 1018 301 976 l 301 874 b 206 815 282 836 244 815 z m 1472 550 b 1219 443 1372 550 1279 524 b 1143 194 1163 367 1143 281 l 1143 186 b 1321 -10 1143 67 1211 -10 b 1499 163 1433 -10 1499 53 l 1499 169 b 1342 340 1499 281 1433 340 b 1240 306 1300 340 1265 326 b 1285 396 1249 339 1263 369 b 1472 476 1328 453 1396 476 z m 1079 0 l 1079 72 l 951 72 l 951 543 l 892 543 l 722 428 l 763 367 l 868 438 l 868 72 l 739 72 l 739 0 z m 1322 268 l 1326 268 b 1415 174 1379 268 1415 236 l 1415 161 b 1322 64 1415 99 1376 64 l 1318 64 b 1226 181 1268 64 1226 106 l 1226 208 b 1322 268 1244 246 1282 268 z "},"":{"ha":1944,"x_min":0,"x_max":0,"o":"m 385 542 l 385 614 l 257 614 l 257 1085 l 197 1085 l 28 969 l 68 908 l 174 979 l 174 614 l 44 614 l 44 542 z m 801 542 l 801 614 l 674 614 l 674 1085 l 614 1085 l 444 969 l 485 908 l 590 979 l 590 614 l 461 614 l 461 542 z m 617 0 l 1417 1083 l 1328 1083 l 528 0 z m 1889 550 b 1636 443 1789 550 1696 524 b 1560 194 1579 367 1560 281 l 1560 186 b 1738 -10 1560 67 1628 -10 b 1915 163 1850 -10 1915 53 l 1915 169 b 1758 340 1915 281 1850 340 b 1657 306 1717 340 1682 326 b 1701 396 1665 339 1679 369 b 1889 476 1744 453 1813 476 z m 1496 0 l 1496 72 l 1368 72 l 1368 543 l 1308 543 l 1139 428 l 1179 367 l 1285 438 l 1285 72 l 1156 72 l 1156 0 z m 1739 268 l 1743 268 b 1832 174 1796 268 1832 236 l 1832 161 b 1739 64 1832 99 1793 64 l 1735 64 b 1643 181 1685 64 1643 106 l 1643 208 b 1739 268 1661 246 1699 268 z "},"":{"ha":1944,"x_min":0,"x_max":0,"o":"m 531 715 l 447 715 l 447 706 b 625 532 447 597 506 532 b 801 683 742 532 801 607 l 801 696 b 728 818 801 758 769 797 b 799 936 768 838 799 875 l 799 947 b 625 1092 799 1022 747 1092 b 451 918 506 1092 451 1031 l 451 903 l 533 903 b 621 1018 533 986 564 1018 l 628 1018 b 715 938 679 1018 715 986 l 715 932 b 629 854 715 879 679 854 l 556 854 l 556 782 l 632 782 b 719 700 683 782 719 754 l 719 690 b 628 606 719 632 675 606 l 621 606 b 531 715 567 606 531 638 z m 385 542 l 385 614 l 257 614 l 257 1085 l 197 1085 l 28 969 l 68 908 l 174 979 l 174 614 l 44 614 l 44 542 z m 617 0 l 1417 1083 l 1328 1083 l 528 0 z m 1889 550 b 1636 443 1789 550 1696 524 b 1560 194 1579 367 1560 281 l 1560 186 b 1738 -10 1560 67 1628 -10 b 1915 163 1850 -10 1915 53 l 1915 169 b 1758 340 1915 281 1850 340 b 1657 306 1717 340 1682 326 b 1701 396 1665 339 1679 369 b 1889 476 1744 453 1813 476 z m 1496 0 l 1496 72 l 1368 72 l 1368 543 l 1308 543 l 1139 428 l 1179 367 l 1285 438 l 1285 72 l 1156 72 l 1156 0 z m 1739 268 l 1743 268 b 1832 174 1796 268 1832 236 l 1832 161 b 1739 64 1832 99 1793 64 l 1735 64 b 1643 181 1685 64 1643 106 l 1643 208 b 1739 268 1661 246 1699 268 z "},"":{"ha":1944,"x_min":0,"x_max":0,"o":"m 385 542 l 385 614 l 257 614 l 257 1085 l 197 1085 l 28 969 l 68 908 l 174 979 l 174 614 l 44 614 l 44 542 z m 447 715 l 447 706 b 625 532 447 597 506 532 b 801 706 735 532 801 597 l 801 717 b 629 889 801 825 735 889 b 531 864 592 889 558 879 l 538 1010 l 794 1010 l 794 1083 l 464 1083 l 451 783 l 522 760 b 619 817 539 797 581 817 l 624 817 b 719 717 675 817 719 788 l 719 706 b 628 606 719 635 675 606 l 621 606 b 531 715 567 606 531 638 z m 617 0 l 1417 1083 l 1328 1083 l 528 0 z m 1889 550 b 1636 443 1789 550 1696 524 b 1560 194 1579 367 1560 281 l 1560 186 b 1738 -10 1560 67 1628 -10 b 1915 163 1850 -10 1915 53 l 1915 169 b 1758 340 1915 281 1850 340 b 1657 306 1717 340 1682 326 b 1701 396 1665 339 1679 369 b 1889 476 1744 453 1813 476 z m 1496 0 l 1496 72 l 1368 72 l 1368 543 l 1308 543 l 1139 428 l 1179 367 l 1285 438 l 1285 72 l 1156 72 l 1156 0 z m 1739 268 l 1743 268 b 1832 174 1796 268 1832 236 l 1832 161 b 1739 64 1832 99 1793 64 l 1735 64 b 1643 181 1685 64 1643 106 l 1643 208 b 1739 268 1661 246 1699 268 z "},"":{"ha":0,"x_min":0,"x_max":0,"o":"m -432 -78 l -546 -78 l -546 -172 l -485 -172 b -578 -247 -493 -226 -528 -247 l -578 -297 b -432 -147 -486 -297 -432 -243 z "},"":{"ha":417,"x_min":0,"x_max":0,"o":"m 271 125 l 146 125 l 146 0 l 271 0 z "},"":{"ha":417,"x_min":0,"x_max":0,"o":"m 271 125 l 146 125 l 146 0 l 211 0 b 114 -106 206 -79 171 -106 l 114 -164 b 271 25 217 -164 271 -101 z "},"":{"ha":417,"x_min":0,"x_max":0,"o":"m 271 604 l 146 604 l 146 479 l 271 479 z m 271 125 l 146 125 l 146 0 l 271 0 z "},"":{"ha":417,"x_min":0,"x_max":0,"o":"m 271 604 l 146 604 l 146 479 l 271 479 z m 271 125 l 146 125 l 146 0 l 211 0 b 114 -106 206 -79 171 -106 l 114 -164 b 271 25 217 -164 271 -101 z "},"":{"ha":694,"x_min":0,"x_max":0,"o":"m 211 1319 l 297 1167 l 397 1167 l 314 1319 z "},"":{"ha":694,"x_min":0,"x_max":0,"o":"m 381 1319 l 297 1167 l 397 1167 l 483 1319 z "},"":{"ha":694,"x_min":0,"x_max":0,"o":"m 253 1167 l 347 1258 l 442 1167 l 539 1167 l 392 1319 l 303 1319 l 156 1167 z "},"":{"ha":694,"x_min":0,"x_max":0,"o":"m 489 1300 b 438 1240 489 1254 465 1240 b 246 1315 383 1240 332 1315 b 136 1186 182 1315 136 1276 l 206 1186 b 257 1246 206 1232 229 1246 b 449 1171 311 1246 363 1171 b 558 1300 513 1171 558 1210 z "},"":{"ha":694,"x_min":0,"x_max":0,"o":"m 190 1206 l 504 1206 l 504 1281 l 190 1281 z "},"":{"ha":694,"x_min":0,"x_max":0,"o":"m 347 1151 b 549 1319 493 1151 549 1224 l 471 1319 b 347 1221 471 1258 433 1221 b 224 1319 261 1221 224 1258 l 146 1319 b 347 1151 146 1224 201 1151 z "},"":{"ha":694,"x_min":0,"x_max":0,"o":"m 347 1335 b 146 1167 201 1335 146 1263 l 224 1167 b 347 1265 224 1228 261 1265 b 471 1167 433 1265 471 1228 l 549 1167 b 347 1335 549 1263 493 1335 z "},"":{"ha":694,"x_min":0,"x_max":0,"o":"m 403 1292 l 292 1292 l 292 1194 l 403 1194 z "},"":{"ha":694,"x_min":0,"x_max":0,"o":"m 293 1292 l 183 1292 l 183 1194 l 293 1194 z m 511 1292 l 401 1292 l 401 1194 l 511 1194 z "},"":{"ha":694,"x_min":0,"x_max":0,"o":"m 217 1204 b 347 1074 217 1132 275 1074 b 478 1204 419 1074 478 1132 b 347 1335 478 1276 419 1335 b 217 1204 275 1335 217 1276 z m 269 1204 b 347 1282 269 1247 304 1282 b 425 1204 390 1282 425 1247 b 347 1126 425 1161 390 1126 b 269 1204 304 1126 269 1161 z "},"":{"ha":694,"x_min":0,"x_max":0,"o":"m 294 1319 l 214 1167 l 307 1167 l 392 1319 z m 471 1319 l 388 1167 l 481 1167 l 568 1319 z "},"":{"ha":694,"x_min":0,"x_max":0,"o":"m 126 1319 l 214 1167 l 307 1167 l 224 1319 z m 303 1319 l 388 1167 l 481 1167 l 400 1319 z "},"":{"ha":694,"x_min":0,"x_max":0,"o":"m 156 1319 l 303 1167 l 392 1167 l 539 1319 l 442 1319 l 347 1226 l 253 1319 z "},"":{"ha":0,"x_min":0,"x_max":0,"o":"m -403 1167 l -292 1167 l -292 1250 l -350 1250 b -276 1292 -343 1282 -321 1292 l -276 1336 b -403 1225 -365 1336 -403 1288 z "},"":{"ha":300,"x_min":0,"x_max":0,"o":"m 88 958 l 213 958 l 213 1083 l 88 1083 z m 210 0 l 183 821 l 117 821 l 90 0 z "},"":{"ha":632,"x_min":0,"x_max":0,"o":"m 256 958 l 381 958 l 381 1083 l 256 1083 z m 311 75 b 140 283 178 75 140 154 b 350 821 140 478 360 542 l 285 821 b 39 274 275 542 39 550 b 311 -15 39 100 117 -15 b 596 367 538 -15 596 150 l 596 383 l 497 383 b 311 75 497 193 457 75 z "},"":{"ha":422,"x_min":0,"x_max":0,"o":"m 353 797 l 69 585 l 69 499 l 353 286 l 353 383 l 146 542 l 353 700 z "},"":{"ha":422,"x_min":0,"x_max":0,"o":"m 69 700 l 276 542 l 69 383 l 69 286 l 353 499 l 353 585 l 69 797 z "},"":{"ha":718,"x_min":0,"x_max":0,"o":"m 353 797 l 69 585 l 69 499 l 353 286 l 353 383 l 146 542 l 353 700 z m 649 797 l 365 585 l 365 499 l 649 286 l 649 383 l 440 542 l 649 700 z "},"":{"ha":718,"x_min":0,"x_max":0,"o":"m 69 700 l 276 542 l 69 383 l 69 286 l 353 499 l 353 585 l 69 797 z m 365 700 l 571 542 l 365 383 l 365 286 l 649 499 l 649 585 l 365 797 z "},"":{"ha":446,"x_min":0,"x_max":0,"o":"m 139 0 l 406 1083 l 308 1083 l 42 0 z "},"":{"ha":446,"x_min":0,"x_max":0,"o":"m 42 1083 l 308 0 l 406 0 l 139 1083 z "},"":{"ha":279,"x_min":0,"x_max":0,"o":"m 92 0 l 189 0 l 189 1083 l 92 1083 z "},"":{"ha":454,"x_min":0,"x_max":0,"o":"m 92 0 l 189 0 l 189 1083 l 92 1083 z m 265 0 l 363 0 l 363 1083 l 265 1083 z "},"":{"ha":279,"x_min":0,"x_max":0,"o":"m 92 592 l 189 592 l 189 1083 l 92 1083 z m 92 0 l 189 0 l 189 492 l 92 492 z "},"":{"ha":551,"x_min":0,"x_max":0,"o":"m 457 724 l 94 724 l 94 360 l 457 360 z "},"":{"ha":301,"x_min":0,"x_max":0,"o":"m 211 603 l 90 603 l 90 481 l 211 481 z "},"":{"ha":444,"x_min":0,"x_max":0,"o":"m 56 497 l 401 497 l 401 586 l 56 586 z "},"":{"ha":463,"x_min":0,"x_max":0,"o":"m 407 497 l 407 586 l 65 586 l 65 497 z "},"":{"ha":694,"x_min":0,"x_max":0,"o":"m 56 497 l 639 497 l 639 586 l 56 586 z "},"":{"ha":1042,"x_min":0,"x_max":0,"o":"m 56 497 l 986 497 l 986 586 l 56 586 z "},"":{"ha":1389,"x_min":0,"x_max":0,"o":"m 56 497 l 1333 497 l 1333 586 l 56 586 z "},"":{"ha":833,"x_min":0,"x_max":0,"o":"m 56 497 l 778 497 l 778 586 l 56 586 z "},"":{"ha":1667,"x_min":0,"x_max":0,"o":"m 56 497 l 1611 497 l 1611 586 l 56 586 z "},"":{"ha":440,"x_min":0,"x_max":0,"o":"m 83 528 b 253 0 83 314 157 135 l 357 0 b 182 528 264 135 182 324 l 182 556 b 357 1083 182 760 264 949 l 253 1083 b 83 556 157 949 83 769 z "},"":{"ha":440,"x_min":0,"x_max":0,"o":"m 357 556 b 188 1083 357 769 283 949 l 83 1083 b 258 556 176 949 258 760 l 258 528 b 83 0 258 324 176 135 l 188 0 b 357 528 283 135 357 314 z "},"":{"ha":440,"x_min":0,"x_max":0,"o":"m 93 1083 l 93 0 l 382 0 l 382 92 l 192 92 l 192 992 l 382 992 l 382 1083 z "},"":{"ha":440,"x_min":0,"x_max":0,"o":"m 347 0 l 347 1083 l 58 1083 l 58 992 l 250 992 l 250 92 l 58 92 l 58 0 z "},"":{"ha":440,"x_min":0,"x_max":0,"o":"m 382 1083 l 357 1083 b 154 890 256 1083 154 1042 l 154 710 b 35 588 154 608 114 588 l 35 496 b 154 374 114 496 154 475 l 154 193 b 357 0 154 42 256 0 l 382 0 l 382 92 b 251 235 300 92 251 121 l 251 399 b 176 542 251 474 222 518 b 251 685 222 564 251 608 l 251 849 b 382 992 251 963 300 992 z "},"":{"ha":440,"x_min":0,"x_max":0,"o":"m 58 992 b 189 849 140 992 189 963 l 189 685 b 264 542 189 608 218 564 b 189 399 218 518 189 474 l 189 235 b 58 92 189 121 140 92 l 58 0 l 83 0 b 286 193 185 0 286 42 l 286 374 b 406 496 286 475 326 496 l 406 588 b 286 710 326 588 286 608 l 286 890 b 83 1083 286 1042 185 1083 l 58 1083 z "},"":{"ha":440,"x_min":0,"x_max":0,"o":"m 354 1083 l 253 1083 l 67 542 l 253 0 l 354 0 l 168 542 z "},"":{"ha":440,"x_min":0,"x_max":0,"o":"m 274 542 l 86 0 l 188 0 l 375 542 l 188 1083 l 86 1083 z "},"":{"ha":1335,"x_min":0,"x_max":0,"o":"m 696 -78 b 125 514 361 -78 125 129 l 125 569 b 689 1161 125 943 357 1161 l 697 1161 b 1207 678 961 1161 1207 1025 l 1207 636 b 921 297 1207 351 1094 301 l 921 671 l 929 875 l 854 875 l 840 774 b 625 890 803 836 733 890 b 353 565 432 890 353 735 l 353 532 b 625 207 353 363 432 207 b 840 324 733 207 803 260 l 854 222 l 918 222 b 1289 636 1133 222 1289 303 l 1289 678 b 693 1238 1289 1058 1017 1238 b 46 569 310 1238 46 990 l 46 514 b 700 -154 46 93 315 -154 b 1206 7 863 -154 1043 -121 l 1161 67 b 704 -78 1022 -36 872 -78 z m 646 290 b 449 532 508 290 449 394 l 449 565 b 646 807 449 703 508 807 b 831 696 739 807 800 743 l 831 401 b 646 290 800 354 739 290 z "},"":{"ha":632,"x_min":0,"x_max":0,"o":"m 253 958 l 378 958 l 378 1083 l 253 1083 z m 36 274 b 308 -15 36 100 114 -15 b 593 367 535 -15 593 150 l 593 383 l 494 383 b 365 82 494 219 465 110 l 342 821 l 282 821 b 36 274 272 542 36 550 z m 138 283 b 281 589 138 408 222 479 l 265 78 b 138 283 167 93 138 169 z "},"":{"ha":1278,"x_min":0,"x_max":0,"o":"m 82 542 b 639 -15 82 235 332 -15 b 1196 542 946 -15 1196 235 b 639 1099 1196 849 946 1099 b 82 542 332 1099 82 849 z m 142 542 b 639 1039 142 817 364 1039 b 1136 542 914 1039 1136 817 b 639 44 1136 267 914 44 b 142 542 364 44 142 267 z m 504 475 l 676 475 l 772 215 l 869 215 l 761 490 b 869 664 821 513 869 563 l 869 681 b 665 868 869 832 761 868 l 413 868 l 413 215 l 504 215 z m 504 550 l 504 793 l 653 793 b 778 676 708 793 778 775 l 778 667 b 653 550 778 569 708 550 z "},"":{"ha":417,"x_min":0,"x_max":0,"o":"m 381 -124 l 381 110 b 208 272 381 203 326 272 b 36 110 90 272 36 203 l 36 -124 b 208 -287 36 -218 90 -287 b 381 -124 326 -287 381 -218 z m 297 106 l 297 -121 b 210 -214 297 -176 272 -214 l 206 -214 b 119 -121 143 -214 119 -176 l 119 106 b 206 199 119 163 143 199 l 210 199 b 297 106 272 199 297 163 z "},"":{"ha":417,"x_min":0,"x_max":0,"o":"m 385 -278 l 385 -206 l 257 -206 l 257 265 l 197 265 l 28 150 l 68 89 l 174 160 l 174 -206 l 44 -206 l 44 -278 z "},"":{"ha":417,"x_min":0,"x_max":0,"o":"m 382 -206 l 154 -206 l 319 -26 b 382 114 364 22 382 54 l 382 124 b 208 272 382 203 331 272 b 35 99 89 272 35 211 l 35 83 l 117 83 b 206 199 117 167 149 199 l 210 199 b 299 110 263 199 299 167 l 299 103 b 254 13 299 68 286 46 l 35 -226 l 35 -278 l 382 -278 z "},"":{"ha":417,"x_min":0,"x_max":0,"o":"m 114 -104 l 31 -104 l 31 -114 b 208 -287 31 -222 89 -287 b 385 -136 325 -287 385 -212 l 385 -124 b 311 -1 385 -61 353 -21 b 382 117 351 18 382 56 l 382 128 b 208 272 382 203 331 272 b 35 99 89 272 35 211 l 35 83 l 117 83 b 204 199 117 167 147 199 l 211 199 b 299 118 263 199 299 167 l 299 113 b 213 35 299 60 263 35 l 139 35 l 139 -37 l 215 -37 b 303 -119 267 -37 303 -65 l 303 -129 b 211 -214 303 -187 258 -214 l 204 -214 b 114 -104 150 -214 114 -182 z "},"":{"ha":417,"x_min":0,"x_max":0,"o":"m 324 -278 l 324 -149 l 396 -149 l 396 -75 l 324 -75 l 324 264 l 243 264 l 19 -92 l 19 -149 l 240 -149 l 240 -278 z m 242 129 l 240 75 l 240 -75 l 158 -75 l 111 -76 z "},"":{"ha":417,"x_min":0,"x_max":0,"o":"m 31 -104 l 31 -114 b 208 -287 31 -222 89 -287 b 385 -114 318 -287 385 -222 l 385 -103 b 213 69 385 6 318 69 b 114 44 175 69 142 60 l 121 190 l 378 190 l 378 264 l 47 264 l 35 -36 l 106 -60 b 203 -3 122 -22 164 -3 l 207 -3 b 303 -103 258 -3 303 -32 l 303 -114 b 211 -214 303 -185 258 -214 l 204 -214 b 114 -104 150 -214 114 -182 z "},"":{"ha":417,"x_min":0,"x_max":0,"o":"m 361 272 b 108 165 261 272 168 246 b 32 -83 51 89 32 3 l 32 -92 b 210 -287 32 -211 100 -287 b 388 -115 322 -287 388 -225 l 388 -108 b 231 63 388 3 322 63 b 129 28 189 63 154 49 b 174 118 138 61 151 92 b 361 199 217 175 285 199 z m 211 -10 l 215 -10 b 304 -104 268 -10 304 -42 l 304 -117 b 211 -214 304 -179 265 -214 l 207 -214 b 115 -97 157 -214 115 -172 l 115 -68 b 211 -10 133 -31 171 -10 z "},"":{"ha":417,"x_min":0,"x_max":0,"o":"m 32 69 l 106 69 l 106 190 l 222 190 l 293 192 l 100 -278 l 188 -278 l 388 213 l 388 264 l 32 264 z "},"":{"ha":417,"x_min":0,"x_max":0,"o":"m 208 -287 b 385 -136 325 -287 385 -212 l 385 -124 b 310 -1 385 -61 353 -21 b 382 117 351 18 382 56 l 382 129 b 208 272 382 203 331 272 b 35 129 86 272 35 203 l 35 117 b 106 -1 35 56 64 18 b 31 -124 63 -21 31 -61 l 31 -136 b 208 -287 31 -212 90 -287 z m 211 199 b 299 119 263 199 299 168 l 299 113 b 213 35 299 60 263 35 l 204 35 b 117 113 153 35 117 60 l 117 119 b 204 199 117 168 153 199 z m 201 -37 l 215 -37 b 303 -121 267 -37 303 -67 l 303 -129 b 211 -214 303 -187 258 -214 l 204 -214 b 114 -129 157 -214 114 -187 l 114 -121 b 201 -37 114 -67 150 -37 z "},"":{"ha":417,"x_min":0,"x_max":0,"o":"m 54 -287 b 307 -181 154 -287 247 -260 b 383 69 365 -103 383 -17 l 383 76 b 207 272 383 197 315 272 b 29 100 94 272 29 210 l 29 93 b 185 -76 29 -17 93 -76 b 288 -40 226 -76 261 -61 b 243 -133 278 -75 264 -106 b 54 -214 199 -190 132 -212 z m 206 -4 l 201 -4 b 113 90 149 -4 113 26 l 113 103 b 204 199 113 164 150 199 l 208 199 b 301 83 260 199 301 157 l 301 54 b 206 -4 282 17 244 -4 z "},"":{"ha":417,"x_min":0,"x_max":0,"o":"m 171 171 l 171 29 l 31 29 l 31 -44 l 171 -44 l 171 -185 l 244 -185 l 244 -44 l 386 -44 l 386 29 l 244 29 l 244 171 z "},"":{"ha":417,"x_min":0,"x_max":0,"o":"m 31 -44 l 386 -44 l 386 29 l 31 29 z "},"":{"ha":417,"x_min":0,"x_max":0,"o":"m 31 29 l 386 29 l 386 103 l 31 103 z m 31 -118 l 386 -118 l 386 -43 l 31 -43 z "},"":{"ha":238,"x_min":0,"x_max":0,"o":"m 36 -14 b 119 -278 36 -129 72 -218 l 206 -278 b 118 -14 163 -215 118 -121 l 118 0 b 206 264 118 107 163 201 l 119 264 b 36 0 72 203 36 114 z "},"":{"ha":238,"x_min":0,"x_max":0,"o":"m 201 0 b 118 264 201 114 165 203 l 33 264 b 119 0 75 201 119 107 l 119 -14 b 33 -278 119 -121 75 -215 l 118 -278 b 201 -14 165 -218 201 -129 z "},"₽":{"ha":833,"x_min":0,"x_max":0,"o":"m 254 440 l 438 440 b 769 747 593 440 769 499 l 769 775 b 438 1083 769 1025 593 1083 l 154 1083 l 154 531 l 32 531 l 32 440 l 154 440 l 154 354 l 32 354 l 32 264 l 154 264 l 154 0 l 254 0 l 254 264 l 543 264 l 543 354 l 254 354 z m 254 531 l 254 993 l 440 993 b 667 772 533 993 667 958 l 667 751 b 440 531 667 565 533 531 z "}}}
